<?xml version="1.0" encoding="UTF-8"?>
<!DOCTYPE svg PUBLIC "-//W3C//DTD SVG 1.1//EN" "http://www.w3.org/Graphics/SVG/1.1/DTD/svg11.dtd">
<!-- Creator: CorelDRAW X8 -->
<svg xmlns="http://www.w3.org/2000/svg" xml:space="preserve" width="400px" height="300px" version="1.1" style="shape-rendering:geometricPrecision; text-rendering:geometricPrecision; image-rendering:optimizeQuality; fill-rule:evenodd; clip-rule:evenodd"
viewBox="0 0 4724 3543"
 xmlns:xlink="http://www.w3.org/1999/xlink">
 <defs>
  <style type="text/css">
   <![CDATA[
    .str0 {stroke:white;stroke-width:11.81}
    .str1 {stroke:white;stroke-width:5.905;stroke-linecap:round}
    .str2 {stroke:white;stroke-width:17.715;stroke-linecap:round}
    .str3 {stroke:white;stroke-width:5.905;stroke-linecap:round;stroke-linejoin:round}
    .fil2 {fill:none}
    .fil0 {fill:#193153}
    .fil1 {fill:#758396}
    .fil3 {fill:#BCC5D1}
   ]]>
  </style>
 </defs>
 <g id="Слой_x0020_1">
  <metadata id="CorelCorpID_0Corel-Layer"/>
  <rect class="fil0" width="4724" height="3543"/>
  <path class="fil1 str0" d="M1164 162l2572 0 0 766c0,51 -16,54 -50,54l-2522 0 0 -820zm2572 0l770 0 0 3111 -820 0 0 -2291c34,0 50,-3 50,-54l0 -766z"/>
  <g id="_2487978411024">
   <path class="fil2 str1" d="M4367 2029l0 -62"/>
   <path class="fil2 str2" d="M4064 2251l305 0"/>
   <path class="fil2 str1" d="M4367 2472l0 62"/>
   <path class="fil2 str1" d="M4130 2214l-297 -394m297 467l-297 394m358 -392l105 392m-183 -430c0,-27 21,-48 48,-48 26,0 48,21 48,48 0,26 -22,48 -48,48 -27,0 -48,-22 -48,-48zm78 -38l105 -393m-463 861l0 -861 463 0 0 861 -463 0zm516 -634c0,-10 8,-18 18,-18 9,0 17,8 17,18 0,10 -8,18 -17,18 -10,0 -18,-8 -18,-18zm-23 0c0,-23 18,-41 41,-41 22,0 41,18 41,41 0,23 -19,41 -41,41 -23,0 -41,-18 -41,-41zm0 204c0,-23 18,-41 41,-41 22,0 41,18 41,41 0,22 -19,41 -41,41 -23,0 -41,-19 -41,-41zm82 203c0,23 -19,41 -41,41 -23,0 -41,-18 -41,-41 0,-22 18,-40 41,-40 22,0 41,18 41,40zm-24 0c0,10 -8,18 -17,18 -10,0 -18,-8 -18,-18 0,-9 8,-17 18,-17 9,0 17,8 17,17z"/>
  </g>
  <path class="fil2 str3" d="M1874 508c41,0 75,34 75,75 0,42 -34,75 -75,75 -42,0 -75,-33 -75,-75 0,-41 33,-75 75,-75zm0 20c30,0 55,25 55,55 0,31 -25,56 -55,56 -31,0 -56,-25 -56,-56 0,-30 25,-55 56,-55zm0 19c20,0 36,16 36,36 0,20 -16,36 -36,36 -20,0 -36,-16 -36,-36 0,-20 16,-36 36,-36zm0 -57l0 45m0 96l0 45m-93 -93l45 0m96 0l45 0m21 311c7,0 13,6 13,14 0,7 -6,13 -13,13 -8,0 -14,-6 -14,-13 0,-8 6,-14 14,-14zm0 0l0 9m41 -9c7,0 13,6 13,14 0,7 -6,13 -13,13 -8,0 -14,-6 -14,-13 0,-8 6,-14 14,-14zm0 0l0 9m43 -9c7,0 13,6 13,14 0,7 -6,13 -13,13 -8,0 -14,-6 -14,-13 0,-8 6,-14 14,-14zm0 0l0 9m41 -9c7,0 13,6 13,14 0,7 -6,13 -13,13 -7,0 -13,-6 -13,-13 0,-8 6,-14 13,-14zm0 0l0 9m43 -9c7,0 13,6 13,14 0,7 -6,13 -13,13 -8,0 -14,-6 -14,-13 0,-8 6,-14 14,-14zm0 0l0 9m125 -395c41,0 75,34 75,75 0,42 -34,75 -75,75 -41,0 -75,-33 -75,-75 0,-41 34,-75 75,-75zm0 20c31,0 55,25 55,55 0,31 -24,56 -55,56 -30,0 -55,-25 -55,-56 0,-30 25,-55 55,-55zm0 19c20,0 36,16 36,36 0,20 -16,36 -36,36 -20,0 -36,-16 -36,-36 0,-20 16,-36 36,-36zm0 -57l0 45m0 96l0 45m-93 -93l45 0m96 0l45 0m-93 -21c12,0 21,9 21,21 0,12 -9,22 -21,22 -12,0 -21,-10 -21,-22 0,-12 9,-21 21,-21zm-408 167c31,0 57,26 57,58 0,31 -26,57 -57,57 -32,0 -58,-26 -58,-57 0,-32 26,-58 58,-58zm0 15c23,0 42,19 42,43 0,23 -19,42 -42,42 -24,0 -43,-19 -43,-42 0,-24 19,-43 43,-43zm0 15c15,0 27,13 27,28 0,15 -12,27 -27,27 -15,0 -28,-12 -28,-27 0,-15 13,-28 28,-28zm0 -43l0 34m0 73l0 35m-71 -71l34 0m73 0l35 0m-71 -12c6,0 11,5 11,12 0,6 -5,11 -11,11 -7,0 -12,-5 -12,-11 0,-7 5,-12 12,-12zm409 -57c31,0 57,25 57,57 0,32 -26,58 -57,58 -32,0 -58,-26 -58,-58 0,-32 26,-57 58,-57zm0 15c23,0 42,19 42,42 0,24 -19,43 -42,43 -24,0 -43,-19 -43,-43 0,-23 19,-42 43,-42zm0 15c15,0 27,12 27,27 0,15 -12,28 -27,28 -16,0 -28,-13 -28,-28 0,-15 12,-27 28,-27zm0 -44l0 34m0 74l0 34m-72 -71l35 0m73 0l35 0m-71 -11c6,0 11,5 11,11 0,7 -5,12 -11,12 -7,0 -12,-5 -12,-12 0,-6 5,-11 12,-11zm-210 -162c46,0 83,38 83,84 0,46 -37,83 -83,83 -46,0 -84,-37 -84,-83 0,-46 38,-84 84,-84zm0 22c34,0 61,28 61,62 0,34 -27,61 -61,61 -34,0 -62,-27 -62,-61 0,-34 28,-62 62,-62zm0 22c22,0 39,18 39,40 0,22 -17,39 -39,39 -22,0 -40,-17 -40,-39 0,-22 18,-40 40,-40zm0 -63l0 50m0 106l0 50m-103 -103l49 0m107 0l50 0m-446 -224l680 0 0 475 -680 0 0 -475zm17 17l646 0 1 398 -646 0 -1 -398z"/>
  <g id="_2488041902848">
   <path class="fil1 str0" d="M4506 162l0 983 -472 0 -459 -463 -2410 1 -1 335 -993 0 0 -856 4335 0z"/>
   <path class="fil1 str0" d="M4506 162l0 907 -440 0 -459 -463 -2518 1 -1 335 -841 0 0 -780 4259 0z"/>
   <path class="fil3 str0" d="M284 162l4222 0 0 870 -425 0 -459 -463 -2570 1 -1 334 -767 0 0 -742z"/>
   <path class="fil2 str0" d="M1088 570l0 -408"/>
   <path class="fil2 str0" d="M1651 570l0 -408"/>
   <path class="fil2 str0" d="M2483 570l0 -408"/>
   <path class="fil2 str0" d="M3046 570l0 -408"/>
   <path class="fil2 str0" d="M3608 570l0 -408"/>
  </g>
  <g id="_2488041888448">
   <path class="fil1 str0" d="M713 2219c0,170 0,128 195,202 264,101 320,95 320,-202 0,-297 -56,-302 -320,-201 -195,74 -195,32 -195,201zm-28 0c0,78 17,152 40,203l-34 0c-14,-30 -38,-121 -38,-203 0,-81 24,-172 38,-202l34 0c-23,50 -40,125 -40,202z"/>
   <path class="fil1 str0" d="M1919 3160c169,1 127,0 202,-195 100,-264 95,-320 -202,-320 -297,0 -302,56 -202,320 75,195 33,196 202,195zm0 29c78,-1 152,-18 202,-40l0 33c-30,15 -121,38 -202,38 -82,0 -172,-23 -202,-38l0 -33c50,22 124,39 202,40z"/>
   <path class="fil3 str0" d="M1298 1760l1259 0 0 918 -1259 0 0 -918z"/>
   <g>
    <path class="fil2 str0" d="M1445 2086c73,0 133,60 133,133 0,74 -60,134 -133,134 -74,0 -134,-60 -134,-134 0,-73 60,-133 134,-133z"/>
    <path class="fil2 str0" d="M1311 2027l246 0 0 36 -246 0 0 -36z"/>
    <path class="fil2 str0" d="M1311 2376l246 0 0 36 -246 0 0 -36z"/>
    <path class="fil2 str0" d="M1589 2131l31 0 0 188 -31 0 0 -188z"/>
    <path class="fil2 str0" d="M1679 2225c27,0 49,21 49,47 0,26 -22,48 -49,48 -27,0 -48,-22 -48,-48 0,-26 21,-47 48,-47z"/>
    <path class="fil2 str0" d="M1614 2331c20,0 36,16 36,36 0,20 -16,36 -36,36 -20,0 -36,-16 -36,-36 0,-20 16,-36 36,-36z"/>
    <path class="fil1 str0" d="M1357 2131l175 0 0 177 -175 0 0 -177z"/>
   </g>
   <g>
    <path class="fil2 str0" d="M1785 2513c0,-73 60,-133 134,-133 74,0 134,60 134,133 0,74 -60,134 -134,134 -74,0 -134,-60 -134,-134z"/>
    <path class="fil2 str0" d="M1726 2647l0 -246 36 0 0 246 -36 0z"/>
    <path class="fil2 str0" d="M2075 2647l0 -246 37 0 0 246 -37 0z"/>
    <path class="fil2 str0" d="M1830 2369l0 -31 188 0 0 31 -188 0z"/>
    <path class="fil2 str0" d="M1924 2279c0,-27 21,-49 48,-49 26,0 47,22 47,49 0,26 -21,48 -47,48 -27,0 -48,-22 -48,-48z"/>
    <path class="fil2 str0" d="M2031 2344c0,-20 16,-36 35,-36 20,0 36,16 36,36 0,20 -16,36 -36,36 -19,0 -35,-16 -35,-36z"/>
    <path class="fil1 str0" d="M1830 2601l0 -175 178 0 0 175 -178 0z"/>
   </g>
   <path class="fil2 str0" d="M2234 1905c67,0 122,54 122,122 0,67 -55,122 -122,122 -68,0 -122,-55 -122,-122 0,-68 54,-122 122,-122z"/>
   <path class="fil1 str0" d="M3128 2219c1,170 0,128 -195,202 -264,101 -320,95 -320,-202 0,-297 56,-302 320,-201 195,74 196,32 195,201zm29 0c-1,78 -18,152 -40,203l33 0c15,-30 38,-121 38,-203 0,-81 -23,-172 -38,-202l-33 0c22,50 39,125 40,202z"/>
  </g>
 </g>
</svg>
