<?xml version="1.0" encoding="UTF-8"?>
<!DOCTYPE svg PUBLIC "-//W3C//DTD SVG 1.1//EN" "http://www.w3.org/Graphics/SVG/1.1/DTD/svg11.dtd">
<!-- Creator: CorelDRAW X8 -->
<svg xmlns="http://www.w3.org/2000/svg" xml:space="preserve" width="400px" height="300px" version="1.1" style="shape-rendering:geometricPrecision; text-rendering:geometricPrecision; image-rendering:optimizeQuality; fill-rule:evenodd; clip-rule:evenodd"
viewBox="0 0 4724 3543"
 xmlns:xlink="http://www.w3.org/1999/xlink">
 <defs>
  <style type="text/css">
   <![CDATA[
    .str0 {stroke:white;stroke-width:11.81}
    .str1 {stroke:white;stroke-width:5.905;stroke-linecap:round}
    .str2 {stroke:white;stroke-width:17.715;stroke-linecap:round}
    .str3 {stroke:white;stroke-width:5.905;stroke-linecap:round;stroke-linejoin:round}
    .fil2 {fill:none}
    .fil0 {fill:#193153}
    .fil1 {fill:#758396}
    .fil3 {fill:#BCC5D1}
   ]]>
  </style>
 </defs>
 <g id="Копия_x0020_Слой_x0020_1">
  <metadata id="CorelCorpID_0Corel-Layer"/>
  <rect class="fil0" width="4724" height="3543"/>
  <path class="fil1 str0" d="M1048 162l2688 0 0 766c0,51 -16,54 -50,54l-2638 0 0 -820zm2688 0l770 0 0 3111 -420 0c-253,0 -395,-1 -400,-373l0 -1918c34,0 50,-3 50,-54l0 -766z"/>
  <path class="fil1 str0" d="M1054 162l-770 0 0 1917 820 0 0 -1097c-34,0 -50,-4 -50,-54l0 -766z"/>
  <g id="_2487908803856">
   <path class="fil2 str1" d="M390 1633l0 63"/>
   <path class="fil2 str2" d="M693 1412l-305 0"/>
   <path class="fil2 str1" d="M390 1191l0 -63"/>
   <path class="fil2 str1" d="M627 1449l297 393m-297 -466l297 -394m-358 392l-106 -392m184 430c0,27 -22,48 -48,48 -27,0 -48,-21 -48,-48 0,-26 21,-48 48,-48 26,0 48,22 48,48zm-78 38l-106 392m464 -860l0 860 -464 0 0 -860 464 0zm-516 634c0,10 -8,17 -18,17 -10,0 -17,-7 -17,-17 0,-10 7,-18 17,-18 10,0 18,8 18,18zm23 0c0,22 -18,41 -41,41 -22,0 -41,-19 -41,-41 0,-23 19,-41 41,-41 23,0 41,18 41,41zm0 -204c0,23 -18,41 -41,41 -22,0 -41,-18 -41,-41 0,-22 19,-41 41,-41 23,0 41,19 41,41zm-82 -204c0,-22 19,-40 41,-40 23,0 41,18 41,40 0,23 -18,41 -41,41 -22,0 -41,-18 -41,-41zm24 0c0,-9 7,-17 17,-17 10,0 18,8 18,17 0,10 -8,18 -18,18 -10,0 -17,-8 -17,-18z"/>
  </g>
  <path class="fil2 str3" d="M1874 508c41,0 75,34 75,75 0,42 -34,75 -75,75 -42,0 -75,-33 -75,-75 0,-41 33,-75 75,-75zm0 20c30,0 55,25 55,55 0,31 -25,56 -55,56 -31,0 -56,-25 -56,-56 0,-30 25,-55 56,-55zm0 19c20,0 36,16 36,36 0,20 -16,36 -36,36 -20,0 -36,-16 -36,-36 0,-20 16,-36 36,-36zm0 -57l0 45m0 96l0 45m-93 -93l45 0m96 0l45 0m21 311c7,0 13,6 13,14 0,7 -6,13 -13,13 -8,0 -14,-6 -14,-13 0,-8 6,-14 14,-14zm0 0l0 9m41 -9c7,0 13,6 13,14 0,7 -6,13 -13,13 -8,0 -14,-6 -14,-13 0,-8 6,-14 14,-14zm0 0l0 9m43 -9c7,0 13,6 13,14 0,7 -6,13 -13,13 -8,0 -14,-6 -14,-13 0,-8 6,-14 14,-14zm0 0l0 9m41 -9c7,0 13,6 13,14 0,7 -6,13 -13,13 -7,0 -13,-6 -13,-13 0,-8 6,-14 13,-14zm0 0l0 9m43 -9c7,0 13,6 13,14 0,7 -6,13 -13,13 -8,0 -14,-6 -14,-13 0,-8 6,-14 14,-14zm0 0l0 9m125 -395c41,0 75,34 75,75 0,42 -34,75 -75,75 -41,0 -75,-33 -75,-75 0,-41 34,-75 75,-75zm0 20c31,0 55,25 55,55 0,31 -24,56 -55,56 -30,0 -55,-25 -55,-56 0,-30 25,-55 55,-55zm0 19c20,0 36,16 36,36 0,20 -16,36 -36,36 -20,0 -36,-16 -36,-36 0,-20 16,-36 36,-36zm0 -57l0 45m0 96l0 45m-93 -93l45 0m96 0l45 0m-93 -21c12,0 21,9 21,21 0,12 -9,22 -21,22 -12,0 -21,-10 -21,-22 0,-12 9,-21 21,-21zm-408 167c31,0 57,26 57,58 0,31 -26,57 -57,57 -32,0 -58,-26 -58,-57 0,-32 26,-58 58,-58zm0 15c23,0 42,19 42,43 0,23 -19,42 -42,42 -24,0 -43,-19 -43,-42 0,-24 19,-43 43,-43zm0 15c15,0 27,13 27,28 0,15 -12,27 -27,27 -15,0 -28,-12 -28,-27 0,-15 13,-28 28,-28zm0 -43l0 34m0 73l0 35m-71 -71l34 0m73 0l35 0m-71 -12c6,0 11,5 11,12 0,6 -5,11 -11,11 -7,0 -12,-5 -12,-11 0,-7 5,-12 12,-12zm409 -57c31,0 57,25 57,57 0,32 -26,58 -57,58 -32,0 -58,-26 -58,-58 0,-32 26,-57 58,-57zm0 15c23,0 42,19 42,42 0,24 -19,43 -42,43 -24,0 -43,-19 -43,-43 0,-23 19,-42 43,-42zm0 15c15,0 27,12 27,27 0,15 -12,28 -27,28 -16,0 -28,-13 -28,-28 0,-15 12,-27 28,-27zm0 -44l0 34m0 74l0 34m-72 -71l35 0m73 0l35 0m-71 -11c6,0 11,5 11,11 0,7 -5,12 -11,12 -7,0 -12,-5 -12,-12 0,-6 5,-11 12,-11zm-210 -162c46,0 83,38 83,84 0,46 -37,83 -83,83 -46,0 -84,-37 -84,-83 0,-46 38,-84 84,-84zm0 22c34,0 61,28 61,62 0,34 -27,61 -61,61 -34,0 -62,-27 -62,-61 0,-34 28,-62 62,-62zm0 22c22,0 39,18 39,40 0,22 -17,39 -39,39 -22,0 -40,-17 -40,-39 0,-22 18,-40 40,-40zm0 -63l0 50m0 106l0 50m-103 -103l49 0m107 0l50 0m-446 -224l680 0 0 475 -680 0 0 -475zm17 17l646 0 1 398 -646 0 -1 -398z"/>
  <g id="_2487908816176">
   <path class="fil1 str0" d="M4506 162l0 1524 0 1523 -118 0c-283,0 -418,-129 -422,-404l1 -1728 -392 -395 -2791 1 0 346 -500 0 0 -867 4222 0z"/>
   <path class="fil1 str0" d="M4506 162l0 1497 0 1487 -86 0c-237,0 -379,-94 -379,-333l0 -1772 -434 -435 -2875 1 1 369 -449 0 0 -814 4222 0z"/>
   <path class="fil3 str0" d="M284 162l4222 0 0 2948c-296,0 -425,-55 -425,-365l0 -1713 -459 -463 -2570 1 -360 0 0 372 -408 0 0 -780z"/>
   <path class="fil2 str0" d="M1088 570l0 -408"/>
   <path class="fil2 str0" d="M1651 570l0 -408"/>
   <path class="fil2 str0" d="M2483 570l0 -408"/>
   <path class="fil2 str0" d="M3046 570l0 -408"/>
   <path class="fil2 str0" d="M3608 570l0 -408"/>
  </g>
  <g id="_2488041368960">
   <path class="fil1 str0" d="M3406 2981c1,170 0,128 -195,202 -264,101 -320,95 -320,-202 0,-297 56,-302 320,-201 195,74 196,32 195,201zm29 0c-1,78 -18,152 -40,203l33 0c15,-31 38,-121 38,-203 0,-81 -23,-172 -38,-202l-33 0c22,50 39,124 40,202z"/>
   <path class="fil1 str0" d="M1389 2974c-1,169 0,128 195,202 264,101 320,95 320,-202 0,-297 -56,-302 -320,-201 -195,74 -196,32 -195,201zm-29 0c1,78 18,152 40,203l-33 0c-15,-31 -38,-121 -38,-203 0,-81 23,-172 38,-202l33 0c-22,50 -39,124 -40,202z"/>
   <path class="fil3 str0" d="M2158 1950l486 0c124,0 225,101 225,225l0 1034c0,124 -101,226 -225,226l-486 0c-124,0 -226,-102 -226,-226l0 -1034c0,-124 102,-225 226,-225z"/>
   <g>
    <path class="fil2 str0" d="M2100 2242c74,0 133,59 133,133 0,74 -59,134 -133,134 -74,0 -134,-60 -134,-134 0,-74 60,-133 134,-133z"/>
    <path class="fil2 str0" d="M1966 2182l246 0 0 37 -246 0 0 -37z"/>
    <path class="fil2 str0" d="M1966 2532l246 0 0 36 -246 0 0 -36z"/>
    <path class="fil2 str0" d="M2244 2286l31 0 0 188 -31 0 0 -188z"/>
    <path class="fil2 str0" d="M2335 2380c27,0 48,22 48,48 0,26 -21,47 -48,47 -27,0 -49,-21 -49,-47 0,-26 22,-48 49,-48z"/>
    <path class="fil2 str0" d="M2269 2487c20,0 36,16 36,36 0,19 -16,35 -36,35 -19,0 -36,-16 -36,-35 0,-20 17,-36 36,-36z"/>
    <path class="fil1 str0" d="M2012 2286l176 0 0 178 -176 0 0 -178z"/>
   </g>
   <g>
    <path class="fil2 str0" d="M2092 2837c74,0 133,60 133,134 0,74 -59,134 -133,134 -74,0 -134,-60 -134,-134 0,-74 60,-134 134,-134z"/>
    <path class="fil2 str0" d="M1958 2778l246 0 0 37 -246 0 0 -37z"/>
    <path class="fil2 str0" d="M1958 3127l246 0 0 37 -246 0 0 -37z"/>
    <path class="fil2 str0" d="M2236 2882l31 0 0 188 -31 0 0 -188z"/>
    <path class="fil2 str0" d="M2327 2976c26,0 48,22 48,48 0,26 -22,47 -48,47 -27,0 -49,-21 -49,-47 0,-26 22,-48 49,-48z"/>
    <path class="fil2 str0" d="M2261 3083c20,0 36,16 36,35 0,20 -16,36 -36,36 -20,0 -36,-16 -36,-36 0,-19 16,-35 36,-35z"/>
    <path class="fil1 str0" d="M2004 2882l176 0 0 178 -176 0 0 -178z"/>
   </g>
   <path class="fil2 str0" d="M2401 2570c67,0 122,55 122,122 0,68 -55,122 -122,122 -68,0 -122,-54 -122,-122 0,-67 54,-122 122,-122z"/>
  </g>
  <path class="fil1 str0" d="M3406 2375c1,169 0,128 -195,202 -264,101 -320,95 -320,-202 0,-297 56,-302 320,-202 195,75 196,33 195,202zm29 0c-1,78 -18,152 -40,202l33 0c15,-30 38,-120 38,-202 0,-81 -23,-172 -38,-202l-33 0c22,50 39,124 40,202z"/>
  <path class="fil1 str0" d="M1389 2368c-1,169 0,128 195,202 264,100 320,95 320,-202 0,-297 -56,-302 -320,-202 -195,75 -196,33 -195,202zm-29 0c1,78 18,152 40,202l-33 0c-15,-30 -38,-120 -38,-202 0,-81 23,-172 38,-202l33 0c-22,50 -39,124 -40,202z"/>
  <g id="_2488041364864">
   <path class="fil2 str0" d="M2704 3105c-74,0 -134,-60 -134,-134 0,-74 60,-134 134,-134 74,0 134,60 134,134 0,74 -60,134 -134,134z"/>
   <path class="fil2 str0" d="M2838 3164l-247 0 0 -37 247 0 0 37z"/>
   <path class="fil2 str0" d="M2838 2815l-247 0 0 -37 247 0 0 37z"/>
   <path class="fil2 str0" d="M2560 3060l-32 0 0 -188 32 0 0 188z"/>
   <path class="fil2 str0" d="M2469 2966c-27,0 -48,-21 -48,-48 0,-26 21,-47 48,-47 27,0 49,21 49,47 0,27 -22,48 -49,48z"/>
   <path class="fil2 str0" d="M2535 2859c-20,0 -36,-16 -36,-35 0,-20 16,-36 36,-36 19,0 35,16 35,36 0,19 -16,35 -35,35z"/>
   <path class="fil1 str0" d="M2792 3060l-176 0 0 -178 176 0 0 178z"/>
  </g>
  <g id="_2488041357856">
   <path class="fil2 str0" d="M2712 2509c-74,0 -134,-60 -134,-134 0,-74 60,-133 134,-133 74,0 134,59 134,133 0,74 -60,134 -134,134z"/>
   <path class="fil2 str0" d="M2846 2568l-247 0 0 -36 247 0 0 36z"/>
   <path class="fil2 str0" d="M2846 2219l-247 0 0 -37 247 0 0 37z"/>
   <path class="fil2 str0" d="M2568 2464l-32 0 0 -188 32 0 0 188z"/>
   <path class="fil2 str0" d="M2477 2370c-27,0 -48,-21 -48,-48 0,-26 21,-47 48,-47 27,0 49,21 49,47 0,27 -22,48 -49,48z"/>
   <path class="fil2 str0" d="M2543 2264c-20,0 -36,-16 -36,-36 0,-20 16,-36 36,-36 19,0 35,16 35,36 0,20 -16,36 -35,36z"/>
   <path class="fil1 str0" d="M2800 2464l-176 0 0 -178 176 0 0 178z"/>
  </g>
  <path class="fil2 str0" d="M4506 1046l-425 0"/>
  <path class="fil2 str0" d="M4506 1717l-425 0"/>
  <path class="fil2 str0" d="M4506 2692l-425 0"/>
 </g>
</svg>
