<?xml version="1.0" encoding="UTF-8"?>
<!DOCTYPE svg PUBLIC "-//W3C//DTD SVG 1.1//EN" "http://www.w3.org/Graphics/SVG/1.1/DTD/svg11.dtd">
<!-- Creator: CorelDRAW X8 -->
<svg xmlns="http://www.w3.org/2000/svg" xml:space="preserve" width="400px" height="300px" version="1.1" style="shape-rendering:geometricPrecision; text-rendering:geometricPrecision; image-rendering:optimizeQuality; fill-rule:evenodd; clip-rule:evenodd"
viewBox="0 0 4724 3543"
 xmlns:xlink="http://www.w3.org/1999/xlink">
 <defs>
  <style type="text/css">
   <![CDATA[
    .str0 {stroke:white;stroke-width:11.81}
    .str1 {stroke:white;stroke-width:5.905;stroke-linecap:round;stroke-linejoin:round}
    .fil2 {fill:none}
    .fil0 {fill:#193153}
    .fil1 {fill:#758396}
    .fil3 {fill:#BCC5D1}
   ]]>
  </style>
 </defs>
 <g id="Копия_x0020_Слой_x0020_1">
  <metadata id="CorelCorpID_0Corel-Layer"/>
  <rect class="fil0" width="4724" height="3543"/>
  <path class="fil1 str0" d="M1164 162l3342 0 0 820 -3342 0 0 -820z"/>
  <path class="fil2 str1" d="M2143 508c42,0 75,34 75,75 0,42 -33,75 -75,75 -41,0 -75,-33 -75,-75 0,-41 34,-75 75,-75zm0 20c31,0 56,25 56,55 0,31 -25,56 -56,56 -30,0 -55,-25 -55,-56 0,-30 25,-55 55,-55zm0 19c20,0 36,16 36,36 0,20 -16,36 -36,36 -20,0 -36,-16 -36,-36 0,-20 16,-36 36,-36zm0 -57l0 45m0 96l0 45m-93 -93l45 0m96 0l45 0m21 311c8,0 14,6 14,14 0,7 -6,13 -14,13 -7,0 -13,-6 -13,-13 0,-8 6,-14 13,-14zm0 0l0 9m41 -9c7,0 13,6 13,14 0,7 -6,13 -13,13 -7,0 -13,-6 -13,-13 0,-8 6,-14 13,-14zm0 0l0 9m43 -9c8,0 14,6 14,14 0,7 -6,13 -14,13 -7,0 -13,-6 -13,-13 0,-8 6,-14 13,-14zm0 0l0 9m41 -9c8,0 14,6 14,14 0,7 -6,13 -14,13 -7,0 -13,-6 -13,-13 0,-8 6,-14 13,-14zm0 0l0 9m43 -9c7,0 13,6 13,14 0,7 -6,13 -13,13 -7,0 -13,-6 -13,-13 0,-8 6,-14 13,-14zm0 0l0 9m126 -395c41,0 74,34 74,75 0,42 -33,75 -74,75 -42,0 -75,-33 -75,-75 0,-41 33,-75 75,-75zm0 20c30,0 55,25 55,55 0,31 -25,56 -55,56 -31,0 -56,-25 -56,-56 0,-30 25,-55 56,-55zm0 19c19,0 35,16 35,36 0,20 -16,36 -35,36 -20,0 -36,-16 -36,-36 0,-20 16,-36 36,-36zm0 -57l0 45m0 96l0 45m-93 -93l45 0m95 0l45 0m-92 -21c11,0 21,9 21,21 0,12 -10,22 -21,22 -12,0 -22,-10 -22,-22 0,-12 10,-21 22,-21zm-409 167c32,0 58,26 58,58 0,31 -26,57 -58,57 -32,0 -57,-26 -57,-57 0,-32 25,-58 57,-58zm0 15c24,0 43,19 43,43 0,23 -19,42 -43,42 -23,0 -42,-19 -42,-42 0,-24 19,-43 42,-43zm0 15c15,0 28,13 28,28 0,15 -13,27 -28,27 -15,0 -27,-12 -27,-27 0,-15 12,-28 27,-28zm0 -43l0 34m0 73l0 35m-71 -71l34 0m74 0l34 0m-71 -12c6,0 12,5 12,12 0,6 -6,11 -12,11 -6,0 -11,-5 -11,-11 0,-7 5,-12 11,-12zm409 -57c32,0 57,25 57,57 0,32 -25,58 -57,58 -32,0 -58,-26 -58,-58 0,-32 26,-57 58,-57zm0 15c23,0 42,19 42,42 0,24 -19,43 -42,43 -23,0 -42,-19 -42,-43 0,-23 19,-42 42,-42zm0 15c15,0 27,12 27,27 0,15 -12,28 -27,28 -15,0 -27,-13 -27,-28 0,-15 12,-27 27,-27zm0 -44l0 34m0 74l0 34m-71 -71l34 0m74 0l34 0m-71 -11c6,0 12,5 12,11 0,7 -6,12 -12,12 -6,0 -12,-5 -12,-12 0,-6 6,-11 12,-11zm-210 -162c46,0 83,38 83,84 0,46 -37,83 -83,83 -46,0 -83,-37 -83,-83 0,-46 37,-84 83,-84zm0 22c34,0 62,28 62,62 0,34 -28,61 -62,61 -34,0 -61,-27 -61,-61 0,-34 27,-62 61,-62zm0 22c22,0 40,18 40,40 0,22 -18,39 -40,39 -22,0 -40,-17 -40,-39 0,-22 18,-40 40,-40zm0 -63l0 50m0 106l0 50m-103 -103l50 0m106 0l50 0m-446 -224l681 0 0 475 -681 0 0 -475zm18 17l646 0 1 398 -646 0 -1 -398z"/>
  <path class="fil1 str0" d="M3513 683l0 335 993 0 0 -856 -4335 0 0 856 993 0 1 -335 2348 0z"/>
  <path class="fil1 str0" d="M3589 607l0 335 841 0 0 -780 -4183 0 0 780 841 0 1 -335 2500 0z"/>
  <path class="fil3 str0" d="M3626 570l0 334 767 0 0 -742 -4109 0 0 742 767 0 1 -334 2574 0z"/>
  <path class="fil2 str0" d="M1088 570l0 -408"/>
  <path class="fil2 str0" d="M1651 570l0 -408"/>
  <path class="fil2 str0" d="M3046 570l0 -408"/>
  <path class="fil2 str0" d="M3608 570l0 -408"/>
  <g id="_2487970169680">
   <g>
    <path class="fil1 str0" d="M2924 1372c169,0 127,0 201,195 101,264 96,320 -201,320 -298,0 -303,-56 -202,-320 74,-195 32,-195 202,-195zm0 -28c77,0 152,17 202,40l0 -34c-30,-14 -121,-38 -202,-38 -82,0 -173,24 -203,38l0 34c50,-23 125,-40 203,-40z"/>
    <path class="fil1 str0" d="M2916 3390c170,0 128,0 202,-196 101,-263 96,-320 -202,-320 -297,0 -302,57 -201,320 74,196 32,196 201,196zm0 28c78,0 153,-17 203,-40l0 34c-30,14 -121,38 -203,38 -81,0 -172,-24 -202,-38l0 -34c50,23 125,40 202,40z"/>
    <path class="fil3 str0" d="M1242 2621l0 -486c0,-124 112,-226 249,-226l1696 0c136,0 248,102 248,226l0 486c0,124 -112,225 -248,225l-1696 0c-137,0 -249,-101 -249,-225z"/>
    <g>
     <path class="fil2 str0" d="M2202 2696c0,-64 51,-115 115,-115 64,0 116,51 116,115 0,64 -52,116 -116,116 -64,0 -115,-52 -115,-116z"/>
     <path class="fil2 str0" d="M2150 2812l0 -213 32 0 0 213 -32 0z"/>
     <path class="fil2 str0" d="M2453 2812l0 -213 31 0 0 213 -31 0z"/>
     <path class="fil2 str0" d="M2240 2572l0 -28 163 0 0 28 -163 0z"/>
     <path class="fil2 str0" d="M2322 2493c0,-23 18,-42 41,-42 23,0 41,19 41,42 0,23 -18,42 -41,42 -23,0 -41,-19 -41,-42z"/>
     <path class="fil2 str0" d="M2414 2550c0,-17 14,-31 31,-31 17,0 31,14 31,31 0,17 -14,31 -31,31 -17,0 -31,-14 -31,-31z"/>
     <path class="fil1 str0" d="M2240 2772l0 -152 154 0 0 152 -154 0z"/>
    </g>
    <g>
     <path class="fil2 str0" d="M2809 2699c0,-64 52,-116 116,-116 64,0 116,52 116,116 0,64 -52,115 -116,115 -64,0 -116,-51 -116,-115z"/>
     <path class="fil2 str0" d="M2758 2814l0 -213 31 0 0 213 -31 0z"/>
     <path class="fil2 str0" d="M3060 2814l0 -213 32 0 0 213 -32 0z"/>
     <path class="fil2 str0" d="M2848 2574l0 -27 163 0 0 27 -163 0z"/>
     <path class="fil2 str0" d="M2929 2495c0,-23 19,-42 42,-42 22,0 41,19 41,42 0,24 -19,42 -41,42 -23,0 -42,-18 -42,-42z"/>
     <path class="fil2 str0" d="M3022 2552c0,-17 13,-31 31,-31 17,0 31,14 31,31 0,17 -14,31 -31,31 -18,0 -31,-14 -31,-31z"/>
     <path class="fil1 str0" d="M2848 2775l0 -152 154 0 0 152 -154 0z"/>
    </g>
    <path class="fil2 str0" d="M2512 2378c0,-68 55,-122 122,-122 68,0 123,54 123,122 0,67 -55,122 -123,122 -67,0 -122,-55 -122,-122z"/>
   </g>
   <path class="fil1 str0" d="M2317 1372c169,0 128,0 202,195 101,264 95,320 -202,320 -297,0 -302,-56 -201,-320 74,-195 32,-195 201,-195zm0 -28c78,0 152,17 203,40l0 -34c-31,-14 -121,-38 -203,-38 -81,0 -172,24 -202,38l0 34c50,-23 124,-40 202,-40z"/>
   <path class="fil1 str0" d="M2310 3390c169,0 128,0 202,-196 101,-263 95,-320 -202,-320 -297,0 -302,57 -202,320 75,196 33,196 202,196zm0 28c78,0 152,-17 203,-40l0 34c-31,14 -121,38 -203,38 -81,0 -172,-24 -202,-38l0 -34c50,23 124,40 202,40z"/>
   <g>
    <path class="fil2 str0" d="M3044 2043c0,64 -52,115 -116,115 -64,0 -115,-51 -115,-115 0,-64 51,-116 115,-116 64,0 116,52 116,116z"/>
    <path class="fil2 str0" d="M3096 1927l0 213 -32 0 0 -213 32 0z"/>
    <path class="fil2 str0" d="M2793 1927l0 213 -32 0 0 -213 32 0z"/>
    <path class="fil2 str0" d="M3005 2168l0 27 -163 0 0 -27 163 0z"/>
    <path class="fil2 str0" d="M2924 2246c0,24 -19,42 -41,42 -23,0 -41,-18 -41,-42 0,-23 18,-42 41,-42 22,0 41,19 41,42z"/>
    <path class="fil2 str0" d="M2832 2190c0,17 -14,31 -31,31 -18,0 -31,-14 -31,-31 0,-18 13,-32 31,-32 17,0 31,14 31,32z"/>
    <path class="fil1 str0" d="M3005 1966l0 153 -154 0 0 -153 154 0z"/>
   </g>
   <g>
    <path class="fil2 str0" d="M2433 2043c0,64 -52,115 -116,115 -64,0 -116,-51 -116,-115 0,-64 52,-116 116,-116 64,0 116,52 116,116z"/>
    <path class="fil2 str0" d="M2485 1927l0 213 -32 0 0 -213 32 0z"/>
    <path class="fil2 str0" d="M2182 1927l0 213 -32 0 0 -213 32 0z"/>
    <path class="fil2 str0" d="M2394 2168l0 27 -163 0 0 -27 163 0z"/>
    <path class="fil2 str0" d="M2313 2246c0,24 -19,42 -41,42 -23,0 -42,-18 -42,-42 0,-23 19,-42 42,-42 22,0 41,19 41,42z"/>
    <path class="fil2 str0" d="M2220 2190c0,17 -13,31 -31,31 -17,0 -31,-14 -31,-31 0,-18 14,-32 31,-32 18,0 31,14 31,32z"/>
    <path class="fil1 str0" d="M2394 1966l0 153 -154 0 0 -153 154 0z"/>
   </g>
   <path class="fil1 str0" d="M1706 3390c169,0 128,0 202,-196 101,-263 95,-320 -202,-320 -297,0 -302,57 -202,320 75,196 33,196 202,196zm0 28c78,0 152,-17 202,-40l0 34c-30,14 -120,38 -202,38 -81,0 -172,-24 -202,-38l0 -34c50,23 124,40 202,40z"/>
   <path class="fil1 str0" d="M1706 1372c169,0 128,0 202,195 101,264 95,320 -202,320 -297,0 -302,-56 -202,-320 75,-195 33,-195 202,-195zm0 -28c78,0 152,17 202,40l0 -34c-30,-14 -120,-38 -202,-38 -81,0 -172,24 -202,38l0 34c50,-23 124,-40 202,-40z"/>
   <path class="fil1 str0" d="M695 2350c-1,-169 0,-128 195,-202 264,-101 320,-95 320,202 0,297 -56,302 -320,202 -195,-75 -196,-33 -195,-202zm-29 0c1,-78 18,-152 41,-203l-34 0c-14,31 -38,121 -38,203 0,81 24,172 38,202l34 0c-23,-50 -40,-124 -41,-202z"/>
   <path class="fil1 str0" d="M3983 2350c0,169 0,127 -195,202 -264,100 -320,95 -320,-202 0,-297 56,-303 320,-202 195,74 195,33 195,202zm28 0c0,78 -17,152 -40,202l34 0c14,-30 38,-121 38,-202 0,-82 -24,-172 -38,-203l-34 0c23,51 40,125 40,203z"/>
   <g>
    <path class="fil2 str0" d="M1822 2043c0,64 -52,115 -116,115 -64,0 -116,-51 -116,-115 0,-64 52,-116 116,-116 64,0 116,52 116,116z"/>
    <path class="fil2 str0" d="M1873 1927l0 213 -31 0 0 -213 31 0z"/>
    <path class="fil2 str0" d="M1570 1927l0 213 -31 0 0 -213 31 0z"/>
    <path class="fil2 str0" d="M1783 2168l0 27 -163 0 0 -27 163 0z"/>
    <path class="fil2 str0" d="M1702 2246c0,24 -19,42 -42,42 -22,0 -41,-18 -41,-42 0,-23 19,-42 41,-42 23,0 42,19 42,42z"/>
    <path class="fil2 str0" d="M1609 2190c0,17 -14,31 -31,31 -17,0 -31,-14 -31,-31 0,-18 14,-32 31,-32 17,0 31,14 31,32z"/>
    <path class="fil1 str0" d="M1783 1966l0 153 -154 0 0 -153 154 0z"/>
   </g>
   <g>
    <path class="fil2 str0" d="M1590 2708c0,-64 52,-116 116,-116 64,0 116,52 116,116 0,64 -52,116 -116,116 -64,0 -116,-52 -116,-116z"/>
    <path class="fil2 str0" d="M1539 2824l0 -214 31 0 0 214 -31 0z"/>
    <path class="fil2 str0" d="M1842 2824l0 -214 31 0 0 214 -31 0z"/>
    <path class="fil2 str0" d="M1629 2583l0 -28 163 0 0 28 -163 0z"/>
    <path class="fil2 str0" d="M1711 2504c0,-23 18,-42 41,-42 23,0 41,19 41,42 0,23 -18,42 -41,42 -23,0 -41,-19 -41,-42z"/>
    <path class="fil2 str0" d="M1803 2561c0,-17 14,-31 31,-31 17,0 31,14 31,31 0,17 -14,31 -31,31 -17,0 -31,-14 -31,-31z"/>
    <path class="fil1 str0" d="M1629 2784l0 -152 154 0 0 152 -154 0z"/>
   </g>
   <g>
    <path class="fil2 str0" d="M1381 2234c64,0 116,52 116,116 0,64 -52,116 -116,116 -64,0 -116,-52 -116,-116 0,-64 52,-116 116,-116z"/>
    <path class="fil2 str0" d="M1265 2183l213 0 0 31 -213 0 0 -31z"/>
    <path class="fil2 str0" d="M1265 2486l213 0 0 31 -213 0 0 -31z"/>
    <path class="fil2 str0" d="M1506 2273l27 0 0 163 -27 0 0 -163z"/>
    <path class="fil2 str0" d="M1584 2354c24,0 42,19 42,42 0,22 -18,41 -42,41 -23,0 -42,-19 -42,-41 0,-23 19,-42 42,-42z"/>
    <path class="fil2 str0" d="M1528 2447c17,0 31,14 31,31 0,17 -14,31 -31,31 -18,0 -31,-14 -31,-31 0,-17 13,-31 31,-31z"/>
    <path class="fil1 str0" d="M1304 2273l153 0 0 154 -153 0 0 -154z"/>
   </g>
   <g>
    <path class="fil2 str0" d="M3295 2466c-64,0 -115,-52 -115,-116 0,-64 51,-116 115,-116 64,0 116,52 116,116 0,64 -52,116 -116,116z"/>
    <path class="fil2 str0" d="M3411 2517l-213 0 0 -31 213 0 0 31z"/>
    <path class="fil2 str0" d="M3411 2214l-213 0 0 -31 213 0 0 31z"/>
    <path class="fil2 str0" d="M3170 2427l-27 0 0 -163 27 0 0 163z"/>
    <path class="fil2 str0" d="M3092 2345c-23,0 -42,-18 -42,-41 0,-23 19,-41 42,-41 23,0 42,18 42,41 0,23 -19,41 -42,41z"/>
    <path class="fil2 str0" d="M3149 2253c-18,0 -31,-14 -31,-31 0,-17 13,-31 31,-31 17,0 31,14 31,31 0,17 -14,31 -31,31z"/>
    <path class="fil1 str0" d="M3372 2427l-153 0 0 -154 153 0 0 154z"/>
   </g>
  </g>
 </g>
</svg>
