<?xml version="1.0" encoding="UTF-8"?>
<!DOCTYPE svg PUBLIC "-//W3C//DTD SVG 1.1//EN" "http://www.w3.org/Graphics/SVG/1.1/DTD/svg11.dtd">
<!-- Creator: CorelDRAW X8 -->
<svg xmlns="http://www.w3.org/2000/svg" xml:space="preserve" width="400px" height="300px" version="1.1" style="shape-rendering:geometricPrecision; text-rendering:geometricPrecision; image-rendering:optimizeQuality; fill-rule:evenodd; clip-rule:evenodd"
viewBox="0 0 4724 3543"
 xmlns:xlink="http://www.w3.org/1999/xlink">
 <defs>
  <style type="text/css">
   <![CDATA[
    .str0 {stroke:white;stroke-width:11.81}
    .str2 {stroke:white;stroke-width:5.905;stroke-linecap:round}
    .str3 {stroke:white;stroke-width:17.715;stroke-linecap:round}
    .str1 {stroke:white;stroke-width:5.905;stroke-linecap:round;stroke-linejoin:round}
    .fil2 {fill:none}
    .fil0 {fill:#193153}
    .fil1 {fill:#758396}
    .fil3 {fill:#BCC5D1}
   ]]>
  </style>
 </defs>
 <g id="Копия_x0020_Слой_x0020_1">
  <metadata id="CorelCorpID_0Corel-Layer"/>
  <rect class="fil0" width="4724" height="3543"/>
  <path class="fil1 str0" d="M1164 162l3342 0 0 820 -3342 0 0 -820z"/>
  <path class="fil2 str1" d="M2143 508c42,0 75,34 75,75 0,42 -33,75 -75,75 -41,0 -75,-33 -75,-75 0,-41 34,-75 75,-75zm0 20c31,0 56,25 56,55 0,31 -25,56 -56,56 -30,0 -55,-25 -55,-56 0,-30 25,-55 55,-55zm0 19c20,0 36,16 36,36 0,20 -16,36 -36,36 -20,0 -36,-16 -36,-36 0,-20 16,-36 36,-36zm0 -57l0 45m0 96l0 45m-93 -93l45 0m96 0l45 0m21 311c8,0 14,6 14,14 0,7 -6,13 -14,13 -7,0 -13,-6 -13,-13 0,-8 6,-14 13,-14zm0 0l0 9m41 -9c7,0 13,6 13,14 0,7 -6,13 -13,13 -7,0 -13,-6 -13,-13 0,-8 6,-14 13,-14zm0 0l0 9m43 -9c8,0 14,6 14,14 0,7 -6,13 -14,13 -7,0 -13,-6 -13,-13 0,-8 6,-14 13,-14zm0 0l0 9m41 -9c8,0 14,6 14,14 0,7 -6,13 -14,13 -7,0 -13,-6 -13,-13 0,-8 6,-14 13,-14zm0 0l0 9m43 -9c7,0 13,6 13,14 0,7 -6,13 -13,13 -7,0 -13,-6 -13,-13 0,-8 6,-14 13,-14zm0 0l0 9m126 -395c41,0 74,34 74,75 0,42 -33,75 -74,75 -42,0 -75,-33 -75,-75 0,-41 33,-75 75,-75zm0 20c30,0 55,25 55,55 0,31 -25,56 -55,56 -31,0 -56,-25 -56,-56 0,-30 25,-55 56,-55zm0 19c19,0 35,16 35,36 0,20 -16,36 -35,36 -20,0 -36,-16 -36,-36 0,-20 16,-36 36,-36zm0 -57l0 45m0 96l0 45m-93 -93l45 0m95 0l45 0m-92 -21c11,0 21,9 21,21 0,12 -10,22 -21,22 -12,0 -22,-10 -22,-22 0,-12 10,-21 22,-21zm-409 167c32,0 58,26 58,58 0,31 -26,57 -58,57 -32,0 -57,-26 -57,-57 0,-32 25,-58 57,-58zm0 15c24,0 43,19 43,43 0,23 -19,42 -43,42 -23,0 -42,-19 -42,-42 0,-24 19,-43 42,-43zm0 15c15,0 28,13 28,28 0,15 -13,27 -28,27 -15,0 -27,-12 -27,-27 0,-15 12,-28 27,-28zm0 -43l0 34m0 73l0 35m-71 -71l34 0m74 0l34 0m-71 -12c6,0 12,5 12,12 0,6 -6,11 -12,11 -6,0 -11,-5 -11,-11 0,-7 5,-12 11,-12zm409 -57c32,0 57,25 57,57 0,32 -25,58 -57,58 -32,0 -58,-26 -58,-58 0,-32 26,-57 58,-57zm0 15c23,0 42,19 42,42 0,24 -19,43 -42,43 -23,0 -42,-19 -42,-43 0,-23 19,-42 42,-42zm0 15c15,0 27,12 27,27 0,15 -12,28 -27,28 -15,0 -27,-13 -27,-28 0,-15 12,-27 27,-27zm0 -44l0 34m0 74l0 34m-71 -71l34 0m74 0l34 0m-71 -11c6,0 12,5 12,11 0,7 -6,12 -12,12 -6,0 -12,-5 -12,-12 0,-6 6,-11 12,-11zm-210 -162c46,0 83,38 83,84 0,46 -37,83 -83,83 -46,0 -83,-37 -83,-83 0,-46 37,-84 83,-84zm0 22c34,0 62,28 62,62 0,34 -28,61 -62,61 -34,0 -61,-27 -61,-61 0,-34 27,-62 61,-62zm0 22c22,0 40,18 40,40 0,22 -18,39 -40,39 -22,0 -40,-17 -40,-39 0,-22 18,-40 40,-40zm0 -63l0 50m0 106l0 50m-103 -103l50 0m106 0l50 0m-446 -224l681 0 0 475 -681 0 0 -475zm18 17l646 0 1 398 -646 0 -1 -398z"/>
  <path class="fil1 str0" d="M3513 683l0 335 993 0 0 -856 -4335 0 0 856 993 0 1 -335 2348 0z"/>
  <path class="fil1 str0" d="M3589 607l0 335 841 0 0 -780 -4183 0 0 780 841 0 1 -335 2500 0z"/>
  <path class="fil3 str0" d="M3626 570l0 334 767 0 0 -742 -4109 0 0 742 767 0 1 -334 2574 0z"/>
  <path class="fil2 str0" d="M1088 570l0 -408"/>
  <path class="fil2 str0" d="M1651 570l0 -408"/>
  <path class="fil2 str0" d="M3046 570l0 -408"/>
  <path class="fil2 str0" d="M3608 570l0 -408"/>
  <rect class="fil1 str0" x="1255" y="1800" width="2168" height="1131"/>
  <rect class="fil3" x="1219" y="2370" width="20.3108" height="598.598"/>
  <rect class="fil3" transform="matrix(1.17779E-14 -1 0.456722 2.72001E-14 1248.94 2968.63)" width="20.3108" height="1131.44"/>
  <rect class="fil3" x="1219" y="1764" width="20.3108" height="596.966"/>
  <rect class="fil3" transform="matrix(1.26859E-14 -1 0.491934 2.72001E-14 1775.46 2968.63)" width="20.3108" height="1131.44"/>
  <rect class="fil3" transform="matrix(1.17779E-14 -1 0.456722 2.72001E-14 1248.94 1784.78)" width="20.3108" height="1131.44"/>
  <rect class="fil3" transform="matrix(1.26859E-14 -1 0.491934 2.72001E-14 1775.46 1784.78)" width="20.3108" height="1131.44"/>
  <rect class="fil3" x="3438" y="2370" width="20.3108" height="598.598"/>
  <rect class="fil3" transform="matrix(-1.17779E-14 -1 -0.456722 2.72001E-14 3428.64 2968.63)" width="20.3108" height="1131.44"/>
  <rect class="fil3" x="3438" y="1764" width="20.3108" height="596.966"/>
  <rect class="fil3" transform="matrix(-1.26859E-14 -1 -0.491934 2.72001E-14 2902.12 2968.63)" width="20.3108" height="1131.44"/>
  <rect class="fil3" transform="matrix(-1.17779E-14 -1 -0.456722 2.72001E-14 3428.64 1784.78)" width="20.3108" height="1131.44"/>
  <rect class="fil3" transform="matrix(-1.26859E-14 -1 -0.491934 2.72001E-14 2902.12 1784.78)" width="20.3108" height="1131.44"/>
  <g id="_2488041871456">
   <path class="fil2 str2" d="M2007 2331l54 0"/>
   <path class="fil2 str3" d="M1817 2070l0 262"/>
   <path class="fil2 str2" d="M1626 2331l-54 0"/>
   <path class="fil2 str2" d="M1848 2126l339 -255m-402 255l-339 -255m338 308l-338 91m371 -158c22,0 41,19 41,41 0,23 -19,42 -41,42 -23,0 -42,-19 -42,-42 0,-22 19,-41 42,-41zm32 67l338 91m-741 -399l741 0 0 399 -741 0 0 -399zm546 444c8,0 15,7 15,16 0,8 -7,15 -15,15 -8,0 -15,-7 -15,-15 0,-9 7,-16 15,-16zm0 -20c19,0 35,16 35,36 0,19 -16,35 -35,35 -19,0 -35,-16 -35,-35 0,-20 16,-36 35,-36zm-175 0c19,0 35,16 35,36 0,19 -16,35 -35,35 -20,0 -36,-16 -36,-35 0,-20 16,-36 36,-36zm-176 71c-19,0 -35,-16 -35,-35 0,-20 16,-36 35,-36 19,0 35,16 35,36 0,19 -16,35 -35,35zm0 -20c-8,0 -15,-7 -15,-15 0,-9 7,-16 15,-16 8,0 15,7 15,16 0,8 -7,15 -15,15z"/>
  </g>
 </g>
</svg>
