<?xml version="1.0" encoding="UTF-8"?>
<!DOCTYPE svg PUBLIC "-//W3C//DTD SVG 1.1//EN" "http://www.w3.org/Graphics/SVG/1.1/DTD/svg11.dtd">
<!-- Creator: CorelDRAW X8 -->
<svg xmlns="http://www.w3.org/2000/svg" xml:space="preserve" width="90px" height="70px" version="1.1" style="shape-rendering:geometricPrecision; text-rendering:geometricPrecision; image-rendering:optimizeQuality; fill-rule:evenodd; clip-rule:evenodd"
viewBox="0 0 900 700"
 xmlns:xlink="http://www.w3.org/1999/xlink">
 <defs>
  <style type="text/css">
   <![CDATA[
    .str0 {stroke:black;stroke-width:9.99924}
    .fil0 {fill:none}
   ]]>
  </style>
 </defs>
 <g id="Слой_x0020_1">
  <metadata id="CorelCorpID_0Corel-Layer"/>
  <path class="fil0 str0" d="M214 425c31,-8 74,-28 104,-32 62,-8 77,-86 122,-147 10,-14 17,-25 24,-44 6,-15 7,-49 13,-58 26,-11 42,31 37,59 -4,27 -28,61 -26,83 31,23 93,2 102,41 3,13 -2,18 2,33 3,13 8,12 5,28 -2,12 -6,13 -6,30 1,24 3,15 -8,31 -22,29 7,45 -95,49 -83,3 -60,10 -115,33l5 25 -33 17c33,30 130,30 179,15 157,-46 242,-248 112,-403 -103,-123 -330,-115 -412,61 -18,40 -37,140 -10,179z"/>
 </g>
</svg>
