<?xml version="1.0" encoding="UTF-8"?>
<!DOCTYPE svg PUBLIC "-//W3C//DTD SVG 1.1//EN" "http://www.w3.org/Graphics/SVG/1.1/DTD/svg11.dtd">
<!-- Creator: CorelDRAW X8 -->
<svg xmlns="http://www.w3.org/2000/svg" xml:space="preserve" width="90px" height="70px" version="1.1" style="shape-rendering:geometricPrecision; text-rendering:geometricPrecision; image-rendering:optimizeQuality; fill-rule:evenodd; clip-rule:evenodd"
viewBox="0 0 900 700"
 xmlns:xlink="http://www.w3.org/1999/xlink">
 <defs>
  <style type="text/css">
   <![CDATA[
    .str0 {stroke:black;stroke-width:4.99962;stroke-linejoin:round}
    .fil0 {fill:none}
   ]]>
  </style>
 </defs>
 <g id="Слой_x0020_1">
  <metadata id="CorelCorpID_0Corel-Layer"/>
  <path class="fil0 str0" d="M268 82l348 122 0 427 -348 -152 0 -397zm0 0l16 -13 348 122 0 427 -16 13m16 -440l-16 13m-348 -30l348 123m-348 -132l348 123m-294 -24l234 91c2,1 5,3 5,5l1 152c0,2 -3,5 -5,4l-235 -95c-2,-1 -5,-2 -5,-5l0 -147c0,-3 3,-6 5,-5zm-19 -50c86,45 180,77 281,101 5,3 4,11 0,11 -86,-14 -233,-62 -286,-104 -3,-4 1,-10 5,-8zm73 -71c12,0 22,9 22,21 0,11 -10,21 -22,21 -12,0 -22,-10 -22,-21 0,-12 10,-21 22,-21zm-9 2c15,10 22,20 18,38m-26 -32c12,13 15,17 17,34m60 -20c12,0 22,9 22,20 0,12 -10,21 -22,21 -12,0 -22,-9 -22,-21 0,-11 10,-20 22,-20zm-10 2c15,10 22,19 19,38m-27 -32c13,13 15,17 18,33m64 -23c12,0 22,9 22,21 0,11 -10,21 -22,21 -12,0 -22,-10 -22,-21 0,-12 10,-21 22,-21zm-10 2c15,10 22,20 19,38m-27 -32c13,13 15,17 18,34m-232 -43l348 124m-269 -71c10,-11 29,-8 15,7m150 54c10,-11 30,-10 16,5"/>
 </g>
</svg>
