<?xml version="1.0" encoding="UTF-8"?>
<!DOCTYPE svg PUBLIC "-//W3C//DTD SVG 1.1//EN" "http://www.w3.org/Graphics/SVG/1.1/DTD/svg11.dtd">
<!-- Creator: CorelDRAW X8 -->
<svg xmlns="http://www.w3.org/2000/svg" xml:space="preserve" width="90px" height="70px" version="1.1" style="shape-rendering:geometricPrecision; text-rendering:geometricPrecision; image-rendering:optimizeQuality; fill-rule:evenodd; clip-rule:evenodd"
viewBox="0 0 900 700"
 xmlns:xlink="http://www.w3.org/1999/xlink">
 <defs>
  <style type="text/css">
   <![CDATA[
    .str0 {stroke:black;stroke-width:9.99924}
    .fil0 {fill:none;fill-rule:nonzero}
   ]]>
  </style>
 </defs>
 <g id="Слой_x0020_1">
  <metadata id="CorelCorpID_0Corel-Layer"/>
  <path class="fil0 str0" d="M283 236c1,-32 9,-57 23,-74 14,-16 30,-24 49,-23 19,1 36,10 48,28 13,18 18,44 17,78 -2,34 -10,59 -24,76 -15,17 -31,25 -51,24 -19,0 -34,-10 -46,-28 -13,-18 -18,-45 -16,-81zm72 -64c-10,0 -19,5 -26,15 -6,10 -11,28 -12,54 -1,26 1,44 7,55 6,10 14,16 24,16 10,1 18,-4 25,-14 7,-10 11,-28 12,-54 2,-26 -1,-44 -7,-55 -6,-11 -14,-16 -23,-17zm-19 379l196 -403 33 1 -196 404 -33 -2zm144 -99c2,-33 10,-57 23,-74 14,-17 30,-24 49,-23 20,1 36,10 49,28 12,18 18,44 16,78 -1,34 -10,59 -24,76 -14,17 -31,25 -50,24 -19,-1 -35,-10 -47,-29 -12,-18 -17,-45 -16,-80zm72 -64c-10,-1 -18,4 -25,14 -7,10 -11,28 -12,54 -2,26 1,45 7,55 6,11 14,16 24,17 9,0 18,-5 24,-15 7,-10 12,-28 13,-54 1,-25 -1,-44 -7,-54 -6,-11 -14,-17 -24,-17z"/>
 </g>
</svg>
