<?xml version="1.0" encoding="UTF-8"?>
<!DOCTYPE svg PUBLIC "-//W3C//DTD SVG 1.1//EN" "http://www.w3.org/Graphics/SVG/1.1/DTD/svg11.dtd">
<!-- Creator: CorelDRAW X8 -->
<svg xmlns="http://www.w3.org/2000/svg" xml:space="preserve" width="90px" height="70px" version="1.1" style="shape-rendering:geometricPrecision; text-rendering:geometricPrecision; image-rendering:optimizeQuality; fill-rule:evenodd; clip-rule:evenodd"
viewBox="0 0 900 700"
 xmlns:xlink="http://www.w3.org/1999/xlink">
 <defs>
  <style type="text/css">
   <![CDATA[
    .str0 {stroke:white;stroke-width:9.99924;stroke-linecap:round;stroke-linejoin:round}
    .fil0 {fill:none}
   ]]>
  </style>
 </defs>
 <g id="Слой_x0020_1">
  <metadata id="CorelCorpID_0Corel-Layer"/>
  <path class="fil0 str0" d="M196 377c9,-2 18,13 22,34 3,20 -1,38 -10,40 -8,2 -18,-13 -21,-34 -4,-20 1,-38 9,-40zm102 -50c8,0 14,6 14,14 0,8 -6,15 -14,15 -8,0 -15,-7 -15,-15 0,-8 7,-14 15,-14zm121 -200c23,0 42,19 42,42 0,24 -19,42 -42,42 -23,0 -42,-18 -42,-42 0,-23 19,-42 42,-42zm8 1c4,-10 14,-18 26,-18 16,0 28,12 28,28 0,13 -8,23 -20,27m-84 127c34,-11 65,-11 97,-2m-170 2c-11,-24 -10,-46 1,-75 25,7 46,25 56,54m-165 106l38 -12c13,-42 34,-65 65,-89m-91 175l33 0c11,17 27,44 50,55m62 -252c200,-68 372,145 202,256m-212 22c53,21 117,18 161,2m-156 -22l-22 78 -37 -5 2 -101m206 29l23 77 37 -4 -2 -101m69 -94c50,4 51,-35 48,-46 -7,-24 -40,-5 -29,11 13,18 26,16 43,12 31,-8 41,-51 8,-76"/>
 </g>
</svg>
