<?xml version="1.0" encoding="UTF-8"?>
<!DOCTYPE svg PUBLIC "-//W3C//DTD SVG 1.1//EN" "http://www.w3.org/Graphics/SVG/1.1/DTD/svg11.dtd">
<!-- Creator: CorelDRAW X8 -->
<svg xmlns="http://www.w3.org/2000/svg" xml:space="preserve" width="90px" height="70px" version="1.1" style="shape-rendering:geometricPrecision; text-rendering:geometricPrecision; image-rendering:optimizeQuality; fill-rule:evenodd; clip-rule:evenodd"
viewBox="0 0 900 700"
 xmlns:xlink="http://www.w3.org/1999/xlink">
 <defs>
  <style type="text/css">
   <![CDATA[
    .str0 {stroke:black;stroke-width:7.99963;stroke-linecap:round}
    .fil1 {fill:none}
    .fil0 {fill:#010101}
   ]]>
  </style>
 </defs>
 <g id="Слой_x0020_1">
  <metadata id="CorelCorpID_0Corel-Layer"/>
  <path class="fil0" d="M288 195c11,-3 22,-3 33,-5 -12,-2 -11,-5 -17,-2 -5,2 -13,5 -16,7z"/>
  <path class="fil0" d="M421 175c2,-1 4,-3 5,-4 -3,-10 -24,-33 -33,-35 3,2 14,14 16,17 4,6 9,14 12,22z"/>
  <path class="fil0" d="M490 149l-58 -15c20,9 52,26 58,15z"/>
  <path class="fil0" d="M465 207c3,-2 16,-26 47,-41 7,-4 13,-6 20,-9 -17,1 -46,18 -60,30 -2,2 -5,5 -7,8 -3,4 -2,8 0,12z"/>
  <path class="fil0" d="M428 223l-5 -6c-18,-26 10,-46 32,-42 -2,4 -5,4 -9,13 -7,17 2,35 21,31l5 -1c-10,-2 -14,-8 -13,-19 1,-4 2,-9 4,-12 3,-6 5,-8 7,-10 -16,-22 -64,-2 -58,27 2,8 10,17 16,19z"/>
  <path class="fil0" d="M271 520c12,-55 -3,-151 -37,-195 3,9 11,28 15,43 18,61 16,90 22,152z"/>
  <path class="fil0" d="M299 164c8,-8 12,-13 28,-12 26,1 58,25 80,40 -7,-12 -41,-32 -56,-39 -9,-3 -31,-7 -24,-19 10,-18 51,-33 73,-16 12,10 24,26 31,40l3 3c-3,-14 -15,-36 -22,-43 -6,-5 -9,-9 -18,-14 -40,-19 -90,34 -95,60z"/>
  <path class="fil0" d="M409 199c-131,-56 -141,-19 -34,-3 3,1 31,5 34,3z"/>
  <path class="fil0" d="M472 212c15,1 61,1 77,-1 128,-12 9,-25 -77,1z"/>
  <path class="fil0" d="M468 186c4,-5 9,-13 17,-21 5,-6 13,-12 20,-17 21,-16 75,-39 90,-11 31,60 -35,6 -123,71 42,-23 98,-54 138,-13 1,-20 3,-49 -6,-66 -4,-9 -10,-13 -22,-15 -38,-3 -78,20 -100,49 -3,4 -12,17 -14,23z"/>
  <path class="fil1 str0" d="M449 243c-15,28 -35,45 -17,83 3,7 15,24 20,25 1,-15 0,-18 5,-33 4,1 31,15 40,15 -3,-2 -13,-15 -16,-19 -5,-7 -9,-14 -12,-23 -6,-19 0,-46 -2,-66"/>
  <path class="fil1 str0" d="M397 213c-49,-19 -105,-4 -157,-24 -4,-2 -7,-4 -10,-5 1,2 7,8 10,11l16 19c-8,2 -15,4 -24,5 -4,0 -24,1 -26,2 5,3 23,9 30,10 57,13 124,-8 178,-10"/>
  <path class="fil0" d="M614 180l52 3 -69 53 -126 -15c10,4 107,22 113,25l-17 13c-8,6 -39,29 -48,35l-4 3c17,-4 73,-41 76,-42l-5 74c-1,3 -61,44 -67,49 11,-3 64,-37 66,-37 -18,69 -7,125 -19,180 -1,3 -32,31 -37,36 -5,6 -22,25 -25,31l135 -106c1,-18 1,-36 2,-53 5,-48 10,-72 21,-119 1,-7 4,-17 5,-24 -5,7 -19,44 -22,54 -14,39 -17,92 -19,133 -1,10 -32,28 -40,37 1,-52 -2,-105 10,-155 0,-4 4,-21 5,-22 1,-1 14,-10 16,-12 14,-11 33,-25 46,-37l25 -22c2,-2 1,-3 2,-6 0,-23 4,-61 3,-79l-13 63c-3,16 -4,13 -18,26 -2,2 -2,3 -4,4 -2,2 -3,3 -6,6l-52 41 4 -72c7,-4 84,-65 89,-74 -29,-1 -51,-3 -78,-5l-1 14z"/>
  <path class="fil0" d="M200 233c3,23 11,50 15,73 4,-17 -1,-40 -2,-57 37,9 86,30 128,42l-1 57 -119 -36 119 48c1,0 14,156 13,183 -19,-2 -65,-10 -82,-9 3,0 11,2 14,3 55,12 103,27 157,43 12,4 47,14 57,16 0,-7 -2,-17 -2,-25 -2,-26 -3,-52 -3,-79 1,-35 4,-68 6,-103l-12 0 -6 96c-2,32 -2,61 -1,93l-48 -17c-15,-4 -55,-14 -70,-17 -6,-50 -8,-159 -8,-182 35,7 80,18 116,21 10,1 26,3 35,3 2,-15 1,-64 0,-80 -4,9 -10,62 -15,65 -24,0 -122,-10 -139,-19l0 -58c23,3 47,7 70,9l-1 -9c-8,-1 -57,-9 -60,-11l27 -13c19,-14 44,-29 64,-43 -52,9 -58,33 -103,52 -10,4 -121,-37 -149,-46z"/>
 </g>
</svg>
