<?xml version="1.0" encoding="UTF-8"?>
<!DOCTYPE svg PUBLIC "-//W3C//DTD SVG 1.1//EN" "http://www.w3.org/Graphics/SVG/1.1/DTD/svg11.dtd">
<!-- Creator: CorelDRAW X8 -->
<svg xmlns="http://www.w3.org/2000/svg" xml:space="preserve" width="90px" height="70px" version="1.1" style="shape-rendering:geometricPrecision; text-rendering:geometricPrecision; image-rendering:optimizeQuality; fill-rule:evenodd; clip-rule:evenodd"
viewBox="0 0 900 700"
 xmlns:xlink="http://www.w3.org/1999/xlink">
 <defs>
  <style type="text/css">
   <![CDATA[
    .str0 {stroke:white;stroke-width:9.99924;stroke-linejoin:round}
    .fil0 {fill:none}
   ]]>
  </style>
 </defs>
 <g id="Слой_x0020_1">
  <metadata id="CorelCorpID_0Corel-Layer"/>
  <path class="fil0 str0" d="M266 434l294 -324c50,6 106,36 113,117l-297 313m-73 -93l230 -254m-175 311l230 -253m-61 -105c48,14 87,55 112,117m-126 -101c47,14 87,53 112,116m-126 -101c47,14 86,54 111,117m-344 140l-39 141c0,4 -2,19 15,14l134 -49c-26,2 -24,-19 -18,-36 -52,13 -62,-23 -55,-57 -41,13 -40,5 -37,-13zm-28 101c25,5 37,20 42,40"/>
 </g>
</svg>
