<?xml version="1.0" encoding="UTF-8"?>
<!DOCTYPE svg PUBLIC "-//W3C//DTD SVG 1.1//EN" "http://www.w3.org/Graphics/SVG/1.1/DTD/svg11.dtd">
<!-- Creator: CorelDRAW X8 -->
<svg xmlns="http://www.w3.org/2000/svg" xml:space="preserve" width="3780px" height="6709px" version="1.1" style="shape-rendering:geometricPrecision; text-rendering:geometricPrecision; image-rendering:optimizeQuality; fill-rule:evenodd; clip-rule:evenodd"
viewBox="0 0 3780 6710"
 xmlns:xlink="http://www.w3.org/1999/xlink">
 <defs>
  <style type="text/css">
   <![CDATA[
    .str0 {stroke:white;stroke-width:1.18125}
    .str1 {stroke:#193153;stroke-width:11.8125;stroke-dasharray:59.062500 35.437500}
    .fil3 {fill:none}
    .fil5 {fill:#01B355}
    .fil6 {fill:#193153}
    .fil0 {fill:#EA5471}
    .fil2 {fill:#F7F7F7}
    .fil7 {fill:#F9EF1B}
    .fil4 {fill:#FA423A}
    .fil10 {fill:white}
    .fil1 {fill:white}
    .fil8 {fill:#193153;fill-rule:nonzero}
    .fil9 {fill:#EA5471;fill-rule:nonzero}
    .fil11 {fill:white;fill-rule:nonzero}
   ]]>
  </style>
 </defs>
 <g id="Слой_x0020_1">
  <metadata id="CorelCorpID_0Corel-Layer"/>
  <g id="_2885024914992">
   <rect class="fil0" y="-46" width="3780" height="6802"/>
   <path class="fil1" d="M0 -46l3780 0 0 751 -3779 508 -1 -1259z"/>
   <path class="fil1 str0" d="M191 -46l8 0 -198 179 0 -6 190 -173zm97 0l7 0 832 755 0 7 -839 -762zm238 0l7 0 594 539 0 7 -601 -546zm238 0l7 0 356 323 0 7 -363 -330zm237 0l8 0 118 108 0 6 -126 -114zm245 0l8 0 -127 114 0 -6 119 -108zm238 0l7 0 -364 330 0 -7 357 -323zm238 0l7 0 -602 546 0 -7 595 -539zm238 0l7 0 -840 762 0 -7 833 -755zm96 0l8 0 832 755 0 7 -840 -762zm238 0l7 0 595 539 0 7 -602 -546zm238 0l7 0 357 323 0 7 -364 -330zm238 0l7 0 119 108 0 6 -126 -114zm245 0l7 0 -126 114 0 -6 119 -108zm237 0l8 0 -364 330 0 -7 356 -323zm238 0l8 0 -602 546 0 -7 594 -539zm238 0l7 0 -839 762 0 -7 832 -755zm-113 6802l-8 0 173 -157 0 7 -165 150zm-238 0l-8 0 411 -373 0 7 -403 366zm-238 0l-7 0 648 -589 0 7 -641 582zm-238 0l-5 0 0 -2 884 -803 0 7 -879 798zm-5 0l-5 0 -879 -798 -879 798 -6 0 0 -2 885 -803 884 803 0 2zm-236 0l-7 0 -641 -582 -641 582 -8 0 649 -589 648 589zm-238 0l-7 0 -403 -366 -404 366 -7 0 411 -373 410 373zm-238 0l-7 0 -165 -150 -166 150 -7 0 173 -157 172 157zm-1057 0l-5 0 -879 -798 -242 220 0 -6 242 -221 884 803 0 2zm-235 0l-8 0 -641 -582 -242 220 0 -7 242 -220 649 589zm-238 0l-7 0 -404 -366 -242 220 0 -7 242 -220 411 373zm-238 0l-7 0 -166 -150 -165 150 -7 0 172 -157 173 157zm-415 -794l0 -6 242 -221 884 803 0 7 -884 -803 -242 220zm0 -216l0 -6 242 -220 884 802 0 7 -884 -803 -242 220zm0 -215l0 -7 242 -220 884 802 0 7 -884 -803 -242 221zm0 -216l0 -7 242 -220 884 802 0 7 -884 -803 -242 221zm0 -216l0 -7 242 -220 884 803 0 6 -884 -802 -242 220zm0 -216l0 -7 242 -220 884 803 0 6 -884 -802 -242 220zm0 -216l0 -7 242 -220 884 803 0 6 -884 -802 -242 220zm0 -216l0 -7 242 -220 884 803 0 7 -884 -803 -242 220zm0 -216l0 -6 242 -221 884 803 0 7 -884 -803 -242 220zm0 -216l0 -6 242 -221 884 803 0 7 -884 -803 -242 220zm0 -216l0 -6 242 -220 884 802 0 7 -884 -803 -242 220zm0 -215l0 -7 242 -220 884 802 0 7 -884 -803 -242 221zm0 -216l0 -7 242 -220 884 803 0 6 -884 -803 -242 221zm0 -216l0 -7 242 -220 884 803 0 6 -884 -802 -242 220zm0 -216l0 -7 242 -220 884 803 0 6 -884 -802 -242 220zm0 -216l0 -7 242 -220 884 803 0 6 -884 -802 -242 220zm0 -216l0 -6 242 -221 884 803 0 7 -884 -803 -242 220zm0 -216l0 -6 242 -221 884 803 0 7 -884 -803 -242 220zm0 -216l0 -6 242 -220 884 802 0 7 -884 -803 -242 220zm0 -216l0 -6 242 -220 884 802 0 7 -884 -803 -242 220zm0 -215l0 -7 242 -220 884 802 0 7 -884 -803 -242 221zm0 -216l0 -7 242 -220 884 803 0 6 -884 -803 -242 221zm0 -216l0 -7 242 -220 884 803 0 6 -884 -802 -242 220zm0 -216l0 -7 242 -220 884 803 0 6 -884 -802 -242 220zm0 -216l0 -7 242 -220 884 803 0 7 -884 -803 -242 220zm0 -216l0 -6 242 -221 884 803 0 7 -884 -803 -242 220zm0 -216l0 -6 242 -221 884 803 0 7 -884 -803 -242 220zm3779 -227l0 7 -884 803 0 -7 884 -803zm0 216l0 7 -884 803 0 -7 884 -803zm0 216l0 7 -884 803 0 -7 884 -803zm0 216l0 7 -884 802 0 -6 884 -803zm0 216l0 7 -884 802 0 -6 884 -803zm0 216l0 6 -884 803 0 -6 884 -803zm0 216l0 6 -884 803 0 -7 884 -802zm0 216l0 6 -884 803 0 -7 884 -802zm0 216l0 6 -884 803 0 -7 884 -802zm0 215l0 7 -884 803 0 -7 884 -803zm0 216l0 7 -884 803 0 -7 884 -803zm0 216l0 7 -884 802 0 -6 884 -803zm0 216l0 7 -884 802 0 -6 884 -803zm0 216l0 7 -884 802 0 -6 884 -803zm0 216l0 6 -884 803 0 -6 884 -803zm0 216l0 6 -884 803 0 -7 884 -802zm0 216l0 6 -884 803 0 -7 884 -802zm0 215l0 7 -884 803 0 -7 884 -803zm0 216l0 7 -884 803 0 -7 884 -803zm0 216l0 7 -884 803 0 -7 884 -803zm0 216l0 7 -884 802 0 -6 884 -803zm0 216l0 7 -884 802 0 -6 884 -803zm0 216l0 7 -884 802 0 -6 884 -803zm0 216l0 6 -884 803 0 -7 884 -802zm0 216l0 6 -884 803 0 -7 884 -802zm0 216l0 6 -884 803 0 -7 884 -802zm0 215l0 7 -884 803 0 -7 884 -803zm-1768 -5606l-885 803 0 -7 885 -803 884 803 0 7 -884 -803zm0 216l-885 803 0 -7 885 -803 884 803 0 7 -884 -803zm0 216l-885 803 0 -7 885 -803 884 803 0 7 -884 -803zm0 216l-885 802 0 -6 885 -803 884 803 0 6 -884 -802zm0 216l-885 802 0 -6 885 -803 884 803 0 6 -884 -802zm0 215l-885 803 0 -6 885 -803 884 803 0 6 -884 -803zm0 216l-885 803 0 -7 885 -802 884 802 0 7 -884 -803zm0 216l-885 803 0 -7 885 -802 884 802 0 7 -884 -803zm0 216l-885 803 0 -7 885 -802 884 802 0 7 -884 -803zm0 216l-885 803 0 -7 885 -803 884 803 0 7 -884 -803zm0 216l-885 803 0 -7 885 -803 884 803 0 7 -884 -803zm0 216l-885 802 0 -6 885 -803 884 803 0 6 -884 -802zm0 216l-885 802 0 -6 885 -803 884 803 0 6 -884 -802zm0 216l-885 802 0 -6 885 -803 884 803 0 6 -884 -802zm0 215l-885 803 0 -6 885 -803 884 803 0 6 -884 -803zm0 216l-885 803 0 -7 885 -802 884 802 0 7 -884 -803zm0 216l-885 803 0 -7 885 -802 884 802 0 7 -884 -803zm0 216l-885 803 0 -7 885 -803 884 803 0 7 -884 -803zm0 216l-885 803 0 -7 885 -803 884 803 0 7 -884 -803zm0 216l-885 803 0 -7 885 -803 884 803 0 7 -884 -803zm0 216l-885 802 0 -6 885 -803 884 803 0 6 -884 -802zm0 216l-885 802 0 -6 885 -803 884 803 0 6 -884 -802zm0 216l-885 802 0 -6 885 -803 884 803 0 6 -884 -802zm0 215l-885 803 0 -7 885 -802 884 802 0 7 -884 -803zm0 216l-885 803 0 -7 885 -802 884 802 0 7 -884 -803zm0 216l-885 803 0 -7 885 -802 884 802 0 7 -884 -803zm0 216l-885 803 0 -7 885 -803 884 803 0 7 -884 -803z"/>
   <path class="fil2" d="M3780 -46l0 41 -480 775 -84 11 512 -827 52 0zm0 435l0 124 -130 210 -84 11 214 -345zm-830 428l-84 11 541 -874 77 0 -534 863zm-351 47l-83 11 570 -921 77 0 -564 910zm-350 47l-84 11 600 -968 77 0 -593 957zm-350 47l-84 11 629 -1015 77 0 -622 1004zm-351 47l-83 11 658 -1062 76 0 -651 1051zm-350 47l-84 11 687 -1109 77 0 -680 1098zm-350 47l-84 11 716 -1156 77 0 -709 1145zm-351 47l-83 11 745 -1203 77 0 -739 1192zm-350 47l-84 11 775 -1250 77 0 -768 1239zm447 -1239l-77 0 -516 833 0 124 593 -957zm-322 0l-77 0 -194 314 0 124 271 -438z"/>
   <path class="fil3 str1" d="M3780 705l-3762 503"/>
   <g>
    <path class="fil4" d="M746 299l-14 -21 -19 27c11,-3 21,-8 33,-6zm10 13l-7 -8c-6,4 -12,6 -20,10 14,-2 21,-3 27,-2zm5 8l13 18 -51 0c33,-10 37,-14 38,-18zm-20 -16c-2,1 -20,10 -18,11 5,3 31,-3 29,4 -2,5 -22,12 -39,19l-22 0c18,-24 51,-36 50,-34z"/>
    <path class="fil4" d="M320 855l-14 -20 -19 27c11,-4 21,-8 33,-7zm9 14l-6 -9c-6,4 -12,6 -20,10 14,-1 21,-3 26,-1zm6 8l12 17 -50 0c33,-9 36,-14 38,-17zm-21 -17c-1,2 -19,11 -17,12 4,2 31,-3 29,3 -2,5 -22,13 -39,19l-23 0c19,-24 52,-35 50,-34z"/>
    <path class="fil4" d="M3199 166l-14 -21 -19 27c11,-4 21,-8 33,-6zm9 13l-6 -9c-7,5 -12,7 -20,11 14,-2 21,-3 26,-2zm6 8l12 18 -50 0c33,-10 36,-15 38,-18zm-21 -16c-1,1 -19,10 -17,11 4,3 31,-3 28,4 -1,5 -21,12 -38,19l-23 0c19,-24 52,-36 50,-34z"/>
    <path class="fil4" d="M1822 109l-15 -20 -18 27c10,-4 21,-8 33,-7zm9 14l-6 -9c-7,4 -12,6 -21,10 14,-1 22,-3 27,-1zm5 8l13 17 -50 0c32,-9 36,-14 37,-17zm-20 -17c-1,2 -20,11 -18,12 5,2 32,-4 29,3 -2,5 -21,13 -39,19l-22 0c18,-24 51,-35 50,-34z"/>
    <path class="fil4" d="M3653 512l-14 -21 -19 27c11,-4 21,-8 33,-6zm9 13l-6 -9c-7,5 -12,7 -20,11 13,-2 21,-3 26,-2zm6 8l12 18 -50 0c32,-10 36,-15 38,-18zm-21 -16c-1,1 -20,10 -18,11 5,3 32,-3 29,4 -1,5 -21,12 -39,19l-22 0c19,-24 51,-36 50,-34z"/>
    <path class="fil4" d="M1609 590l14 -20 18 27c-10,-4 -21,-8 -32,-7zm-10 14l6 -9c7,4 13,6 21,10 -14,-1 -21,-3 -27,-1zm-5 8l-13 18 51 0c-33,-10 -37,-15 -38,-18zm20 -16c2,1 20,10 18,11 -5,2 -31,-3 -29,4 2,4 21,12 39,19l22 0c-18,-25 -51,-36 -50,-34z"/>
    <path class="fil5" d="M2481 665l-14 -20 32 -7c-7,8 -15,16 -18,27zm9 14l-6 -9c6,-4 10,-8 17,-15 -7,12 -11,19 -11,24zm5 8l12 18 19 -45c-21,25 -27,27 -31,27zm-7 -25c2,0 17,-14 17,-12 0,6 -15,28 -7,28 5,0 19,-15 32,-28l9 -20c-30,7 -53,33 -51,32z"/>
    <path class="fil5" d="M1495 414l13 -21 -32 -7c8,8 15,16 19,28zm-9 13l5 -9c-6,-4 -10,-8 -17,-14 7,12 11,18 12,23zm-6 8l-12 18 -19 -45c22,25 27,27 31,27zm8 -25c-2,0 -18,-14 -18,-11 0,5 15,27 8,27 -5,1 -20,-14 -33,-28l-8 -20c29,7 53,33 51,32z"/>
    <path class="fil5" d="M796 741l13 -20 -32 -7c8,8 15,16 19,27zm-9 14l5 -9c-6,-5 -10,-9 -17,-15 7,12 11,18 12,24zm-6 8l-12 18 -19 -46c22,26 28,28 31,28zm8 -25c-2,0 -18,-14 -18,-12 0,5 15,28 8,28 -5,0 -20,-15 -33,-28l-8 -21c29,8 53,34 51,33z"/>
    <path class="fil6" d="M211 295l-24 7 19 26c0,-11 -1,-22 5,-33zm16 -4l-11 3c2,7 2,13 3,22 3,-13 4,-20 8,-25zm9 -3l21 -6 -16 47c1,-33 -2,-38 -5,-41zm-22 14c1,2 3,22 5,21 4,-4 7,-31 13,-26 4,3 5,24 6,42l-8 21c-17,-25 -18,-59 -16,-58z"/>
    <path class="fil6" d="M2071 427l24 7 -20 26c0,-12 1,-23 -4,-33zm-16 -5l10 3c-2,8 -2,14 -3,23 -3,-14 -4,-21 -7,-26zm-10 -2l-21 -6 16 47c-1,-34 3,-39 5,-41zm23 14c-2,1 -4,22 -6,20 -3,-4 -7,-30 -13,-26 -4,3 -5,24 -5,43l7 20c17,-25 18,-59 17,-57z"/>
    <path class="fil6" d="M1047 830l-24 7 20 25c0,-11 -1,-22 4,-32zm16 -5l-10 3c2,8 2,14 3,23 3,-14 4,-21 7,-26zm10 -2l21 -6 -16 47c1,-34 -3,-39 -5,-41zm-23 14c2,1 4,21 6,20 3,-4 7,-30 12,-26 5,3 6,24 6,43l-7 20c-17,-25 -18,-59 -17,-57z"/>
    <path class="fil6" d="M3045 486l-24 7 20 26c0,-11 -1,-22 4,-33zm16 -4l-10 3c2,7 2,13 3,22 3,-13 4,-21 7,-25zm10 -3l21 -6 -16 47c0,-33 -3,-38 -5,-41zm-23 14c1,2 4,22 6,20 3,-3 7,-30 12,-25 4,3 5,24 6,42l-7 21c-17,-25 -18,-59 -17,-58z"/>
    <path class="fil7" d="M2507 163l-7 23 33 -3c-10,-6 -20,-11 -26,-20zm4 -16l-3 10c8,2 13,5 21,9 -10,-10 -16,-14 -18,-19zm2 -10l6 -20 33 37c-29,-18 -35,-18 -39,-17zm1 26c2,0 21,8 21,6 -2,-5 -23,-21 -16,-24 4,-2 23,8 40,17l14 16c-31,2 -61,-14 -59,-15z"/>
    <path class="fil7" d="M1064 430l-7 23 33 -3c-10,-6 -20,-11 -26,-20zm4 -16l-3 10c8,2 13,5 21,9 -10,-10 -16,-14 -18,-19zm2 -10l6 -20 33 37c-29,-18 -35,-18 -39,-17zm1 26c2,0 21,8 21,6 -2,-5 -23,-21 -16,-24 4,-2 23,8 40,17l14 17c-31,1 -61,-15 -59,-16z"/>
    <path class="fil7" d="M354 605l-7 24 33 -4c-10,-6 -20,-11 -26,-20zm4 -16l-3 10c8,3 13,5 21,9 -10,-10 -16,-14 -18,-19zm2 -9l6 -21 33 37c-29,-18 -35,-17 -39,-16zm1 26c2,-1 21,7 21,5 -2,-5 -23,-21 -16,-24 4,-2 23,8 40,17l14 17c-31,2 -61,-15 -59,-15z"/>
    <path class="fil7" d="M1246 122l-6 23 32 -3c-9,-6 -19,-11 -26,-20zm4 -16l-3 10c8,2 13,5 22,9 -11,-10 -16,-14 -19,-19zm3 -10l5 -20 33 37c-29,-18 -35,-18 -38,-17zm1 26c2,0 20,8 20,6 -1,-5 -23,-21 -16,-24 5,-2 23,8 40,17l14 17c-30,1 -61,-15 -58,-16z"/>
    <path class="fil7" d="M3428 406l-7 24 33 -4c-10,-5 -20,-10 -26,-20zm4 -16l-3 10c8,3 13,5 21,9 -10,-9 -16,-14 -18,-19zm2 -9l6 -21 33 37c-29,-17 -35,-17 -39,-16zm1 26c2,0 21,8 21,6 -2,-5 -23,-22 -16,-24 4,-2 23,7 39,16l15 17c-31,2 -61,-15 -59,-15z"/>
   </g>
   <g>
    <path class="fil8" d="M414 316l-30 0 0 -93 -42 0 0 93 -31 0 0 -116 103 0 0 116zm95 -85c0,-6 -3,-10 -10,-10l-28 0c-7,0 -10,4 -10,10l0 53c0,7 3,10 10,10l28 0c7,0 10,-3 10,-10l0 -53zm31 53c0,12 -3,20 -8,26 -6,5 -14,7 -26,7l-42 0c-12,0 -20,-2 -26,-7 -5,-6 -8,-14 -8,-26l0 -53c0,-11 3,-20 8,-25 6,-5 14,-8 26,-8l42 0c12,0 20,3 26,8 5,5 8,14 8,25l0 53zm52 8c-1,8 -4,14 -8,19 -5,4 -10,6 -17,6 -7,0 -13,0 -19,-1l0 -23 7 0c3,0 4,0 6,-2 1,-1 2,-3 2,-5l5 -86 93 0 0 116 -30 0 0 -93 -35 0 -4 69zm117 25c-5,0 -11,0 -17,-1l0 -23 15 0c4,0 6,-1 7,-3 1,-1 1,-3 1,-4 0,-1 0,-2 -1,-3l-46 -83 33 0 31 59 25 -59 33 0 -42 91c-4,9 -9,15 -15,20 -6,4 -14,6 -24,6zm156 -39c-13,1 -26,1 -38,1 -12,0 -20,-2 -26,-7 -5,-5 -7,-13 -7,-24l0 -48 30 0 0 48c0,3 1,5 2,6 2,1 4,2 6,2 9,0 20,0 33,-1l0 -55 30 0 0 116 -30 0 0 -38zm153 38l-31 0 0 -71 -40 71 -32 0 0 -116 30 0 0 71 41 -71 32 0 0 116zm77 0l-30 0 0 -93 -36 0 0 -23 101 0 0 23 -35 0 0 93zm140 0l-93 0 0 -116 93 0 0 23 -63 0 0 22 49 0 0 24 -49 0 0 24 63 0 0 23zm149 -118c3,0 8,1 15,2l0 22 -6 0c-2,0 -4,1 -5,2 -1,1 -2,2 -3,3l-16 30 33 59 -32 0 -26 -47 -15 0 0 47 -30 0 0 -116 30 0 0 45 15 0 17 -31c2,-5 5,-8 9,-11 3,-3 8,-5 14,-5zm56 119c-6,0 -11,0 -17,-1l0 -23 15 0c3,0 5,-1 7,-3 0,-1 0,-3 0,-4 0,-1 0,-2 0,-3l-47 -83 34 0 30 59 25 -59 34 0 -43 91c-4,9 -9,15 -14,20 -6,4 -14,6 -24,6zm155 -117l34 0 -38 58 39 58 -34 0 -23 -37 -24 37 -33 0 38 -58 -37 -58 33 0 23 36 22 -36zm146 116l-31 0 0 -47 -42 0 0 47 -30 0 0 -116 30 0 0 45 42 0 0 -45 31 0 0 116zm166 -32c0,12 -3,20 -8,26 -6,5 -14,7 -26,7l-33 0c-12,0 -21,-2 -26,-7 -5,-6 -8,-14 -8,-26l0 -15 -15 0 0 47 -30 0 0 -116 30 0 0 45 15 0 0 -14c0,-11 3,-20 8,-25 5,-5 14,-8 26,-8l33 0c12,0 20,3 26,8 5,5 8,14 8,25l0 53zm-31 -53c0,-6 -3,-10 -10,-10l-20 0c-6,0 -10,4 -10,10l0 53c0,7 4,10 10,10l20 0c7,0 10,-3 10,-10l0 -53zm188 83c-25,2 -45,3 -62,3 -11,0 -19,-2 -24,-7 -5,-5 -8,-13 -8,-24l0 -53c0,-12 3,-20 8,-25 6,-5 14,-8 26,-8l60 0 0 23 -53 0c-7,0 -10,3 -10,10l0 53c0,3 0,5 2,6 1,2 3,2 6,2 2,0 5,0 7,0 3,0 6,0 9,0 3,0 6,0 9,0 3,0 7,-1 12,-1 5,0 11,-1 18,-1l0 22zm89 -83c0,-6 -3,-10 -10,-10l-28 0c-7,0 -10,4 -10,10l0 53c0,7 3,10 10,10l28 0c7,0 10,-3 10,-10l0 -53zm30 53c0,12 -2,20 -8,26 -5,5 -13,7 -25,7l-42 0c-12,0 -20,-2 -26,-7 -5,-6 -8,-14 -8,-26l0 -53c0,-11 3,-20 8,-25 6,-5 14,-8 26,-8l42 0c12,0 20,3 25,8 6,5 8,14 8,25l0 53zm158 30c-25,2 -45,3 -62,3 -11,0 -19,-2 -24,-7 -5,-5 -8,-13 -8,-24l0 -53c0,-12 3,-20 8,-25 5,-5 14,-8 26,-8l60 0 0 23 -54 0c-6,0 -10,3 -10,10l0 53c0,3 1,5 3,6 1,2 3,2 5,2 3,0 5,0 8,0 3,0 6,0 9,0 3,0 6,0 9,0 3,0 7,-1 12,-1 5,0 11,-1 18,-1l0 22zm99 -116c3,0 8,1 15,2l0 22 -6 0c-2,0 -4,1 -5,2 -1,1 -2,2 -3,3l-16 30 33 59 -32 0 -26 -47 -15 0 0 47 -30 0 0 -116 30 0 0 45 15 0 17 -31c2,-5 5,-8 9,-11 3,-3 8,-5 14,-5zm130 118l-30 0 0 -71 -40 71 -32 0 0 -116 30 0 0 71 40 -71 32 0 0 116zm37 -116l88 0 0 93 13 0 0 44 -29 0 -2 -21 -65 0 -2 21 -28 0 0 -44 11 0c3,-4 5,-8 7,-13 2,-4 3,-8 3,-12l4 -68zm58 93l0 -70 -31 0 -3 42c0,6 -2,13 -5,20 -1,3 -2,5 -4,8l43 0zm142 -95c2,0 7,1 15,2l0 22 -7 0c-2,0 -3,1 -4,2 -2,1 -3,2 -4,3l-15 30 32 59 -32 0 -26 -47 -15 0 0 47 -30 0 0 -116 30 0 0 45 15 0 17 -31c3,-5 6,-8 9,-11 4,-3 9,-5 15,-5zm103 33c0,-6 -4,-10 -10,-10l-29 0c-6,0 -10,4 -10,10l0 53c0,7 4,10 10,10l29 0c6,0 10,-3 10,-10l0 -53zm30 53c0,12 -3,20 -8,26 -5,5 -14,7 -26,7l-41 0c-12,0 -21,-2 -26,-7 -5,-6 -8,-14 -8,-26l0 -53c0,-11 3,-20 8,-25 5,-5 14,-8 26,-8l41 0c12,0 21,3 26,8 5,5 8,14 8,25l0 53zm89 32l0 -71 -40 71 -32 0 0 -116 30 0 0 71 40 -71 32 0 0 116 -30 0zm-30 -124c-15,0 -22,-7 -22,-22l0 -5 22 0 0 4c0,2 0,3 1,5 2,1 3,1 5,1l5 0c1,0 3,0 4,-1 1,-2 2,-3 2,-5l0 -4 21 0 0 5c0,15 -7,22 -21,22l-17 0zm186 101l-62 0 0 -24 40 -69 34 0 -41 69 29 0 0 -24 30 0 0 24 12 0 0 24 -12 0 0 23 -30 0 0 -23zm119 -62c0,-6 -3,-10 -10,-10l-18 0c-7,0 -11,4 -11,10l0 53c0,7 4,10 11,10l18 0c7,0 10,-3 10,-10l0 -53zm30 53c0,12 -2,20 -8,26 -5,5 -14,7 -25,7l-32 0c-12,0 -20,-2 -26,-7 -5,-6 -8,-14 -8,-26l0 -53c0,-11 3,-20 8,-25 6,-5 14,-8 26,-8l32 0c11,0 20,3 25,8 6,5 8,14 8,25l0 53zm32 32l67 -116 25 0 -65 116 -27 0zm35 -77c0,6 -1,12 -5,15 -4,4 -9,6 -16,6l-15 0c-6,0 -12,-2 -15,-6 -4,-3 -6,-9 -6,-15l0 -20c0,-7 2,-12 6,-15 3,-4 9,-6 15,-6l15 0c7,0 12,2 16,6 4,3 5,8 5,15l0 20zm-20 -20c0,-4 -2,-6 -6,-6l-5 0c-4,0 -6,2 -6,6l0 20c0,4 2,6 6,6l5 0c4,0 6,-2 6,-6l0 -20zm101 78c0,6 -2,12 -6,15 -3,4 -8,5 -15,5l-15 0c-7,0 -12,-1 -16,-5 -3,-3 -5,-9 -5,-15l0 -20c0,-7 2,-12 5,-15 4,-4 9,-6 16,-6l15 0c7,0 12,2 15,6 4,3 6,8 6,15l0 20zm-20 -20c0,-4 -2,-6 -6,-6l-5 0c-4,0 -6,2 -6,6l0 20c0,4 2,6 6,6l5 0c4,0 6,-2 6,-6l0 -20z"/>
    <path class="fil9" d="M400 326l-30 0 0 -93 -42 0 0 93 -30 0 0 -116 102 0 0 116zm96 -84c0,-7 -3,-10 -10,-10l-28 0c-7,0 -11,3 -11,10l0 53c0,6 4,10 11,10l28 0c7,0 10,-4 10,-10l0 -53zm30 53c0,11 -2,20 -8,25 -5,5 -14,8 -25,8l-42 0c-12,0 -20,-3 -26,-8 -5,-5 -8,-14 -8,-25l0 -53c0,-12 3,-20 8,-26 6,-5 14,-7 26,-7l42 0c11,0 20,2 25,7 6,6 8,14 8,26l0 53zm52 7c0,8 -3,14 -7,19 -5,4 -11,7 -17,7 -7,0 -13,-1 -19,-2l0 -22 7 0c2,0 4,-1 6,-2 1,-2 2,-4 2,-6l5 -86 93 0 0 116 -30 0 0 -93 -36 0 -4 69zm118 26c-5,0 -11,-1 -17,-2l0 -22 15 0c3,0 6,-2 7,-4 0,-1 1,-2 1,-4 0,-1 -1,-2 -1,-3l-46 -83 33 0 30 59 26 -59 33 0 -43 91c-4,9 -8,15 -14,20 -6,4 -14,7 -24,7zm156 -40c-14,1 -26,2 -38,2 -12,0 -21,-3 -26,-8 -5,-5 -8,-13 -8,-24l0 -48 31 0 0 48c0,3 0,5 2,6 1,2 3,2 6,2 9,0 20,0 33,-1l0 -55 30 0 0 116 -30 0 0 -38zm152 38l-30 0 0 -71 -40 71 -32 0 0 -116 30 0 0 71 41 -71 31 0 0 116zm78 0l-31 0 0 -93 -35 0 0 -23 101 0 0 23 -35 0 0 93zm140 0l-93 0 0 -116 93 0 0 23 -63 0 0 23 49 0 0 23 -49 0 0 24 63 0 0 23zm149 -117c3,0 8,0 15,1l0 23 -7 0c-1,0 -3,0 -4,1 -2,1 -3,2 -3,4l-16 29 33 59 -32 0 -26 -47 -15 0 0 47 -31 0 0 -116 31 0 0 46 15 0 16 -32c3,-4 6,-8 10,-11 3,-3 8,-4 14,-4zm56 119c-6,0 -12,-1 -18,-2l0 -22 16 0c3,0 5,-2 6,-4 1,-1 1,-2 1,-4 0,-1 0,-2 -1,-3l-46 -83 34 0 30 59 25 -59 34 0 -43 91c-4,9 -9,15 -14,20 -6,4 -14,7 -24,7zm155 -118l34 0 -38 58 39 58 -34 0 -23 -36 -24 36 -33 0 38 -58 -38 -58 34 0 23 37 22 -37zm145 116l-30 0 0 -47 -42 0 0 47 -30 0 0 -116 30 0 0 46 42 0 0 -46 30 0 0 116zm166 -31c0,11 -2,20 -8,25 -5,5 -13,8 -25,8l-34 0c-11,0 -20,-3 -25,-8 -6,-5 -8,-14 -8,-25l0 -16 -15 0 0 47 -30 0 0 -116 30 0 0 46 15 0 0 -14c0,-12 2,-20 8,-26 5,-5 14,-7 25,-7l34 0c12,0 20,2 25,7 6,6 8,14 8,26l0 53zm-30 -53c0,-7 -3,-10 -10,-10l-20 0c-7,0 -10,3 -10,10l0 53c0,6 3,10 10,10l20 0c7,0 10,-4 10,-10l0 -53zm188 82c-25,3 -45,4 -62,4 -11,0 -19,-3 -24,-8 -5,-5 -8,-13 -8,-24l0 -53c0,-11 3,-20 8,-25 5,-5 14,-8 26,-8l60 0 0 23 -54 0c-6,0 -10,4 -10,10l0 53c0,3 1,5 3,6 1,2 3,3 5,3 3,0 5,0 8,-1 3,0 6,0 9,0 3,0 6,0 9,0 3,0 7,0 12,-1 5,0 11,0 18,-1l0 22zm89 -82c0,-7 -3,-10 -10,-10l-29 0c-6,0 -10,3 -10,10l0 53c0,6 4,10 10,10l29 0c7,0 10,-4 10,-10l0 -53zm30 53c0,11 -2,20 -8,25 -5,5 -14,8 -25,8l-42 0c-12,0 -21,-3 -26,-8 -5,-5 -8,-14 -8,-25l0 -53c0,-12 3,-20 8,-26 5,-5 14,-7 26,-7l42 0c11,0 20,2 25,7 6,6 8,14 8,26l0 53zm158 29c-25,3 -46,4 -62,4 -11,0 -19,-3 -24,-8 -5,-5 -8,-13 -8,-24l0 -53c0,-11 3,-20 8,-25 5,-5 14,-8 26,-8l60 0 0 23 -54 0c-6,0 -10,4 -10,10l0 53c0,3 1,5 2,6 2,2 4,3 6,3 3,0 5,0 8,-1 3,0 6,0 9,0 3,0 6,0 9,0 3,0 7,0 12,-1 5,0 11,0 18,-1l0 22zm99 -115c3,0 8,0 15,1l0 23 -7 0c-1,0 -3,0 -4,1 -2,1 -3,2 -3,4l-16 29 33 59 -32 0 -26 -47 -15 0 0 47 -31 0 0 -116 31 0 0 46 15 0 16 -32c3,-4 6,-8 10,-11 3,-3 8,-4 14,-4zm130 117l-30 0 0 -71 -41 71 -31 0 0 -116 30 0 0 71 40 -71 32 0 0 116zm37 -116l88 0 0 93 12 0 0 45 -28 0 -2 -22 -65 0 -2 22 -28 0 0 -45 11 0c3,-4 5,-8 7,-12 1,-5 2,-9 3,-13l4 -68zm58 93l0 -70 -31 0 -3 42c0,6 -2,13 -5,20 -1,3 -3,6 -4,8l43 0zm141 -94c3,0 8,0 16,1l0 23 -7 0c-2,0 -3,0 -5,1 -1,1 -2,2 -3,4l-16 29 33 59 -32 0 -26 -47 -15 0 0 47 -30 0 0 -116 30 0 0 46 15 0 17 -32c2,-4 5,-8 9,-11 4,-3 9,-4 14,-4zm104 33c0,-7 -4,-10 -10,-10l-29 0c-7,0 -10,3 -10,10l0 53c0,6 3,10 10,10l29 0c6,0 10,-4 10,-10l0 -53zm30 53c0,11 -3,20 -8,25 -5,5 -14,8 -26,8l-42 0c-11,0 -20,-3 -25,-8 -6,-5 -8,-14 -8,-25l0 -53c0,-12 2,-20 8,-26 5,-5 14,-7 25,-7l42 0c12,0 21,2 26,7 5,6 8,14 8,26l0 53zm89 31l0 -71 -41 71 -31 0 0 -116 30 0 0 71 40 -71 32 0 0 116 -30 0zm-30 -124c-15,0 -22,-7 -22,-22l0 -5 22 0 0 5c0,1 0,3 1,4 1,1 3,1 4,1l5 0c2,0 3,0 5,-1 1,-1 1,-3 1,-4l0 -5 22 0 0 5c0,15 -7,22 -22,22l-16 0zm186 101l-62 0 0 -23 40 -70 33 0 -40 70 29 0 0 -25 30 0 0 25 12 0 0 23 -12 0 0 23 -30 0 0 -23zm119 -61c0,-7 -4,-10 -10,-10l-19 0c-6,0 -10,3 -10,10l0 53c0,6 4,10 10,10l19 0c6,0 10,-4 10,-10l0 -53zm30 53c0,11 -3,20 -8,25 -5,5 -14,8 -26,8l-31 0c-12,0 -21,-3 -26,-8 -5,-5 -8,-14 -8,-25l0 -53c0,-12 3,-20 8,-26 5,-5 14,-7 26,-7l31 0c12,0 21,2 26,7 5,6 8,14 8,26l0 53zm32 31l67 -116 25 0 -65 116 -27 0zm35 -77c0,7 -2,12 -5,15 -4,4 -9,6 -16,6l-15 0c-7,0 -12,-2 -15,-6 -4,-3 -6,-8 -6,-15l0 -20c0,-6 2,-11 6,-15 3,-4 8,-5 15,-5l15 0c7,0 12,1 16,5 3,4 5,9 5,15l0 20zm-20 -20c0,-4 -2,-6 -6,-6l-5 0c-4,0 -6,2 -6,6l0 20c0,4 2,6 6,6l5 0c4,0 6,-2 6,-6l0 -20zm101 78c0,7 -2,12 -6,15 -3,4 -9,6 -15,6l-15 0c-7,0 -12,-2 -16,-6 -4,-3 -5,-8 -5,-15l0 -20c0,-6 1,-12 5,-15 4,-4 9,-6 16,-6l15 0c6,0 12,2 15,6 4,3 6,9 6,15l0 20zm-20 -20c0,-4 -2,-6 -6,-6l-5 0c-4,0 -6,2 -6,6l0 20c0,4 2,6 6,6l5 0c4,0 6,-2 6,-6l0 -20z"/>
   </g>
   <g>
    <ellipse class="fil1" cx="2535" cy="1468" rx="444" ry="438"/>
    <path class="fil2" d="M2789 1108c190,360 -150,759 -449,754 59,28 125,44 195,44 246,0 444,-196 444,-438 0,-149 -75,-281 -190,-360z"/>
    <path class="fil8" d="M2277 1601l-30 0 0 -46 -40 0 0 46 -30 0 0 -113 30 0 0 45 40 0 0 -45 30 0 0 113zm93 -82c0,-7 -3,-10 -10,-10l-28 0c-6,0 -9,3 -9,10l0 52c0,6 3,9 9,9l28 0c7,0 10,-3 10,-9l0 -52zm29 52c0,11 -2,19 -7,24 -6,5 -14,8 -25,8l-41 0c-12,0 -20,-3 -25,-8 -5,-5 -8,-13 -8,-24l0 -52c0,-11 3,-20 8,-25 5,-5 13,-7 25,-7l41 0c11,0 19,2 25,7 5,5 7,14 7,25l0 52zm115 30l-30 0 0 -37 -22 0 -20 37 -31 0 21 -39c-7,-1 -12,-4 -15,-9 -3,-5 -5,-12 -5,-21l0 -11c0,-12 3,-20 8,-25 5,-5 14,-8 25,-8l69 0 0 113zm-72 -69c0,6 3,9 10,9l32 0 0 -30 -32 0c-7,0 -10,3 -10,10l0 11zm121 0l39 0c12,0 20,2 25,7 5,6 8,14 8,25l0 5c0,11 -3,19 -8,24 -5,6 -13,8 -25,8l-69 0 0 -113 91 0 0 23 -61 0 0 21zm42 32c0,-6 -3,-10 -9,-10l-33 0 0 25 33 0c6,0 9,-4 9,-10l0 -5zm45 -76l68 0c12,0 20,3 25,8 5,5 8,13 8,25l0 16c0,11 -3,19 -8,24 -5,5 -13,8 -25,8l-39 0 0 32 -29 0 0 -113zm71 33c0,-7 -3,-10 -9,-10l-33 0 0 35 33 0c6,0 9,-3 9,-9l0 -16zm143 80l-30 0 0 -37 -22 0 -20 37 -31 0 21 -39c-7,-1 -12,-4 -15,-9 -3,-5 -5,-12 -5,-21l0 -11c0,-12 3,-20 8,-25 5,-5 14,-8 25,-8l69 0 0 113zm-72 -69c0,6 3,9 10,9l32 0 0 -30 -32 0c-7,0 -10,3 -10,10l0 11z"/>
    <path class="fil6" d="M2789 1108c376,297 63,910 -449,754 59,28 125,44 195,44 246,0 444,-196 444,-438 0,-149 -75,-281 -190,-360z"/>
    <path class="fil8" d="M2252 1448l0 -95 -20 7 -9 -20 32 -13 29 0 0 121 -32 0zm71 0l0 -95 -20 7 -9 -20 33 -13 28 0 0 121 -32 0zm101 -49l0 -23 130 0 0 23 -130 0zm287 -34c0,10 -5,18 -13,25 -3,2 -6,5 -9,7l-37 27 59 0 0 24 -96 0 0 -33 64 -45 0 -9c0,-7 -4,-10 -11,-10l-49 0 0 -24 56 0c13,0 22,2 27,8 6,5 9,14 9,26l0 4zm74 85c-20,0 -42,-1 -66,-4l0 -23c26,2 46,3 58,3 3,0 5,-1 7,-3 2,-1 2,-3 2,-6l0 -9c0,-7 -3,-10 -10,-10l-51 0 0 -71 84 0 0 24 -53 0 0 22 29 0c11,0 20,3 25,8 5,5 8,13 8,24l0 12c0,11 -3,20 -8,25 -5,5 -14,8 -25,8z"/>
   </g>
   <g>
    <circle class="fil10" cx="1189" cy="1120" r="658"/>
    <path class="fil0" d="M1827 979c-249,-831 -1414,-525 -1285,281 -78,-354 147,-705 502,-783 355,-77 705,147 783,502z"/>
    <circle class="fil0" cx="1189" cy="1120" r="550"/>
    <path class="fil8" d="M1413 1258l154 -271 58 0 -150 271 -62 0zm81 -180c0,16 -4,27 -12,36 -9,8 -21,12 -36,12l-35 0c-15,0 -27,-4 -35,-12 -9,-9 -13,-20 -13,-36l0 -46c0,-16 4,-28 13,-36 8,-8 20,-12 35,-12l35 0c15,0 27,4 36,12 8,8 12,20 12,36l0 46zm-46 -46c0,-9 -5,-14 -14,-14l-11 0c-9,0 -14,5 -14,14l0 46c0,9 5,14 14,14l11 0c9,0 14,-5 14,-14l0 -46zm231 181c0,16 -4,27 -12,36 -9,8 -20,12 -36,12l-35 0c-15,0 -27,-4 -35,-12 -9,-9 -13,-20 -13,-36l0 -46c0,-16 4,-27 13,-36 8,-8 20,-12 35,-12l35 0c16,0 27,4 36,12 8,9 12,20 12,36l0 46zm-46 -46c0,-9 -4,-14 -13,-14l-12 0c-9,0 -14,5 -14,14l0 46c0,9 5,14 14,14l12 0c9,0 13,-5 13,-14l0 -46z"/>
    <path class="fil11" d="M1385 1276l154 -270 58 0 -150 270 -62 0zm81 -179c0,15 -4,27 -13,36 -8,8 -20,12 -35,12l-35 0c-15,0 -27,-4 -36,-12 -8,-9 -12,-21 -12,-36l0 -46c0,-16 4,-28 12,-36 9,-8 21,-13 36,-13l35 0c15,0 27,5 35,13 9,8 13,20 13,36l0 46zm-46 -46c0,-9 -5,-14 -14,-14l-11 0c-9,0 -14,5 -14,14l0 46c0,9 5,13 14,13l11 0c9,0 14,-4 14,-13l0 -46zm231 181c0,15 -4,27 -12,36 -9,8 -21,12 -36,12l-35 0c-15,0 -27,-4 -35,-12 -9,-9 -13,-21 -13,-36l0 -46c0,-16 4,-28 13,-36 8,-8 20,-13 35,-13l35 0c15,0 27,5 36,13 8,8 12,20 12,36l0 46zm-46 -46c0,-9 -5,-14 -14,-14l-11 0c-9,0 -14,5 -14,14l0 46c0,9 5,14 14,14l11 0c9,0 14,-5 14,-14l0 -46z"/>
    <path class="fil6" d="M1739 1120c-45,701 -1046,707 -1101,0 0,304 247,550 551,550 304,0 550,-246 550,-550z"/>
    <path class="fil8" d="M880 1182l-181 0 0 -72 118 -213 97 0 -117 213 83 0 0 -76 88 0 0 76 35 0 0 72 -35 0 0 71 -88 0 0 -71zm348 -189c0,-20 -10,-30 -30,-30l-54 0c-19,0 -29,10 -29,30l0 163c0,20 10,31 29,31l54 0c20,0 30,-11 30,-31l0 -163zm88 163c0,36 -8,62 -24,78 -15,16 -40,24 -74,24l-93 0c-34,0 -59,-8 -75,-24 -15,-16 -23,-42 -23,-78l0 -163c0,-35 8,-61 23,-77 16,-16 41,-24 75,-24l93 0c34,0 59,8 74,24 16,16 24,42 24,77l0 163z"/>
    <path class="fil11" d="M852 1202l-181 0 0 -71 118 -214 98 0 -118 214 83 0 0 -76 89 0 0 76 34 0 0 71 -34 0 0 71 -89 0 0 -71zm348 -188c0,-20 -10,-31 -30,-31l-53 0c-20,0 -30,11 -30,31l0 163c0,20 10,30 30,30l53 0c20,0 30,-10 30,-30l0 -163zm88 163c0,35 -8,61 -23,77 -16,16 -41,24 -75,24l-93 0c-34,0 -59,-8 -75,-24 -15,-16 -23,-42 -23,-77l0 -163c0,-36 8,-61 23,-78 16,-16 41,-24 75,-24l93 0c34,0 59,8 75,24 15,17 23,42 23,78l0 163z"/>
   </g>
   <path class="fil1" d="M3780 6756l-3780 0 0 -752 3779 -507 1 1259z"/>
   <path class="fil2" d="M0 6756l0 -41 480 -775 84 -11 -513 827 -51 0zm0 -436l0 -124 129 -209 84 -11 -213 344zm830 -427l84 -11 -541 874 -77 0 534 -863zm350 -47l84 -12 -570 922 -77 0 563 -910zm351 -47l84 -12 -600 969 -77 0 593 -957zm350 -47l84 -12 -629 1016 -77 0 622 -1004zm350 -47l84 -12 -658 1063 -77 0 651 -1051zm351 -47l84 -12 -688 1110 -76 0 680 -1098zm350 -48l84 -11 -716 1157 -77 0 709 -1146zm350 -47l84 -11 -745 1204 -77 0 738 -1193zm351 -47l84 -11 -775 1251 -77 0 768 -1240zm-447 1240l77 0 516 -833 0 -124 -593 957zm321 0l77 0 195 -315 0 -124 -272 439z"/>
   <g>
    <path class="fil4" d="M3027 6423l14 21 18 -27c-10,4 -21,8 -32,6zm-10 -13l6 9c7,-4 13,-7 21,-11 -14,2 -21,3 -27,2zm-5 -8l-13 -18 50 0c-32,10 -36,15 -37,18zm20 16c1,-1 20,-10 18,-11 -5,-2 -31,3 -29,-4 2,-5 21,-12 39,-19l22 0c-18,24 -51,36 -50,34z"/>
    <path class="fil4" d="M3453 5867l14 20 19 -26c-11,3 -21,7 -33,6zm-10 -14l6 9c7,-4 13,-6 21,-10 -14,2 -21,3 -27,1zm-5 -7l-13 -18 51 0c-33,10 -37,14 -38,18zm20 16c2,-2 20,-11 18,-12 -5,-2 -31,4 -29,-3 2,-5 22,-13 39,-19l22 0c-18,24 -51,35 -50,34z"/>
    <path class="fil4" d="M574 6556l14 21 19 -27c-11,4 -21,8 -33,6zm-10 -13l6 9c7,-4 13,-7 21,-11 -14,2 -21,3 -27,2zm-5 -8l-13 -18 51 0c-33,10 -37,15 -38,18zm20 16c2,-1 20,-10 18,-11 -5,-2 -31,3 -29,-4 2,-5 22,-12 39,-19l22 0c-18,24 -51,36 -50,34z"/>
    <path class="fil4" d="M1951 6613l14 20 19 -26c-11,3 -21,7 -33,6zm-9 -14l6 9c7,-4 12,-6 20,-10 -13,2 -21,3 -26,1zm-6 -7l-12 -18 50 0c-32,10 -36,14 -38,18zm21 16c1,-2 20,-11 18,-12 -5,-2 -32,4 -29,-3 1,-5 21,-13 39,-19l22 0c-19,24 -51,35 -50,34z"/>
    <path class="fil4" d="M120 6210l14 21 19 -27c-11,4 -21,8 -33,6zm-9 -13l6 9c6,-4 12,-7 20,-11 -14,2 -21,3 -26,2zm-6 -8l-12 -18 50 0c-33,10 -36,15 -38,18zm21 16c1,-1 19,-10 17,-11 -4,-2 -31,3 -29,-4 2,-5 22,-12 39,-19l23 0c-19,24 -52,36 -50,34z"/>
    <path class="fil4" d="M2164 6132l-14 20 -19 -27c11,4 21,8 33,7zm10 -14l-7 9c-6,-4 -12,-6 -20,-10 14,1 21,3 27,1zm5 -8l12 -17 -50 0c33,9 36,14 38,17zm-20 17c-2,-2 -20,-11 -18,-12 4,-2 31,3 29,-3 -2,-5 -22,-13 -39,-19l-23 0c19,24 52,35 51,34z"/>
    <path class="fil5" d="M1292 6057l14 20 -32 7c7,-8 15,-16 18,-27zm-9 -14l6 9c-6,5 -11,9 -17,15 6,-12 10,-19 11,-24zm-5 -8l-12 -18 -19 46c21,-26 27,-28 31,-28zm7 25c-2,0 -17,14 -17,12 -1,-5 15,-28 7,-28 -5,0 -19,15 -32,28l-9 21c30,-8 53,-34 51,-33z"/>
    <path class="fil5" d="M2278 6309l-13 20 32 7c-8,-8 -16,-16 -19,-27zm9 -14l-6 9c7,4 11,9 18,15 -7,-12 -11,-19 -12,-24zm6 -8l12 -18 19 46c-22,-26 -28,-28 -31,-28zm-8 25c2,0 17,14 18,12 0,-6 -15,-28 -8,-28 5,0 20,15 33,28l8 20c-30,-7 -53,-33 -51,-32z"/>
    <path class="fil5" d="M2977 5981l-14 21 33 6c-8,-8 -16,-16 -19,-27zm9 -14l-6 9c7,5 11,9 18,15 -7,-12 -11,-18 -12,-24zm5 -8l12 -18 20 46c-22,-26 -28,-28 -32,-28zm-7 25c2,1 17,14 18,12 0,-5 -15,-27 -8,-28 5,0 20,15 33,28l8 21c-30,-8 -53,-33 -51,-33z"/>
    <path class="fil6" d="M3562 6427l24 -7 -19 -26c0,11 0,22 -5,33zm-16 4l11 -3c-2,-7 -3,-13 -4,-22 -3,13 -4,21 -7,25zm-9 3l-21 6 16 -47c-1,33 2,38 5,41zm22 -14c-1,-2 -4,-22 -5,-20 -4,3 -7,30 -13,25 -4,-3 -5,-23 -6,-42l7 -21c18,25 18,60 17,58z"/>
    <path class="fil6" d="M1702 6295l-24 -6 20 -26c0,11 -1,22 4,32zm16 5l-10 -3c1,-8 2,-14 3,-23 3,14 4,21 7,26zm9 2l22 6 -17 -47c1,34 -2,39 -5,41zm-22 -14c1,-1 4,-21 6,-20 3,4 7,31 12,26 4,-3 5,-24 6,-42l-7 -21c-17,25 -18,59 -17,57z"/>
    <path class="fil6" d="M2726 5892l24 -6 -20 -26c0,11 1,22 -4,32zm-16 5l10 -3c-2,-8 -2,-14 -3,-23 -3,14 -4,21 -7,26zm-10 2l-21 6 16 -47c-1,34 2,39 5,41zm22 -14c-1,-1 -3,-21 -5,-20 -4,4 -7,31 -13,26 -4,-3 -5,-24 -5,-42l7 -21c17,25 18,59 16,57z"/>
    <path class="fil6" d="M728 6236l24 -7 -20 -26c0,11 1,22 -4,33zm-16 4l10 -3c-2,-7 -2,-13 -3,-22 -3,13 -4,21 -7,25zm-10 3l-21 6 16 -47c-1,33 3,38 5,41zm22 -14c-1,-2 -3,-22 -5,-20 -4,3 -7,30 -13,25 -4,-3 -5,-23 -5,-42l7 -21c17,25 18,60 16,58z"/>
    <path class="fil7" d="M1266 6560l6 -24 -32 3c10,6 20,11 26,21zm-4 15l3 -10c-8,-2 -13,-5 -22,-8 11,9 17,13 19,18zm-2 10l-6 21 -33 -38c29,18 35,18 39,17zm-1 -26c-2,0 -21,-8 -21,-6 2,5 23,21 16,24 -5,2 -23,-8 -40,-17l-14 -16c30,-2 61,15 59,15z"/>
    <path class="fil7" d="M2709 6293l6 -24 -32 3c10,6 20,11 26,21zm-4 15l3 -10c-8,-2 -13,-5 -22,-9 11,10 17,14 19,19zm-2 10l-6 21 -33 -38c29,18 35,18 39,17zm-1 -26c-2,0 -21,-8 -21,-6 2,5 23,21 16,24 -5,2 -23,-8 -40,-17l-14 -16c30,-2 61,15 59,15z"/>
    <path class="fil7" d="M3419 6117l6 -23 -32 3c9,6 19,11 26,20zm-4 16l3 -10c-8,-2 -13,-5 -22,-9 11,10 17,14 19,19zm-3 10l-5 21 -33 -38c29,18 35,18 38,17zm-1 -26c-2,0 -20,-8 -20,-6 1,5 23,21 16,24 -5,2 -23,-8 -40,-17l-14 -16c30,-2 61,14 58,15z"/>
    <path class="fil7" d="M2527 6601l6 -24 -32 3c9,6 19,11 26,21zm-4 15l2 -10c-7,-2 -12,-5 -21,-9 10,10 16,14 19,19zm-3 10l-5 21 -33 -38c29,18 35,18 38,17zm-1 -26c-2,0 -21,-8 -20,-6 1,5 23,21 16,24 -5,2 -23,-8 -40,-17l-15 -16c31,-2 61,15 59,15z"/>
    <path class="fil7" d="M345 6316l7 -24 -33 4c10,5 20,10 26,20zm-4 16l3 -10c-8,-3 -13,-5 -22,-9 11,9 17,14 19,19zm-2 9l-6 21 -33 -37c29,17 35,17 39,16zm-1 -26c-2,0 -21,-8 -21,-5 2,4 23,21 16,23 -5,2 -23,-7 -40,-16l-14 -17c30,-2 61,15 59,15z"/>
   </g>
   <path class="fil8" d="M372 6218l-27 0 36 -95 28 0 36 95 -27 0 -6 -17 -34 0 -6 17zm12 -34l22 0 -11 -32 -11 32zm138 -62c2,0 6,1 12,1l0 19 -5 0c-2,0 -3,0 -4,1 -1,1 -2,2 -2,3l-13 24 26 48 -26 0 -21 -38 -12 0 0 38 -25 0 0 -95 25 0 0 38 12 0 14 -26c2,-4 4,-7 7,-9 3,-3 7,-4 12,-4zm23 96l0 -95 24 0 0 76 35 0 0 -76 24 0 0 76 10 0 0 37 -23 0 -1 -18 -69 0zm188 0l-25 0 0 -58 -33 58 -26 0 0 -95 25 0 0 59 33 -59 26 0 0 95zm99 0l-25 0 0 -31 -18 0 -18 31 -26 0 18 -32c-6,-2 -10,-4 -12,-9 -3,-4 -4,-10 -4,-17l0 -9c0,-10 2,-17 6,-21 5,-4 12,-7 21,-7l58 0 0 95zm-61 -58c0,5 3,8 9,8l27 0 0 -26 -27 0c-6,0 -9,3 -9,9l0 9zm132 -37l72 0 0 76 10 0 0 37 -23 0 -1 -18 -54 0 -1 18 -24 0 0 -37 9 0c3,-3 5,-6 6,-10 2,-4 2,-7 3,-10l3 -56zm47 76l0 -57 -25 0 -2 34c0,6 -2,11 -4,17 -1,2 -2,4 -4,6l35 0zm122 19l-76 0 0 -95 76 0 0 19 -51 0 0 19 40 0 0 19 -40 0 0 19 51 0 0 19zm70 0l0 -58 -33 58 -26 0 0 -95 25 0 0 59 33 -59 26 0 0 95 -25 0zm-25 -101c-11,0 -17,-6 -17,-18l0 -4 17 0 0 3c0,2 1,3 2,4 1,1 2,1 3,1l4 0c2,0 3,0 4,-1 1,-1 1,-2 1,-4l0 -3 18 0 0 4c0,12 -6,18 -18,18l-14 0zm140 100c-20,2 -37,2 -50,2 -9,0 -16,-2 -20,-6 -4,-4 -6,-10 -6,-19l0 -43c0,-10 2,-17 6,-21 4,-4 11,-7 21,-7l49 0 0 19 -44 0c-5,0 -8,3 -8,9l0 43c0,2 1,3 2,5 1,1 3,2 5,2 2,0 4,0 6,-1 2,0 5,0 7,0 3,0 5,0 8,0 2,0 5,0 9,-1 4,0 9,0 15,0l0 18zm58 1l-25 0 0 -76 -29 0 0 -19 83 0 0 19 -29 0 0 76zm38 -95l55 0c9,0 16,2 20,6 4,5 6,11 6,19 0,5 -1,10 -3,13 -3,3 -6,6 -9,7 7,2 12,7 15,15 1,2 1,6 1,9 0,9 -2,16 -6,20 -4,4 -11,6 -20,6l-59 0 0 -95zm61 65c0,-5 -3,-8 -9,-8l-27 0 0 19 27 0c6,0 9,-3 9,-8l0 -3zm-5 -37c0,-6 -2,-9 -8,-9l-23 0 0 19 23 0c6,0 8,-2 8,-8l0 -2zm62 68c-5,0 -9,0 -14,-1l0 -18 12 0c3,0 5,-1 6,-3 0,-1 0,-2 0,-3 0,-1 0,-2 0,-3l-38 -68 27 0 25 48 20 -48 28 0 -35 75c-3,7 -7,12 -12,16 -5,4 -11,5 -19,5zm147 -1l-76 0 0 -95 76 0 0 19 -51 0 0 19 40 0 0 19 -40 0 0 19 51 0 0 19zm58 0l-25 0 0 -76 -28 0 0 -19 82 0 0 19 -29 0 0 76zm79 -95l55 0c9,0 16,2 20,6 4,5 6,11 6,19 0,5 -1,10 -3,13 -3,3 -5,6 -9,7 7,2 12,7 15,15 1,2 1,6 1,9 0,9 -2,16 -6,20 -4,4 -11,6 -20,6l-59 0 0 -95zm61 65c0,-5 -3,-8 -8,-8l-28 0 0 19 28 0c5,0 8,-3 8,-8l0 -3zm-4 -37c0,-6 -3,-9 -9,-9l-23 0 0 19 23 0c6,0 9,-2 9,-8l0 -2zm82 -28l57 0c10,0 17,3 21,7 5,4 7,11 7,21l0 13c0,9 -2,16 -7,21 -4,4 -11,6 -21,6l-32 0 0 27 -25 0 0 -95zm60 28c0,-6 -3,-9 -8,-9l-27 0 0 30 27 0c5,0 8,-3 8,-8l0 -13zm46 67l-27 0 37 -95 27 0 36 95 -26 0 -6 -17 -35 0 -6 17zm12 -34l22 0 -11 -32 -11 32zm151 -19l-20 34 -19 0 -19 -34 0 53 -25 0 0 -95 26 0 28 50 27 -50 26 0 0 95 -24 0 0 -53zm111 -43c2,0 6,1 12,1l0 19 -6 0c-1,0 -2,0 -3,1 -1,1 -2,2 -3,3l-13 24 27 48 -26 0 -21 -38 -13 0 0 38 -24 0 0 -95 24 0 0 38 13 0 13 -26c2,-4 5,-7 8,-9 3,-3 7,-4 12,-4zm39 96l-26 0 36 -95 27 0 37 95 -27 0 -6 -17 -35 0 -6 17zm13 -34l22 0 -11 -32 -11 32zm123 -61l27 0 -30 48 31 47 -27 0 -19 -30 -20 30 -27 0 31 -47 -30 -48 27 0 19 30 18 -30zm160 95l-25 0 0 -76 -34 0 0 76 -25 0 0 -95 84 0 0 95zm16 -95l58 0c9,0 16,3 21,7 4,4 6,11 6,21l0 13c0,9 -2,16 -6,21 -5,4 -12,6 -21,6l-33 0 0 27 -25 0 0 -95zm60 28c0,-6 -2,-9 -8,-9l-27 0 0 30 27 0c6,0 8,-3 8,-8l0 -13zm99 -2c0,-5 -3,-8 -8,-8l-23 0c-6,0 -9,3 -9,8l0 43c0,6 3,9 9,9l23 0c5,0 8,-3 8,-9l0 -43zm25 43c0,10 -2,17 -7,21 -4,4 -11,6 -21,6l-34 0c-9,0 -16,-2 -21,-6 -4,-4 -6,-11 -6,-21l0 -43c0,-9 2,-16 6,-20 5,-5 12,-7 21,-7l34 0c10,0 17,2 21,7 5,4 7,11 7,20l0 43zm14 -69l54 0c9,0 16,2 20,6 4,5 6,11 6,19 0,5 -1,10 -3,13 -3,3 -5,6 -9,7 7,2 12,7 15,15 1,2 1,6 1,9 0,9 -2,16 -6,20 -4,4 -11,6 -20,6l-58 0 0 -95zm60 65c0,-5 -3,-8 -8,-8l-28 0 0 19 28 0c5,0 8,-3 8,-8l0 -3zm-4 -37c0,-6 -3,-9 -9,-9l-23 0 0 19 23 0c6,0 9,-2 9,-8l0 -2zm117 67l-76 0 0 -95 76 0 0 19 -52 0 0 19 41 0 0 19 -41 0 0 19 52 0 0 19zm25 -95l72 0 0 76 10 0 0 37 -24 0 -1 -18 -53 0 -2 18 -23 0 0 -37 9 0c3,-3 5,-6 6,-10 1,-4 2,-7 2,-10l4 -56zm47 76l0 -57 -26 0 -2 34c0,6 -1,11 -4,17 -1,2 -2,4 -3,6l35 0zm122 19l-76 0 0 -95 76 0 0 19 -52 0 0 19 41 0 0 19 -41 0 0 19 52 0 0 19zm94 0l-24 0 0 -38 -35 0 0 38 -24 0 0 -95 24 0 0 38 35 0 0 -38 24 0 0 95zm100 0l-24 0 0 -58 -33 58 -26 0 0 -95 25 0 0 59 32 -59 26 0 0 95zm99 0l-25 0 0 -31 -18 0 -17 31 -26 0 18 -32c-6,-2 -10,-4 -13,-9 -3,-4 -4,-10 -4,-17l0 -9c0,-10 2,-17 7,-21 4,-4 11,-7 21,-7l57 0 0 95zm-60 -58c0,5 3,8 8,8l27 0 0 -26 -27 0c-5,0 -8,3 -8,9l0 9zm-2618 151c0,8 -3,15 -10,20 -2,2 -4,4 -6,5l-30 21 46 0 0 19 -74 0 0 -25 50 -36 0 -6c0,-6 -3,-8 -9,-8l-38 0 0 -19 44 0c10,0 16,2 21,6 4,4 6,11 6,21l0 2zm14 46c19,1 32,2 40,2 2,0 4,-1 5,-2 1,-1 2,-3 2,-5l0 -12c-9,2 -17,3 -24,3l-9 0c-6,0 -11,-2 -15,-6 -4,-4 -6,-9 -6,-15l0 -17c0,-9 2,-15 6,-19 5,-4 11,-6 20,-6l26 0c9,0 16,2 20,6 4,4 6,10 6,19l0 47c0,9 -2,15 -6,19 -4,5 -11,7 -20,7 -12,0 -27,-1 -45,-3l0 -18zm30 -33c5,0 11,-1 17,-2l0 -15c0,-5 -3,-8 -9,-8l-12 0c-5,0 -8,3 -8,8l0 12c0,1 0,2 1,3 1,1 2,2 4,2l7 0zm178 0l-19 33 -19 0 -19 -33 0 52 -25 0 0 -94 26 0 28 50 27 -50 26 0 0 94 -25 0 0 -52zm118 52l-77 0 0 -94 77 0 0 19 -52 0 0 18 41 0 0 19 -41 0 0 19 52 0 0 19zm126 -96c3,0 7,1 13,2l0 18 -6 0c-1,0 -2,0 -4,1 -1,1 -1,2 -2,3l-13 24 27 48 -26 0 -22 -38 -9 0 0 38 -25 0 0 -38 -9 0 -22 38 -26 0 27 -48 -13 -24c-1,-1 -1,-2 -2,-3 -2,-1 -3,-1 -4,-1l-6 0 0 -18c6,-1 10,-2 13,-2 5,0 8,2 11,4 3,2 6,5 8,9l14 26 9 0 0 -37 25 0 0 37 9 0 14 -26c2,-4 5,-7 8,-9 3,-2 6,-4 11,-4zm37 2l72 0 0 75 10 0 0 37 -23 0 -2 -18 -53 0 -2 18 -23 0 0 -37 9 0c3,-3 5,-6 6,-10 1,-3 2,-7 2,-10l4 -55zm47 75l0 -56 -25 0 -2 33c-1,6 -2,11 -5,17 -1,2 -2,4 -3,6l35 0zm66 21c-4,0 -9,-1 -14,-2l0 -18 12 0c3,0 5,-1 6,-3 0,-1 1,-2 1,-3 0,-1 -1,-2 -1,-3l-38 -67 28 0 24 48 21 -48 27 0 -35 74c-3,7 -7,12 -11,16 -5,4 -12,6 -20,6zm155 -2l-24 0 0 -38 -35 0 0 38 -24 0 0 -94 24 0 0 37 35 0 0 -37 24 0 0 94zm34 0l-27 0 36 -94 28 0 36 94 -27 0 -6 -17 -34 0 -6 17zm12 -34l22 0 -11 -32 -11 32zm68 -60l58 0c9,0 16,2 21,6 4,4 6,11 6,21l0 13c0,10 -2,17 -6,21 -5,4 -12,6 -21,6l-33 0 0 27 -25 0 0 -94zm60 27c0,-6 -2,-8 -8,-8l-27 0 0 29 27 0c6,0 8,-2 8,-8l0 -13zm99 -2c0,-5 -3,-8 -8,-8l-23 0c-6,0 -9,3 -9,8l0 44c0,5 3,8 9,8l23 0c5,0 8,-3 8,-8l0 -44zm25 44c0,9 -2,16 -7,20 -4,5 -11,7 -21,7l-34 0c-10,0 -17,-2 -21,-7 -4,-4 -6,-11 -6,-20l0 -44c0,-9 2,-16 6,-20 4,-5 11,-7 21,-7l34 0c10,0 17,2 21,7 5,4 7,11 7,20l0 44zm24 -69l72 0 0 75 11 0 0 37 -24 0 -1 -18 -54 0 -1 18 -23 0 0 -37 9 0c2,-3 4,-6 6,-10 1,-3 2,-7 2,-10l3 -55zm48 75l0 -56 -26 0 -2 33c0,6 -1,11 -4,17 -1,2 -2,4 -3,6l35 0zm129 19l-24 0 0 -38 -35 0 0 38 -24 0 0 -94 24 0 0 37 35 0 0 -37 24 0 0 94zm78 -69c0,-5 -2,-8 -8,-8l-23 0c-6,0 -8,3 -8,8l0 44c0,5 2,8 8,8l23 0c6,0 8,-3 8,-8l0 -44zm25 44c0,9 -2,16 -7,20 -4,5 -11,7 -20,7l-35 0c-9,0 -16,-2 -21,-7 -4,-4 -6,-11 -6,-20l0 -44c0,-9 2,-16 6,-20 5,-5 12,-7 21,-7l35 0c9,0 16,2 20,7 5,4 7,11 7,20l0 44zm73 25l0 -58 -33 58 -26 0 0 -94 24 0 0 58 33 -58 26 0 0 94 -24 0zm-25 -101c-12,0 -18,-6 -18,-18l0 -4 18 0 0 4c0,1 0,2 1,3 1,1 2,1 4,1l4 0c1,0 2,0 3,-1 1,-1 2,-2 2,-3l0 -4 17 0 0 4c0,12 -5,18 -17,18l-14 0zm107 7l55 0c9,0 15,2 19,6 5,4 7,10 7,18 0,5 -1,10 -4,13 -2,4 -5,6 -9,7 8,2 13,7 15,15 1,3 2,6 2,10 0,8 -2,15 -6,19 -5,4 -11,6 -20,6l-59 0 0 -94zm60 65c0,-6 -3,-9 -8,-9l-27 0 0 19 27 0c5,0 8,-2 8,-8l0 -2zm-4 -38c0,-6 -3,-8 -8,-8l-23 0 0 19 23 0c5,0 8,-3 8,-9l0 -2zm66 5l31 0c10,0 17,2 21,7 5,4 7,11 7,20l0 8c0,10 -2,17 -7,21 -4,4 -11,6 -21,6l-56 0 0 -94 25 0 0 32zm94 62l-24 0 0 -94 24 0 0 94zm-60 -35c0,-5 -3,-8 -8,-8l-26 0 0 24 26 0c5,0 8,-2 8,-8l0 -8zm151 34c-21,2 -37,3 -51,3 -9,0 -15,-2 -20,-7 -4,-4 -6,-10 -6,-19l0 -43c0,-10 2,-17 7,-21 4,-4 11,-6 21,-6l49 0 0 19 -44 0c-5,0 -8,2 -8,8l0 43c0,2 0,4 2,5 1,1 2,2 4,2 2,0 4,0 7,0 2,0 4,0 7,-1 2,0 5,0 7,0 3,0 6,0 10,0 4,-1 9,-1 15,-1l0 18zm57 1l-24 0 0 -75 -29 0 0 -19 82 0 0 19 -29 0 0 75zm46 0l-26 0 36 -94 27 0 37 94 -27 0 -6 -17 -34 0 -7 17zm13 -34l22 0 -11 -32 -11 32zm68 -60l54 0c9,0 16,2 20,6 4,4 6,10 6,18 0,5 -1,10 -3,13 -3,4 -5,6 -9,7 7,2 12,7 15,15 1,3 2,6 2,10 0,8 -3,15 -7,19 -4,4 -11,6 -20,6l-58 0 0 -94zm60 65c0,-6 -3,-9 -8,-9l-28 0 0 19 28 0c5,0 8,-2 8,-8l0 -2zm-4 -38c0,-6 -3,-8 -9,-8l-23 0 0 19 23 0c6,0 9,-3 9,-9l0 -2zm111 -29c2,0 6,1 12,2l0 18 -5 0c-2,0 -3,0 -4,1 -1,1 -2,2 -3,3l-13 24 27 48 -26 0 -21 -38 -12 0 0 38 -25 0 0 -94 25 0 0 37 12 0 14 -26c2,-4 4,-7 7,-9 3,-2 7,-4 12,-4zm106 96l-25 0 0 -58 -33 58 -26 0 0 -94 25 0 0 58 33 -58 26 0 0 94zm-2230 137l-13 12 -32 -35 32 -36 13 12 -20 24 20 23zm14 -23l21 23 -14 12 -32 -35 32 -36 14 12 -21 24zm114 -17l-19 33 -20 0 -19 -33 0 52 -24 0 0 -94 26 0 27 50 27 -50 26 0 0 94 -24 0 0 -52zm117 52l-76 0 0 -94 76 0 0 19 -51 0 0 18 40 0 0 19 -40 0 0 19 51 0 0 19zm36 -58l33 0c9,0 16,2 20,7 5,4 7,11 7,20l0 4c0,10 -2,17 -7,21 -4,4 -11,6 -20,6l-58 0 0 -94 76 0 0 19 -51 0 0 17zm35 27c0,-5 -2,-8 -8,-8l-27 0 0 20 27 0c6,0 8,-2 8,-8l0 -4zm113 31l-76 0 0 -94 76 0 0 19 -51 0 0 18 40 0 0 19 -40 0 0 19 51 0 0 19zm40 -19c0,6 -2,11 -6,15 -4,4 -9,6 -14,6 -6,0 -11,-1 -16,-2l0 -18 7 0c1,0 3,0 4,-2 1,-1 2,-2 2,-4l4 -70 76 0 0 94 -25 0 0 -75 -28 0 -4 56zm98 -43l33 0c10,0 17,2 21,7 4,4 6,11 6,20l0 8c0,10 -2,17 -6,21 -4,4 -11,6 -21,6l-58 0 0 -94 25 0 0 32zm36 27c0,-5 -3,-8 -8,-8l-28 0 0 24 28 0c5,0 8,-2 8,-8l0 -8zm161 35l-24 0 0 -58 -33 58 -26 0 0 -94 25 0 0 58 32 -58 26 0 0 94zm101 0l-25 0 0 -38 -34 0 0 38 -25 0 0 -94 25 0 0 37 34 0 0 -37 25 0 0 94zm63 0l-25 0 0 -75 -29 0 0 -19 82 0 0 19 -28 0 0 75zm114 0l-76 0 0 -94 76 0 0 19 -51 0 0 18 40 0 0 19 -40 0 0 19 51 0 0 19zm11 -94l58 0c9,0 16,2 20,6 5,4 7,11 7,21l0 13c0,10 -2,17 -7,21 -4,4 -11,6 -20,6l-33 0 0 27 -25 0 0 -94zm60 27c0,-6 -2,-8 -8,-8l-27 0 0 29 27 0c6,0 8,-2 8,-8l0 -13zm62 5l33 0c9,0 16,2 21,7 4,4 6,11 6,20l0 8c0,10 -2,17 -6,21 -5,4 -12,6 -21,6l-58 0 0 -94 25 0 0 32zm36 27c0,-5 -3,-8 -9,-8l-27 0 0 24 27 0c6,0 9,-2 9,-8l0 -8zm113 35l-76 0 0 -94 76 0 0 19 -52 0 0 18 41 0 0 19 -41 0 0 19 52 0 0 19zm11 -94l57 0c10,0 17,2 21,6 4,4 7,11 7,21l0 13c0,10 -3,17 -7,21 -4,4 -11,6 -21,6l-33 0 0 27 -24 0 0 -94zm60 27c0,-6 -3,-8 -8,-8l-28 0 0 29 28 0c5,0 8,-2 8,-8l0 -13zm92 -27l72 0 0 75 10 0 0 37 -23 0 -2 -18 -53 0 -1 18 -24 0 0 -37 9 0c3,-3 5,-6 6,-10 1,-3 2,-7 2,-10l4 -55zm47 75l0 -56 -25 0 -2 33c-1,6 -2,12 -4,17 -1,2 -3,5 -4,6l35 0zm130 19l-25 0 0 -58 -33 58 -26 0 0 -94 25 0 0 58 33 -58 26 0 0 94zm11 -19c23,1 39,2 49,2 2,0 4,-1 5,-2 1,-1 2,-3 2,-5l0 -5c0,-6 -3,-8 -8,-8l-33 0 0 -19 30 0c5,0 8,-3 8,-9l0 -2c0,-6 -3,-8 -8,-8l-44 0 0 -19 51 0c9,0 15,2 19,6 5,4 7,10 7,18 0,5 -2,10 -4,13 -3,4 -6,6 -10,7 7,2 12,7 15,15 1,3 1,6 1,10l0 1c0,9 -2,15 -6,20 -4,4 -11,6 -20,6 -15,0 -33,-1 -54,-3l0 -18zm110 19l-27 0 36 -94 28 0 36 94 -27 0 -6 -17 -34 0 -6 17zm12 -34l22 0 -11 -32 -11 32zm127 34l0 -58 -33 58 -26 0 0 -94 25 0 0 58 33 -58 26 0 0 94 -25 0zm-25 -101c-12,0 -18,-6 -18,-18l0 -4 18 0 0 4c0,1 1,2 2,3 1,1 2,1 3,1l4 0c2,0 3,0 4,-1 1,-1 1,-2 1,-3l0 -4 18 0 0 4c0,12 -6,18 -18,18l-14 0zm150 101l-25 0 0 -38 -34 0 0 38 -25 0 0 -94 25 0 0 37 34 0 0 -37 25 0 0 94zm11 -59l14 -12 31 36 -31 35 -14 -12 20 -23 -20 -24zm55 24l-21 -24 14 -12 31 36 -31 35 -14 -12 21 -23z"/>
   <path class="fil9" d="M367 6224l-27 0 37 -95 27 0 36 95 -26 0 -6 -17 -35 0 -6 17zm13 -35l21 0 -11 -32 -10 32zm137 -61c3,0 7,0 13,1l0 18 -6 0c-1,0 -3,1 -4,2 -1,0 -2,1 -2,2l-13 25 27 48 -26 0 -22 -39 -12 0 0 39 -25 0 0 -95 25 0 0 37 12 0 14 -25c2,-4 5,-7 8,-10 2,-2 6,-3 11,-3zm23 96l0 -95 25 0 0 76 34 0 0 -76 24 0 0 76 11 0 0 36 -24 0 -1 -17 -69 0zm188 0l-24 0 0 -58 -33 58 -26 0 0 -95 24 0 0 58 33 -58 26 0 0 95zm99 0l-25 0 0 -31 -18 0 -17 31 -26 0 17 -33c-5,-1 -10,-4 -12,-8 -3,-4 -4,-10 -4,-17l0 -10c0,-9 2,-16 7,-21 4,-4 11,-6 20,-6l58 0 0 95zm-60 -58c0,5 2,8 8,8l27 0 0 -26 -27 0c-6,0 -8,3 -8,8l0 10zm131 -37l72 0 0 76 11 0 0 36 -24 0 -1 -17 -54 0 -1 17 -23 0 0 -36 9 0c2,-3 4,-7 6,-10 1,-4 2,-7 2,-11l3 -55zm48 76l0 -57 -26 0 -2 34c0,5 -2,11 -4,16 -1,3 -2,5 -3,7l35 0zm122 19l-77 0 0 -95 77 0 0 19 -52 0 0 18 41 0 0 19 -41 0 0 20 52 0 0 19zm69 0l0 -58 -32 58 -26 0 0 -95 24 0 0 58 33 -58 26 0 0 95 -25 0zm-24 -102c-12,0 -18,-6 -18,-17l0 -4 18 0 0 3c0,1 0,3 1,3 1,1 2,2 4,2l4 0c1,0 2,-1 3,-2 1,0 1,-2 1,-3l0 -3 18 0 0 4c0,11 -6,17 -18,17l-13 0zm140 100c-21,2 -38,3 -51,3 -9,0 -16,-2 -20,-6 -4,-4 -6,-11 -6,-20l0 -43c0,-9 2,-16 6,-21 5,-4 12,-6 21,-6l50 0 0 19 -44 0c-6,0 -9,3 -9,8l0 43c0,2 1,4 2,5 2,2 3,2 5,2 2,0 4,0 6,0 3,0 5,0 7,0 3,0 5,0 8,0 2,-1 6,-1 10,-1 4,0 9,-1 15,-1l0 18zm57 2l-25 0 0 -76 -28 0 0 -19 82 0 0 19 -29 0 0 76zm39 -95l54 0c9,0 16,2 20,6 4,4 6,10 6,18 0,6 -1,10 -3,14 -3,3 -5,5 -9,7 7,2 12,7 15,14 1,3 1,6 1,10 0,9 -2,15 -6,19 -4,5 -11,7 -20,7l-58 0 0 -95zm60 65c0,-5 -3,-8 -8,-8l-28 0 0 19 28 0c5,0 8,-3 8,-8l0 -3zm-4 -38c0,-5 -3,-8 -9,-8l-23 0 0 19 23 0c6,0 9,-3 9,-8l0 -3zm61 69c-4,0 -9,0 -14,-1l0 -19 12 0c3,0 5,-1 6,-3 0,-1 0,-2 0,-3 0,-1 0,-2 0,-2l-38 -68 28 0 24 48 21 -48 27 0 -35 74c-3,8 -7,13 -11,16 -5,4 -12,6 -20,6zm148 -1l-76 0 0 -95 76 0 0 19 -52 0 0 18 41 0 0 19 -41 0 0 20 52 0 0 19zm57 0l-24 0 0 -76 -29 0 0 -19 82 0 0 19 -29 0 0 76zm80 -95l55 0c9,0 15,2 19,6 5,4 7,10 7,18 0,6 -2,10 -4,14 -2,3 -5,5 -9,7 8,2 13,7 15,14 1,3 2,6 2,10 0,9 -2,15 -7,19 -4,5 -10,7 -19,7l-59 0 0 -95zm60 65c0,-5 -3,-8 -8,-8l-28 0 0 19 28 0c5,0 8,-3 8,-8l0 -3zm-4 -38c0,-5 -3,-8 -8,-8l-24 0 0 19 24 0c5,0 8,-3 8,-8l0 -3zm82 -27l58 0c9,0 16,2 21,6 4,5 6,12 6,21l0 14c0,9 -2,16 -6,20 -5,5 -12,7 -21,7l-33 0 0 27 -25 0 0 -95zm61 27c0,-5 -3,-8 -9,-8l-27 0 0 30 27 0c6,0 9,-3 9,-8l0 -14zm45 68l-26 0 36 -95 27 0 37 95 -27 0 -6 -17 -34 0 -7 17zm13 -35l22 0 -11 -32 -11 32zm150 -18l-19 34 -20 0 -19 -34 0 53 -24 0 0 -95 26 0 27 50 27 -50 27 0 0 95 -25 0 0 -53zm111 -43c2,0 6,0 12,1l0 18 -5 0c-2,0 -3,1 -4,2 -1,0 -2,1 -2,2l-13 25 26 48 -26 0 -21 -39 -12 0 0 39 -25 0 0 -95 25 0 0 37 12 0 14 -25c2,-4 4,-7 7,-10 3,-2 7,-3 12,-3zm40 96l-27 0 36 -95 28 0 36 95 -27 0 -6 -17 -34 0 -6 17zm12 -35l22 0 -11 -32 -11 32zm123 -60l28 0 -31 47 31 48 -27 0 -19 -30 -19 30 -28 0 32 -48 -31 -47 27 0 19 30 18 -30zm160 95l-25 0 0 -76 -34 0 0 76 -25 0 0 -95 84 0 0 95zm16 -95l58 0c10,0 17,2 21,6 4,5 6,12 6,21l0 14c0,9 -2,16 -6,20 -4,5 -11,7 -21,7l-33 0 0 27 -25 0 0 -95zm61 27c0,-5 -3,-8 -9,-8l-27 0 0 30 27 0c6,0 9,-3 9,-8l0 -14zm98 -1c0,-6 -2,-8 -8,-8l-23 0c-6,0 -8,2 -8,8l0 43c0,5 2,8 8,8l23 0c6,0 8,-3 8,-8l0 -43zm25 43c0,9 -2,16 -6,21 -5,4 -12,6 -21,6l-35 0c-9,0 -16,-2 -21,-6 -4,-5 -6,-12 -6,-21l0 -43c0,-10 2,-17 6,-21 5,-4 12,-6 21,-6l35 0c9,0 16,2 21,6 4,4 6,11 6,21l0 43zm14 -69l55 0c9,0 15,2 19,6 5,4 7,10 7,18 0,6 -2,10 -4,14 -2,3 -5,5 -9,7 8,2 13,7 15,14 1,3 2,6 2,10 0,9 -2,15 -7,19 -4,5 -10,7 -19,7l-59 0 0 -95zm60 65c0,-5 -3,-8 -8,-8l-28 0 0 19 28 0c5,0 8,-3 8,-8l0 -3zm-4 -38c0,-5 -3,-8 -8,-8l-24 0 0 19 24 0c5,0 8,-3 8,-8l0 -3zm117 68l-76 0 0 -95 76 0 0 19 -51 0 0 18 40 0 0 19 -40 0 0 20 51 0 0 19zm25 -95l72 0 0 76 10 0 0 36 -23 0 -2 -17 -53 0 -1 17 -24 0 0 -36 9 0c3,-3 5,-7 6,-10 1,-4 2,-7 2,-11l4 -55zm47 76l0 -57 -25 0 -2 34c-1,5 -2,11 -4,16 -1,3 -3,5 -4,7l35 0zm122 19l-76 0 0 -95 76 0 0 19 -51 0 0 18 40 0 0 19 -40 0 0 20 51 0 0 19zm95 0l-25 0 0 -39 -34 0 0 39 -25 0 0 -95 25 0 0 37 34 0 0 -37 25 0 0 95zm100 0l-25 0 0 -58 -33 58 -26 0 0 -95 25 0 0 58 33 -58 26 0 0 95zm98 0l-24 0 0 -31 -19 0 -17 31 -26 0 18 -33c-6,-1 -10,-4 -13,-8 -2,-4 -4,-10 -4,-17l0 -10c0,-9 3,-16 7,-21 4,-4 11,-6 21,-6l57 0 0 95zm-60 -58c0,5 3,8 8,8l28 0 0 -26 -28 0c-5,0 -8,3 -8,8l0 10zm-2617 151c0,8 -4,14 -10,20 -2,2 -4,3 -7,5l-29 21 46 0 0 19 -74 0 0 -26 49 -35 0 -7c0,-5 -3,-8 -8,-8l-39 0 0 -19 44 0c10,0 17,2 21,7 4,4 7,11 7,20l0 3zm13 45c19,2 32,2 40,2 2,0 4,0 5,-2 1,-1 2,-2 2,-4l0 -13c-9,2 -17,3 -23,3l-10 0c-6,0 -11,-2 -15,-5 -4,-4 -6,-9 -6,-15l0 -18c0,-8 3,-14 7,-18 4,-4 11,-6 20,-6l26 0c9,0 15,2 19,6 4,4 7,10 7,18l0 48c0,8 -3,15 -7,19 -4,4 -10,6 -19,6 -13,0 -28,-1 -46,-2l0 -19zm30 -33c6,0 11,0 17,-1l0 -15c0,-5 -3,-8 -8,-8l-13 0c-5,0 -8,3 -8,8l0 11c0,2 1,3 2,4 0,1 2,1 3,1l7 0zm179 0l-20 34 -19 0 -19 -34 0 53 -25 0 0 -95 26 0 28 50 27 -50 26 0 0 95 -24 0 0 -53zm117 53l-76 0 0 -95 76 0 0 19 -52 0 0 18 41 0 0 19 -41 0 0 20 52 0 0 19zm127 -96c2,0 6,0 12,1l0 18 -6 0c-1,0 -2,1 -3,2 -1,1 -2,2 -3,3l-13 24 27 48 -26 0 -21 -39 -10 0 0 39 -25 0 0 -39 -9 0 -21 39 -26 0 26 -48 -13 -24c0,-1 -1,-2 -2,-3 -1,-1 -3,-2 -4,-2l-5 0 0 -18c6,-1 10,-1 12,-1 5,0 9,1 12,3 3,3 5,6 7,10l14 25 9 0 0 -37 25 0 0 37 10 0 13 -25c2,-4 5,-7 8,-10 3,-2 7,-3 12,-3zm36 1l72 0 0 76 10 0 0 36 -23 0 -2 -17 -53 0 -1 17 -24 0 0 -36 9 0c3,-3 5,-6 6,-10 2,-4 2,-7 3,-10l3 -56zm47 76l0 -57 -25 0 -2 34c0,5 -2,11 -4,17 -1,2 -2,4 -4,6l35 0zm66 20c-4,0 -9,0 -14,-1l0 -18 13 0c2,0 4,-1 5,-3 1,-1 1,-2 1,-3 0,-1 0,-2 -1,-3l-38 -68 28 0 25 48 20 -48 27 0 -34 75c-4,7 -8,12 -12,16 -5,3 -11,5 -20,5zm156 -1l-25 0 0 -39 -34 0 0 39 -25 0 0 -95 25 0 0 37 34 0 0 -37 25 0 0 95zm33 0l-27 0 37 -95 27 0 36 95 -26 0 -6 -17 -35 0 -6 17zm12 -35l22 0 -11 -31 -11 31zm68 -60l58 0c9,0 16,2 21,7 4,4 6,11 6,20l0 14c0,9 -2,16 -6,20 -5,5 -12,7 -21,7l-33 0 0 27 -25 0 0 -95zm61 27c0,-5 -3,-8 -9,-8l-27 0 0 30 27 0c6,0 9,-3 9,-8l0 -14zm98 -1c0,-5 -2,-8 -8,-8l-23 0c-6,0 -8,3 -8,8l0 43c0,6 2,8 8,8l23 0c6,0 8,-2 8,-8l0 -43zm25 43c0,10 -2,17 -7,21 -4,4 -11,6 -20,6l-35 0c-9,0 -16,-2 -21,-6 -4,-4 -6,-11 -6,-21l0 -43c0,-10 2,-16 6,-21 5,-4 12,-6 21,-6l35 0c9,0 16,2 20,6 5,5 7,11 7,21l0 43zm25 -69l72 0 0 76 10 0 0 36 -23 0 -2 -17 -53 0 -2 17 -23 0 0 -36 9 0c3,-3 5,-6 6,-10 1,-4 2,-7 2,-10l4 -56zm47 76l0 -57 -25 0 -2 34c-1,5 -2,11 -5,17 -1,2 -2,4 -3,6l35 0zm129 19l-24 0 0 -39 -34 0 0 39 -25 0 0 -95 25 0 0 37 34 0 0 -37 24 0 0 95zm79 -69c0,-5 -3,-8 -9,-8l-23 0c-5,0 -8,3 -8,8l0 43c0,6 3,8 8,8l23 0c6,0 9,-2 9,-8l0 -43zm24 43c0,10 -2,17 -6,21 -5,4 -12,6 -21,6l-34 0c-10,0 -17,-2 -21,-6 -5,-4 -7,-11 -7,-21l0 -43c0,-10 2,-16 7,-21 4,-4 11,-6 21,-6l34 0c9,0 16,2 21,6 4,5 6,11 6,21l0 43zm73 26l0 -58 -33 58 -26 0 0 -95 25 0 0 58 33 -58 26 0 0 95 -25 0zm-25 -102c-12,0 -18,-5 -18,-17l0 -4 18 0 0 3c0,2 1,3 2,4 1,1 2,1 3,1l4 0c2,0 3,0 4,-1 0,-1 1,-2 1,-4l0 -3 18 0 0 4c0,12 -6,17 -18,17l-14 0zm107 7l55 0c9,0 15,2 20,6 4,4 6,10 6,19 0,5 -1,9 -4,13 -2,3 -5,6 -8,7 7,2 12,7 15,14 1,3 1,7 1,10 0,9 -2,16 -6,20 -4,4 -11,6 -20,6l-59 0 0 -95zm60 65c0,-5 -2,-8 -8,-8l-27 0 0 19 27 0c6,0 8,-3 8,-8l0 -3zm-4 -38c0,-5 -2,-8 -8,-8l-23 0 0 19 23 0c6,0 8,-3 8,-8l0 -3zm66 6l32 0c9,0 16,2 21,6 4,4 6,11 6,21l0 8c0,9 -2,16 -6,20 -5,5 -12,7 -21,7l-57 0 0 -95 25 0 0 33zm95 62l-25 0 0 -95 25 0 0 95zm-61 -35c0,-6 -2,-8 -8,-8l-26 0 0 24 26 0c6,0 8,-3 8,-8l0 -8zm151 34c-20,1 -37,2 -51,2 -9,0 -15,-2 -19,-6 -5,-4 -7,-11 -7,-19l0 -44c0,-9 3,-16 7,-20 4,-5 11,-7 21,-7l49 0 0 19 -44 0c-5,0 -8,3 -8,8l0 44c0,2 1,3 2,4 1,2 3,2 5,2 2,0 4,0 6,0 2,0 5,0 7,0 3,0 5,0 8,0 2,0 5,0 9,-1 4,0 9,0 15,-1l0 19zm58 1l-25 0 0 -76 -29 0 0 -19 82 0 0 19 -28 0 0 76zm46 0l-27 0 36 -95 28 0 36 95 -27 0 -6 -17 -34 0 -6 17zm12 -35l22 0 -11 -31 -11 31zm68 -60l55 0c9,0 15,2 19,6 5,4 7,10 7,19 0,5 -2,9 -4,13 -2,3 -5,6 -9,7 8,2 13,7 15,14 1,3 2,7 2,10 0,9 -2,16 -7,20 -4,4 -10,6 -19,6l-59 0 0 -95zm60 65c0,-5 -3,-8 -8,-8l-28 0 0 19 28 0c5,0 8,-3 8,-8l0 -3zm-4 -38c0,-5 -3,-8 -8,-8l-24 0 0 19 24 0c5,0 8,-3 8,-8l0 -3zm111 -28c2,0 6,0 12,1l0 18 -5 0c-2,0 -3,1 -4,2 -1,1 -2,2 -2,3l-13 24 26 48 -26 0 -21 -39 -12 0 0 39 -25 0 0 -95 25 0 0 37 12 0 14 -25c2,-4 4,-7 7,-10 3,-2 7,-3 12,-3zm106 96l-24 0 0 -58 -33 58 -26 0 0 -95 24 0 0 58 33 -58 26 0 0 95zm-2229 137l-14 12 -32 -36 32 -36 14 12 -21 24 21 24zm13 -24l21 24 -14 12 -31 -36 31 -36 14 12 -21 24zm114 -17l-19 34 -19 0 -19 -34 0 53 -25 0 0 -95 26 0 27 50 28 -50 26 0 0 95 -25 0 0 -53zm117 53l-76 0 0 -95 76 0 0 19 -51 0 0 19 40 0 0 18 -40 0 0 20 51 0 0 19zm36 -58l33 0c9,0 16,2 21,6 4,5 6,11 6,21l0 4c0,9 -2,16 -6,21 -5,4 -12,6 -21,6l-58 0 0 -95 76 0 0 19 -51 0 0 18zm36 27c0,-6 -3,-8 -9,-8l-27 0 0 20 27 0c6,0 9,-3 9,-8l0 -4zm113 31l-76 0 0 -95 76 0 0 19 -52 0 0 19 41 0 0 18 -41 0 0 20 52 0 0 19zm39 -20c0,7 -2,12 -6,16 -4,3 -8,5 -14,5 -5,0 -10,0 -15,-1l0 -18 6 0c2,0 3,-1 4,-2 1,-1 2,-3 2,-4l4 -71 76 0 0 95 -24 0 0 -76 -29 0 -4 56zm98 -42l33 0c10,0 17,2 21,6 5,4 7,11 7,21l0 8c0,9 -2,16 -7,21 -4,4 -11,6 -21,6l-57 0 0 -95 24 0 0 33zm36 27c0,-6 -3,-8 -8,-8l-28 0 0 24 28 0c5,0 8,-3 8,-8l0 -8zm162 35l-25 0 0 -58 -33 58 -26 0 0 -95 25 0 0 58 33 -58 26 0 0 95zm100 0l-25 0 0 -39 -34 0 0 39 -25 0 0 -95 25 0 0 38 34 0 0 -38 25 0 0 95zm63 0l-25 0 0 -76 -29 0 0 -19 83 0 0 19 -29 0 0 76zm114 0l-76 0 0 -95 76 0 0 19 -51 0 0 19 40 0 0 18 -40 0 0 20 51 0 0 19zm11 -95l58 0c9,0 16,2 21,7 4,4 6,11 6,20l0 14c0,9 -2,16 -6,21 -5,4 -12,6 -21,6l-33 0 0 27 -25 0 0 -95zm61 27c0,-5 -3,-8 -9,-8l-27 0 0 30 27 0c6,0 9,-3 9,-8l0 -14zm61 6l33 0c10,0 17,2 21,6 4,4 7,11 7,21l0 8c0,9 -3,16 -7,21 -4,4 -11,6 -21,6l-57 0 0 -95 24 0 0 33zm36 27c0,-6 -3,-8 -8,-8l-28 0 0 24 28 0c5,0 8,-3 8,-8l0 -8zm113 35l-76 0 0 -95 76 0 0 19 -51 0 0 19 40 0 0 18 -40 0 0 20 51 0 0 19zm11 -95l57 0c10,0 17,2 21,7 5,4 7,11 7,20l0 14c0,9 -2,16 -7,21 -4,4 -11,6 -21,6l-32 0 0 27 -25 0 0 -95zm60 27c0,-5 -3,-8 -8,-8l-27 0 0 30 27 0c5,0 8,-3 8,-8l0 -14zm92 -27l72 0 0 76 10 0 0 37 -23 0 -1 -18 -54 0 -1 18 -24 0 0 -37 9 0c3,-3 5,-6 6,-10 2,-4 2,-7 3,-10l3 -56zm47 76l0 -57 -25 0 -2 34c0,6 -2,11 -4,17 -1,2 -2,4 -4,6l35 0zm130 19l-25 0 0 -58 -33 58 -26 0 0 -95 25 0 0 58 33 -58 26 0 0 95zm11 -20c23,2 40,2 49,2 2,0 4,0 5,-1 1,-2 2,-3 2,-5l0 -6c0,-5 -3,-8 -8,-8l-33 0 0 -19 30 0c6,0 8,-3 8,-8l0 -3c0,-5 -2,-8 -8,-8l-44 0 0 -19 51 0c9,0 15,2 20,6 4,4 6,10 6,19 0,5 -1,9 -4,13 -2,3 -6,6 -10,7 8,2 13,7 15,15 1,2 2,6 2,9l0 2c0,8 -2,15 -7,19 -4,4 -10,6 -19,6 -16,0 -34,-1 -55,-2l0 -19zm110 20l-27 0 37 -95 27 0 36 95 -26 0 -6 -17 -35 0 -6 17zm12 -34l22 0 -11 -32 -11 32zm127 34l0 -58 -33 58 -26 0 0 -95 25 0 0 58 33 -58 26 0 0 95 -25 0zm-24 -101c-12,0 -18,-6 -18,-18l0 -4 18 0 0 3c0,2 0,3 1,4 1,1 2,1 3,1l4 0c2,0 3,0 4,-1 1,-1 1,-2 1,-4l0 -3 18 0 0 4c0,12 -6,18 -18,18l-13 0zm149 101l-25 0 0 -39 -34 0 0 39 -25 0 0 -95 25 0 0 38 34 0 0 -38 25 0 0 95zm11 -60l14 -12 31 36 -31 36 -14 -12 21 -24 -21 -24zm55 24l-21 -24 14 -12 32 36 -32 36 -14 -12 21 -24z"/>
   <path class="fil3 str1" d="M18 6000l3762 -503"/>
  </g>
 </g>
</svg>
