<?xml version="1.0" encoding="UTF-8"?>
<!DOCTYPE svg PUBLIC "-//W3C//DTD SVG 1.1//EN" "http://www.w3.org/Graphics/SVG/1.1/DTD/svg11.dtd">
<!-- Creator: CorelDRAW X8 -->
<svg xmlns="http://www.w3.org/2000/svg" xml:space="preserve" width="1920px" height="900px" version="1.1" style="shape-rendering:geometricPrecision; text-rendering:geometricPrecision; image-rendering:optimizeQuality; fill-rule:evenodd; clip-rule:evenodd"
viewBox="0 0 1920 900"
 xmlns:xlink="http://www.w3.org/1999/xlink">
 <defs>
  <style type="text/css">
   <![CDATA[
    .str0 {stroke:#193153;stroke-width:5;stroke-dasharray:25.000000 15.000000}
    .fil3 {fill:none}
    .fil9 {fill:#01B355}
    .fil5 {fill:#193153}
    .fil0 {fill:#EA5471}
    .fil2 {fill:#F7F7F7}
    .fil10 {fill:#F9EF1B}
    .fil8 {fill:#FA423A}
    .fil6 {fill:white}
    .fil1 {fill:white}
    .fil4 {fill:#193153;fill-rule:nonzero}
    .fil11 {fill:#EA5471;fill-rule:nonzero}
    .fil7 {fill:white;fill-rule:nonzero}
   ]]>
  </style>
 </defs>
 <g id="Слой_x0020_1">
  <metadata id="CorelCorpID_0Corel-Layer"/>
  <g id="_2885086760224">
   <rect class="fil0" width="1920" height="900"/>
   <path class="fil1" d="M10 0l1 0 -11 10 0 -1 10 -9zm1906 900l-1 0 5 -5 0 1 -4 4zm-32 0l-1 0 37 -33 0 1 -36 32zm-31 0l-1 0 68 -61 0 1 -67 60zm-32 0l-1 0 100 -89 0 1 -99 88zm-36 0l-1 0 -98 -88 -99 88 -1 0 100 -89 99 89zm-31 0l-1 0 -67 -60 -67 60 -1 0 68 -61 68 61zm-32 0l0 0 -36 -32 -36 32 -1 0 37 -33 36 33zm-31 0l-1 0 -4 -4 -4 4 -1 0 5 -5 5 5zm-140 0l-1 0 -98 -88 -99 88 -1 0 100 -89 99 89zm-31 0l-1 0 -67 -60 -67 60 -1 0 68 -61 68 61zm-32 0l0 0 -36 -32 -36 32 -1 0 37 -33 36 33zm-31 0l-1 0 -4 -4 -4 4 -1 0 5 -5 5 5zm-140 0l-1 0 -98 -88 -99 88 0 0 99 -89 99 89zm-31 0l-1 0 -67 -60 -67 60 -1 0 68 -61 68 61zm-31 0l-1 0 -36 -32 -36 32 -1 0 37 -33 37 33zm-32 0l-1 0 -4 -4 -4 4 -1 0 5 -5 5 5zm-140 0l0 0 -99 -88 -98 88 -1 0 99 -89 99 89zm-31 0l-1 0 -67 -60 -67 60 -1 0 68 -61 68 61zm-31 0l-1 0 -36 -32 -36 32 -1 0 37 -33 37 33zm-32 0l-1 0 -4 -4 -4 4 -1 0 5 -5 5 5zm-140 0l0 0 -99 -88 -98 88 -1 0 99 -89 99 89zm-31 0l-1 0 -67 -60 -67 60 -1 0 68 -61 68 61zm-31 0l-1 0 -36 -32 -36 32 0 0 36 -33 37 33zm-32 0l-1 0 -4 -4 -4 4 -1 0 5 -5 5 5zm-139 0l-1 0 -99 -88 -98 88 -1 0 99 -89 100 89zm-32 0l-1 0 -67 -60 -67 60 -1 0 68 -61 68 61zm-31 0l-1 0 -36 -32 -36 32 0 0 36 -33 37 33zm-32 0l-1 0 -4 -4 -4 4 -1 0 5 -5 5 5zm-139 0l-1 0 -99 -88 -98 88 -1 0 99 -89 100 89zm-32 0l-1 0 -67 -60 -67 60 -1 0 68 -61 68 61zm-31 0l-1 0 -36 -32 -35 32 -1 0 36 -33 37 33zm-32 0l-1 0 -4 -4 -4 4 -1 0 5 -5 5 5zm-139 0l-1 0 -99 -88 -48 43 0 -1 48 -43 100 89zm-32 0l-1 0 -67 -60 -48 43 0 -1 48 -43 68 61zm-31 0l-1 0 -36 -32 -35 32 -1 0 36 -33 37 33zm-32 0l-1 0 -4 -4 -4 4 -1 0 5 -5 5 5zm-53 -73l0 -1 48 -43 117 105 0 0 -117 -104 -48 43zm0 -28l0 -1 48 -43 117 104 0 1 -117 -105 -48 44zm0 -29l0 -1 48 -43 117 105 0 1 -117 -105 -48 43zm0 -28l0 -1 48 -43 117 105 0 1 -117 -105 -48 43zm0 -28l0 -1 48 -43 117 105 0 1 -117 -105 -48 43zm0 -28l0 -1 48 -43 117 105 0 1 -117 -105 -48 43zm0 -28l0 -1 48 -43 117 104 0 1 -117 -104 -48 43zm0 -29l0 0 48 -43 117 104 0 1 -117 -105 -48 43zm0 -28l0 -1 48 -43 117 105 0 1 -117 -105 -48 43zm0 -28l0 -1 48 -43 117 105 0 1 -117 -105 -48 43zm0 -28l0 -1 48 -43 117 105 0 1 -117 -105 -48 43zm0 -28l0 -1 48 -43 117 105 0 0 -117 -104 -48 43zm0 -28l0 -1 48 -43 117 104 0 1 -117 -104 -48 43zm0 -29l0 0 48 -44 117 105 0 1 -117 -105 -48 43zm0 -28l0 -1 48 -43 117 105 0 1 -117 -105 -48 43zm0 -28l0 -1 48 -43 117 105 0 1 -117 -105 -48 43zm0 -28l0 -1 48 -43 117 105 0 1 -117 -105 -48 43zm0 -28l0 -1 48 -43 117 105 0 0 -117 -104 -48 43zm0 -28l0 -1 48 -43 117 104 0 1 -117 -105 -48 44zm0 -29l0 0 48 -44 117 105 0 1 -117 -105 -48 43zm0 -28l0 -1 48 -43 117 105 0 1 -117 -105 -48 43zm0 -28l0 -1 48 -43 117 105 0 1 -117 -105 -48 43zm0 -28l0 -1 48 -43 117 105 0 1 -117 -105 -48 43zm0 -28l0 -1 48 -43 117 104 0 1 -117 -104 -48 43zm0 -28l0 -1 48 -43 117 104 0 1 -117 -105 -48 44zm0 -29l0 -1 48 -43 117 105 0 1 -117 -105 -48 43zm0 -28l0 -1 48 -43 117 105 0 1 -117 -105 -48 43zm0 -28l0 -1 48 -43 117 105 0 1 -117 -105 -48 43zm0 -28l0 -1 41 -37 1 0 -42 38zm54 -38l1 0 110 99 0 0 -111 -99zm31 0l1 0 79 70 0 1 -80 -71zm32 0l1 0 47 42 0 1 -48 -43zm31 0l1 0 16 14 0 1 -17 -15zm33 0l1 0 -17 15 0 -1 16 -14zm31 0l1 0 -48 43 0 -1 47 -42zm32 0l1 0 -80 71 0 -1 79 -70zm31 0l1 0 -111 99 0 0 110 -99zm13 0l1 0 110 99 0 0 -111 -99zm31 0l1 0 79 70 0 1 -80 -71zm32 0l1 0 47 42 0 1 -48 -43zm31 0l1 0 16 14 0 1 -17 -15zm33 0l1 0 -17 15 0 -1 16 -14zm31 0l1 0 -48 43 0 -1 47 -42zm32 0l1 0 -80 71 0 -1 79 -70zm31 0l1 0 -111 99 0 0 110 -99zm13 0l1 0 110 99 0 0 -111 -99zm31 0l1 0 79 70 0 1 -80 -71zm32 0l1 0 47 42 0 1 -48 -43zm31 0l1 0 16 14 0 1 -17 -15zm33 0l1 0 -17 15 0 -1 16 -14zm31 0l1 0 -48 43 0 -1 47 -42zm32 0l1 0 -80 71 0 -1 79 -70zm31 0l1 0 -111 99 0 0 110 -99zm13 0l1 0 110 99 0 0 -111 -99zm31 0l1 0 79 70 0 1 -80 -71zm32 0l1 0 47 42 0 1 -48 -43zm31 0l1 0 16 14 0 1 -17 -15zm33 0l1 0 -17 15 0 -1 16 -14zm31 0l1 0 -48 43 0 -1 47 -42zm32 0l1 0 -80 71 0 -1 79 -70zm31 0l1 0 -111 99 0 0 110 -99zm13 0l1 0 110 99 0 0 -111 -99zm31 0l1 0 79 70 0 1 -80 -71zm32 0l1 0 47 42 0 1 -48 -43zm31 0l1 0 16 14 0 1 -17 -15zm33 0l1 0 -17 15 0 -1 16 -14zm31 0l1 0 -48 43 0 -1 47 -42zm32 0l1 0 -80 71 0 -1 79 -70zm31 0l1 0 -111 99 0 0 110 -99zm13 0l1 0 110 99 0 0 -111 -99zm31 0l1 0 79 70 0 1 -80 -71zm32 0l1 0 47 42 0 1 -48 -43zm31 0l1 0 16 14 0 1 -17 -15zm33 0l1 0 -17 15 0 -1 16 -14zm31 0l1 0 -48 43 0 -1 47 -42zm32 0l1 0 -80 71 0 -1 79 -70zm31 0l1 0 -111 99 0 0 110 -99zm13 0l1 0 110 99 0 0 -111 -99zm31 0l1 0 79 70 0 1 -80 -71zm32 0l1 0 47 42 0 1 -48 -43zm31 0l1 0 16 14 0 1 -17 -15zm33 0l1 0 -17 15 0 -1 16 -14zm31 0l1 0 -48 43 0 -1 47 -42zm32 0l1 0 -80 71 0 -1 79 -70zm31 0l1 0 -111 99 0 0 110 -99zm13 0l1 0 110 99 0 0 -111 -99zm31 0l1 0 79 70 0 1 -80 -71zm32 0l1 0 47 42 0 1 -48 -43zm31 0l1 0 16 14 0 1 -17 -15zm33 0l1 0 -17 15 0 -1 16 -14zm31 0l1 0 -48 43 0 -1 47 -42zm32 0l1 0 -80 71 0 -1 79 -70zm31 0l1 0 -111 99 0 0 110 -99zm7 22l0 1 -117 105 0 -1 117 -105zm0 28l0 1 -117 105 0 -1 117 -105zm0 28l0 1 -117 105 0 -1 117 -105zm0 29l0 0 -117 105 0 -1 117 -104zm0 28l0 1 -117 104 0 -1 117 -104zm0 28l0 1 -117 105 0 -1 117 -105zm0 28l0 1 -117 105 0 -1 117 -105zm0 28l0 1 -117 105 0 -1 117 -105zm0 28l0 1 -117 105 0 -1 117 -105zm0 29l0 0 -117 105 0 -1 117 -104zm0 28l0 1 -117 104 0 0 117 -105zm0 28l0 1 -117 105 0 -1 117 -105zm0 28l0 1 -117 105 0 -1 117 -105zm0 28l0 1 -117 105 0 -1 117 -105zm0 28l0 1 -117 105 0 -1 117 -105zm0 29l0 1 -117 104 0 -1 117 -104zm0 28l0 1 -117 104 0 0 117 -105zm0 28l0 1 -117 105 0 -1 117 -105zm0 28l0 1 -117 105 0 -1 117 -105zm0 28l0 1 -117 105 0 -1 117 -105zm0 29l0 0 -117 105 0 -1 117 -104zm0 28l0 1 -117 104 0 -1 117 -104zm0 28l0 1 -117 105 0 -1 117 -105zm0 28l0 1 -117 105 0 -1 117 -105zm0 28l0 1 -117 105 0 -1 117 -105zm0 28l0 1 -117 105 0 -1 117 -105zm0 29l0 0 -117 105 0 -1 117 -104zm0 28l0 1 -117 104 0 0 117 -105zm-234 -760l-117 105 0 -1 117 -105 117 105 0 1 -117 -105zm0 28l-117 105 0 -1 117 -105 117 105 0 1 -117 -105zm0 28l-117 105 0 -1 117 -105 117 105 0 1 -117 -105zm0 28l-117 105 0 -1 117 -104 117 104 0 1 -117 -105zm0 29l-117 104 0 -1 117 -104 117 104 0 1 -117 -104zm0 28l-117 105 0 -1 117 -105 117 105 0 1 -117 -105zm0 28l-117 105 0 -1 117 -105 117 105 0 1 -117 -105zm0 28l-117 105 0 -1 117 -105 117 105 0 1 -117 -105zm0 28l-117 105 0 -1 117 -105 117 105 0 1 -117 -105zm0 28l-117 105 0 -1 117 -104 117 104 0 1 -117 -105zm0 29l-117 104 0 0 117 -105 117 105 0 0 -117 -104zm0 28l-117 105 0 -1 117 -105 117 105 0 1 -117 -105zm0 28l-117 105 0 -1 117 -105 117 105 0 1 -117 -105zm0 28l-117 105 0 -1 117 -105 117 105 0 1 -117 -105zm0 28l-117 105 0 -1 117 -105 117 105 0 1 -117 -105zm0 29l-117 104 0 -1 117 -104 117 104 0 1 -117 -104zm0 28l-117 104 0 0 117 -105 117 105 0 0 -117 -104zm0 28l-117 105 0 -1 117 -105 117 105 0 1 -117 -105zm0 28l-117 105 0 -1 117 -105 117 105 0 1 -117 -105zm0 28l-117 105 0 -1 117 -105 117 105 0 1 -117 -105zm0 28l-117 105 0 -1 117 -104 117 104 0 1 -117 -105zm0 29l-117 104 0 -1 117 -104 117 104 0 1 -117 -104zm0 28l-117 105 0 -1 117 -105 117 105 0 1 -117 -105zm0 28l-117 105 0 -1 117 -105 117 105 0 1 -117 -105zm0 28l-117 105 0 -1 117 -105 117 105 0 1 -117 -105zm0 28l-117 105 0 -1 117 -105 117 105 0 1 -117 -105zm0 28l-117 105 0 -1 117 -104 117 104 0 1 -117 -105zm0 29l-117 104 0 0 117 -105 117 105 0 0 -117 -104zm-234 -761l-117 105 0 -1 117 -105 117 105 0 1 -117 -105zm0 28l-117 105 0 -1 117 -105 117 105 0 1 -117 -105zm0 28l-117 105 0 -1 117 -105 117 105 0 1 -117 -105zm0 28l-117 105 0 -1 117 -104 117 104 0 1 -117 -105zm0 29l-117 104 0 -1 117 -104 117 104 0 1 -117 -104zm0 28l-117 105 0 -1 117 -105 117 105 0 1 -117 -105zm0 28l-117 105 0 -1 117 -105 117 105 0 1 -117 -105zm0 28l-117 105 0 -1 117 -105 117 105 0 1 -117 -105zm0 28l-117 105 0 -1 117 -105 117 105 0 1 -117 -105zm0 28l-117 105 0 -1 117 -104 117 104 0 1 -117 -105zm0 29l-117 104 0 0 117 -105 117 105 0 0 -117 -104zm0 28l-117 105 0 -1 117 -105 117 105 0 1 -117 -105zm0 28l-117 105 0 -1 117 -105 117 105 0 1 -117 -105zm0 28l-117 105 0 -1 117 -105 117 105 0 1 -117 -105zm0 28l-117 105 0 -1 117 -105 117 105 0 1 -117 -105zm0 29l-117 104 0 -1 117 -104 117 104 0 1 -117 -104zm0 28l-117 104 0 0 117 -105 117 105 0 0 -117 -104zm0 28l-117 105 0 -1 117 -105 117 105 0 1 -117 -105zm0 28l-117 105 0 -1 117 -105 117 105 0 1 -117 -105zm0 28l-117 105 0 -1 117 -105 117 105 0 1 -117 -105zm0 28l-117 105 0 -1 117 -104 117 104 0 1 -117 -105zm0 29l-117 104 0 -1 117 -104 117 104 0 1 -117 -104zm0 28l-117 105 0 -1 117 -105 117 105 0 1 -117 -105zm0 28l-117 105 0 -1 117 -105 117 105 0 1 -117 -105zm0 28l-117 105 0 -1 117 -105 117 105 0 1 -117 -105zm0 28l-117 105 0 -1 117 -105 117 105 0 1 -117 -105zm0 28l-117 105 0 -1 117 -104 117 104 0 1 -117 -105zm0 29l-117 104 0 0 117 -105 117 105 0 0 -117 -104zm-234 -761l-117 105 0 -1 117 -105 117 105 0 1 -117 -105zm0 28l-117 105 0 -1 117 -105 117 105 0 1 -117 -105zm0 28l-117 105 0 -1 117 -105 117 105 0 1 -117 -105zm0 28l-117 105 0 -1 117 -104 117 104 0 1 -117 -105zm0 29l-117 104 0 -1 117 -104 117 104 0 1 -117 -104zm0 28l-117 105 0 -1 117 -105 117 105 0 1 -117 -105zm0 28l-117 105 0 -1 117 -105 117 105 0 1 -117 -105zm0 28l-117 105 0 -1 117 -105 117 105 0 1 -117 -105zm0 28l-117 105 0 -1 117 -105 117 105 0 1 -117 -105zm0 28l-117 105 0 -1 117 -104 117 104 0 1 -117 -105zm0 29l-117 104 0 0 117 -105 117 105 0 0 -117 -104zm0 28l-117 105 0 -1 117 -105 117 105 0 1 -117 -105zm0 28l-117 105 0 -1 117 -105 117 105 0 1 -117 -105zm0 28l-117 105 0 -1 117 -105 117 105 0 1 -117 -105zm0 28l-117 105 0 -1 117 -105 117 105 0 1 -117 -105zm0 29l-117 104 0 -1 117 -104 117 104 0 1 -117 -104zm0 28l-117 104 0 0 117 -105 117 105 0 0 -117 -104zm0 28l-117 105 0 -1 117 -105 117 105 0 1 -117 -105zm0 28l-117 105 0 -1 117 -105 117 105 0 1 -117 -105zm0 28l-117 105 0 -1 117 -105 117 105 0 1 -117 -105zm0 28l-117 105 0 -1 117 -104 117 104 0 1 -117 -105zm0 29l-117 104 0 -1 117 -104 117 104 0 1 -117 -104zm0 28l-117 105 0 -1 117 -105 117 105 0 1 -117 -105zm0 28l-117 105 0 -1 117 -105 117 105 0 1 -117 -105zm0 28l-117 105 0 -1 117 -105 117 105 0 1 -117 -105zm0 28l-117 105 0 -1 117 -105 117 105 0 1 -117 -105zm0 28l-117 105 0 -1 117 -104 117 104 0 1 -117 -105zm0 29l-117 104 0 0 117 -105 117 105 0 0 -117 -104zm-234 -761l-117 105 0 -1 117 -105 117 105 0 1 -117 -105zm0 28l-117 105 0 -1 117 -105 117 105 0 1 -117 -105zm0 28l-117 105 0 -1 117 -105 117 105 0 1 -117 -105zm0 28l-117 105 0 -1 117 -104 117 104 0 1 -117 -105zm0 29l-117 104 0 -1 117 -104 117 104 0 1 -117 -104zm0 28l-117 105 0 -1 117 -105 117 105 0 1 -117 -105zm0 28l-117 105 0 -1 117 -105 117 105 0 1 -117 -105zm0 28l-117 105 0 -1 117 -105 117 105 0 1 -117 -105zm0 28l-117 105 0 -1 117 -105 117 105 0 1 -117 -105zm0 28l-117 105 0 -1 117 -104 117 104 0 1 -117 -105zm0 29l-117 104 0 0 117 -105 117 105 0 0 -117 -104zm0 28l-117 105 0 -1 117 -105 117 105 0 1 -117 -105zm0 28l-117 105 0 -1 117 -105 117 105 0 1 -117 -105zm0 28l-117 105 0 -1 117 -105 117 105 0 1 -117 -105zm0 28l-117 105 0 -1 117 -105 117 105 0 1 -117 -105zm0 29l-117 104 0 -1 117 -104 117 104 0 1 -117 -104zm0 28l-117 104 0 0 117 -105 117 105 0 0 -117 -104zm0 28l-117 105 0 -1 117 -105 117 105 0 1 -117 -105zm0 28l-117 105 0 -1 117 -105 117 105 0 1 -117 -105zm0 28l-117 105 0 -1 117 -105 117 105 0 1 -117 -105zm0 28l-117 105 0 -1 117 -104 117 104 0 1 -117 -105zm0 29l-117 104 0 -1 117 -104 117 104 0 1 -117 -104zm0 28l-117 105 0 -1 117 -105 117 105 0 1 -117 -105zm0 28l-117 105 0 -1 117 -105 117 105 0 1 -117 -105zm0 28l-117 105 0 -1 117 -105 117 105 0 1 -117 -105zm0 28l-117 105 0 -1 117 -105 117 105 0 1 -117 -105zm0 28l-117 105 0 -1 117 -104 117 104 0 1 -117 -105zm0 29l-117 104 0 0 117 -105 117 105 0 0 -117 -104zm-234 -761l-117 105 0 -1 117 -105 117 105 0 1 -117 -105zm0 28l-117 105 0 -1 117 -105 117 105 0 1 -117 -105zm0 28l-117 105 0 -1 117 -105 117 105 0 1 -117 -105zm0 28l-117 105 0 -1 117 -104 117 104 0 1 -117 -105zm0 29l-117 104 0 -1 117 -104 117 104 0 1 -117 -104zm0 28l-117 105 0 -1 117 -105 117 105 0 1 -117 -105zm0 28l-117 105 0 -1 117 -105 117 105 0 1 -117 -105zm0 28l-117 105 0 -1 117 -105 117 105 0 1 -117 -105zm0 28l-117 105 0 -1 117 -105 117 105 0 1 -117 -105zm0 28l-117 105 0 -1 117 -104 117 104 0 1 -117 -105zm0 29l-117 104 0 0 117 -105 117 105 0 0 -117 -104zm0 28l-117 105 0 -1 117 -105 117 105 0 1 -117 -105zm0 28l-117 105 0 -1 117 -105 117 105 0 1 -117 -105zm0 28l-117 105 0 -1 117 -105 117 105 0 1 -117 -105zm0 28l-117 105 0 -1 117 -105 117 105 0 1 -117 -105zm0 29l-117 104 0 -1 117 -104 117 104 0 1 -117 -104zm0 28l-117 104 0 0 117 -105 117 105 0 0 -117 -104zm0 28l-117 105 0 -1 117 -105 117 105 0 1 -117 -105zm0 28l-117 105 0 -1 117 -105 117 105 0 1 -117 -105zm0 28l-117 105 0 -1 117 -105 117 105 0 1 -117 -105zm0 28l-117 105 0 -1 117 -104 117 104 0 1 -117 -105zm0 29l-117 104 0 -1 117 -104 117 104 0 1 -117 -104zm0 28l-117 105 0 -1 117 -105 117 105 0 1 -117 -105zm0 28l-117 105 0 -1 117 -105 117 105 0 1 -117 -105zm0 28l-117 105 0 -1 117 -105 117 105 0 1 -117 -105zm0 28l-117 105 0 -1 117 -105 117 105 0 1 -117 -105zm0 28l-117 105 0 -1 117 -104 117 104 0 1 -117 -105zm0 29l-117 104 0 0 117 -105 117 105 0 0 -117 -104zm-234 -761l-117 105 0 -1 117 -105 117 105 0 1 -117 -105zm0 28l-117 105 0 -1 117 -105 117 105 0 1 -117 -105zm0 28l-117 105 0 -1 117 -105 117 105 0 1 -117 -105zm0 28l-117 105 0 -1 117 -104 117 104 0 1 -117 -105zm0 29l-117 104 0 -1 117 -104 117 104 0 1 -117 -104zm0 28l-117 105 0 -1 117 -105 117 105 0 1 -117 -105zm0 28l-117 105 0 -1 117 -105 117 105 0 1 -117 -105zm0 28l-117 105 0 -1 117 -105 117 105 0 1 -117 -105zm0 28l-117 105 0 -1 117 -105 117 105 0 1 -117 -105zm0 28l-117 105 0 -1 117 -104 117 104 0 1 -117 -105zm0 29l-117 104 0 0 117 -105 117 105 0 0 -117 -104zm0 28l-117 105 0 -1 117 -105 117 105 0 1 -117 -105zm0 28l-117 105 0 -1 117 -105 117 105 0 1 -117 -105zm0 28l-117 105 0 -1 117 -105 117 105 0 1 -117 -105zm0 28l-117 105 0 -1 117 -105 117 105 0 1 -117 -105zm0 29l-117 104 0 -1 117 -104 117 104 0 1 -117 -104zm0 28l-117 104 0 0 117 -105 117 105 0 0 -117 -104zm0 28l-117 105 0 -1 117 -105 117 105 0 1 -117 -105zm0 28l-117 105 0 -1 117 -105 117 105 0 1 -117 -105zm0 28l-117 105 0 -1 117 -105 117 105 0 1 -117 -105zm0 28l-117 105 0 -1 117 -104 117 104 0 1 -117 -105zm0 29l-117 104 0 -1 117 -104 117 104 0 1 -117 -104zm0 28l-117 105 0 -1 117 -105 117 105 0 1 -117 -105zm0 28l-117 105 0 -1 117 -105 117 105 0 1 -117 -105zm0 28l-117 105 0 -1 117 -105 117 105 0 1 -117 -105zm0 28l-117 105 0 -1 117 -105 117 105 0 1 -117 -105zm0 28l-117 105 0 -1 117 -104 117 104 0 1 -117 -105zm0 29l-117 104 0 0 117 -105 117 105 0 0 -117 -104zm-234 -761l-117 105 0 -1 117 -105 117 105 0 1 -117 -105zm0 28l-117 105 0 -1 117 -105 117 105 0 1 -117 -105zm0 28l-117 105 0 -1 117 -105 117 105 0 1 -117 -105zm0 28l-117 105 0 -1 117 -104 117 104 0 1 -117 -105zm0 29l-117 104 0 -1 117 -104 117 104 0 1 -117 -104zm0 28l-117 105 0 -1 117 -105 117 105 0 1 -117 -105zm0 28l-117 105 0 -1 117 -105 117 105 0 1 -117 -105zm0 28l-117 105 0 -1 117 -105 117 105 0 1 -117 -105zm0 28l-117 105 0 -1 117 -105 117 105 0 1 -117 -105zm0 28l-117 105 0 -1 117 -104 117 104 0 1 -117 -105zm0 29l-117 104 0 0 117 -105 117 105 0 0 -117 -104zm0 28l-117 105 0 -1 117 -105 117 105 0 1 -117 -105zm0 28l-117 105 0 -1 117 -105 117 105 0 1 -117 -105zm0 28l-117 105 0 -1 117 -105 117 105 0 1 -117 -105zm0 28l-117 105 0 -1 117 -105 117 105 0 1 -117 -105zm0 29l-117 104 0 -1 117 -104 117 104 0 1 -117 -104zm0 28l-117 104 0 0 117 -105 117 105 0 0 -117 -104zm0 28l-117 105 0 -1 117 -105 117 105 0 1 -117 -105zm0 28l-117 105 0 -1 117 -105 117 105 0 1 -117 -105zm0 28l-117 105 0 -1 117 -105 117 105 0 1 -117 -105zm0 28l-117 105 0 -1 117 -104 117 104 0 1 -117 -105zm0 29l-117 104 0 -1 117 -104 117 104 0 1 -117 -104zm0 28l-117 105 0 -1 117 -105 117 105 0 1 -117 -105zm0 28l-117 105 0 -1 117 -105 117 105 0 1 -117 -105zm0 28l-117 105 0 -1 117 -105 117 105 0 1 -117 -105zm0 28l-117 105 0 -1 117 -105 117 105 0 1 -117 -105zm0 28l-117 105 0 -1 117 -104 117 104 0 1 -117 -105zm0 29l-117 104 0 0 117 -105 117 105 0 0 -117 -104z"/>
   <path class="fil1" d="M0 0l1920 0 0 80 -1920 176 0 -256z"/>
   <path class="fil2" d="M1875 0l-16 0 -56 91 16 -1 56 -90zm-65 0l-16 0 -60 97 17 -1 59 -96zm-65 0l-16 0 -64 104 17 -2 63 -102zm-65 0l-16 0 -68 110 17 -1 67 -109zm-65 0l-16 0 -72 116 17 -1 71 -115zm-65 0l-16 0 -76 123 17 -2 75 -121zm-65 0l-16 0 -79 129 16 -2 79 -127zm-65 0l-16 0 -83 135 16 -1 83 -134zm-65 0l-16 0 -87 142 16 -2 87 -140zm-65 0l-16 0 -91 148 16 -2 91 -146zm-65 0l-16 0 -95 154 16 -1 95 -153zm-65 0l-16 0 -99 160 17 -1 98 -159zm-65 0l-16 0 -103 167 17 -2 102 -165zm-65 0l-16 0 -107 173 17 -2 106 -171zm-65 0l-16 0 -111 179 17 -1 110 -178zm-65 0l-16 0 -115 186 17 -2 114 -184zm-65 0l-16 0 -118 192 16 -2 118 -190zm-65 0l-16 0 -122 198 16 -1 122 -197zm-65 0l-16 0 -126 204 16 -1 126 -203zm-65 0l-16 0 -130 211 16 -2 130 -209zm-65 0l-16 0 -134 217 16 -1 134 -216zm-65 0l-16 0 -138 223 17 -1 137 -222zm-65 0l-16 0 -142 230 17 -2 141 -228zm-65 0l-16 0 -146 236 17 -2 145 -234zm-65 0l-16 0 -150 242 17 -1 149 -241zm-65 0l-16 0 -153 249 16 -2 153 -247zm-65 0l-16 0 -157 255 16 -2 157 -253zm-65 0l-16 0 -104 169 0 25 120 -194zm-65 0l-16 0 -39 64 0 25 55 -89zm1817 85l16 -2 32 -51 0 -25 -48 78z"/>
   <path class="fil3 str0" d="M1920 80l-1920 176"/>
   <g>
    <ellipse class="fil1" cx="399" cy="438" rx="187" ry="185"/>
    <path class="fil2" d="M506 286c80,152 -63,320 -189,318 25,12 53,18 82,18 104,0 187,-82 187,-184 0,-63 -31,-119 -80,-152z"/>
    <path class="fil4" d="M290 494l-12 0 0 -20 -17 0 0 20 -13 0 0 -48 13 0 0 19 17 0 0 -19 12 0 0 48zm39 -35c0,-3 -1,-4 -4,-4l-11 0c-3,0 -5,1 -5,4l0 22c0,3 2,4 5,4l11 0c3,0 4,-1 4,-4l0 -22zm13 22c0,5 -1,8 -3,10 -3,2 -6,3 -11,3l-17 0c-5,0 -8,-1 -11,-3 -2,-2 -3,-5 -3,-10l0 -22c0,-5 1,-8 3,-10 3,-2 6,-3 11,-3l17 0c5,0 8,1 11,3 2,2 3,5 3,10l0 22zm48 13l-12 0 0 -16 -10 0 -8 16 -13 0 9 -17c-3,0 -5,-2 -7,-4 -1,-2 -2,-5 -2,-8l0 -5c0,-5 1,-8 4,-11 2,-2 5,-3 10,-3l29 0 0 48zm-30 -29c0,2 1,4 4,4l14 0 0 -13 -14 0c-3,0 -4,1 -4,4l0 5zm51 0l16 0c5,0 9,1 11,3 2,2 3,5 3,10l0 2c0,5 -1,8 -3,11 -2,2 -6,3 -11,3l-29 0 0 -48 39 0 0 10 -26 0 0 9zm18 13c0,-3 -2,-4 -4,-4l-14 0 0 10 14 0c2,0 4,-1 4,-4l0 -2zm18 -32l29 0c5,0 9,1 11,3 2,3 3,6 3,11l0 7c0,4 -1,8 -3,10 -2,2 -6,3 -11,3l-16 0 0 14 -13 0 0 -48zm31 14c0,-3 -2,-4 -5,-4l-13 0 0 15 13 0c3,0 5,-2 5,-4l0 -7zm60 34l-13 0 0 -16 -9 0 -9 16 -13 0 9 -17c-3,0 -5,-2 -6,-4 -2,-2 -2,-5 -2,-8l0 -5c0,-5 1,-8 3,-11 2,-2 6,-3 11,-3l29 0 0 48zm-31 -29c0,2 2,4 4,4l14 0 0 -13 -14 0c-2,0 -4,1 -4,4l0 5z"/>
    <path class="fil5" d="M506 286c159,125 27,384 -189,318 25,12 53,18 82,18 104,0 187,-82 187,-184 0,-63 -31,-119 -80,-152z"/>
    <path class="fil4" d="M280 429l0 -40 -9 3 -4 -8 14 -6 12 0 0 51 -13 0zm30 0l0 -40 -9 3 -4 -8 14 -6 12 0 0 51 -13 0zm42 -21l0 -9 55 0 0 9 -55 0zm121 -14c0,4 -2,8 -5,11 -1,1 -3,2 -4,3l-16 11 25 0 0 10 -40 0 0 -14 27 -19 0 -3c0,-3 -2,-5 -5,-5l-21 0 0 -10 24 0c5,0 9,1 12,3 2,3 3,7 3,12l0 1zm31 36c-8,0 -17,0 -27,-1l0 -10c11,0 19,1 24,1 1,0 2,-1 3,-1 1,-1 1,-2 1,-3l0 -4c0,-3 -2,-4 -5,-4l-21 0 0 -30 36 0 0 10 -23 0 0 10 12 0c5,0 9,1 11,3 2,2 3,6 3,10l0 5c0,5 -1,8 -3,11 -2,2 -6,3 -11,3z"/>
   </g>
   <path class="fil1" d="M1920 900l-1920 0 0 -80 1920 -176 0 256z"/>
   <path class="fil2" d="M45 900l16 0 56 -91 -16 1 -56 90zm65 0l16 0 60 -97 -17 1 -59 96zm65 0l16 0 64 -104 -17 2 -63 102zm65 0l16 0 68 -110 -17 1 -67 109zm65 0l16 0 72 -116 -17 1 -71 115zm65 0l16 0 76 -123 -17 2 -75 121zm65 0l16 0 79 -129 -16 2 -79 127zm65 0l16 0 83 -135 -16 1 -83 134zm65 0l16 0 87 -142 -16 2 -87 140zm65 0l16 0 91 -148 -16 2 -91 146zm65 0l16 0 95 -154 -16 1 -95 153zm65 0l16 0 99 -160 -17 1 -98 159zm65 0l16 0 103 -167 -17 2 -102 165zm65 0l16 0 107 -173 -17 2 -106 171zm65 0l16 0 111 -179 -17 1 -110 178zm65 0l16 0 115 -186 -17 2 -114 184zm65 0l16 0 118 -192 -16 2 -118 190zm65 0l16 0 122 -198 -16 1 -122 197zm65 0l16 0 126 -204 -16 1 -126 203zm65 0l16 0 130 -211 -16 2 -130 209zm65 0l16 0 134 -217 -16 1 -134 216zm65 0l16 0 138 -223 -17 1 -137 222zm65 0l16 0 142 -230 -17 2 -141 228zm65 0l16 0 146 -236 -17 2 -145 234zm65 0l16 0 150 -242 -17 1 -149 241zm65 0l16 0 153 -249 -16 2 -153 247zm65 0l16 0 157 -255 -16 2 -157 253zm65 0l16 0 104 -169 0 -25 -120 194zm65 0l16 0 39 -64 0 -25 -55 89zm-1817 -85l-16 2 -32 51 0 25 48 -78z"/>
   <path class="fil3 str0" d="M0 820l1920 -176"/>
   <g>
    <ellipse class="fil6" cx="1491" cy="420" rx="212" ry="209"/>
    <ellipse class="fil0" cx="1491" cy="420" rx="178" ry="175"/>
    <path class="fil4" d="M1563 464l50 -86 19 0 -49 86 -20 0zm26 -57c0,5 -1,9 -4,11 -2,3 -6,4 -11,4l-11 0c-5,0 -9,-1 -12,-4 -3,-2 -4,-6 -4,-11l0 -15c0,-5 1,-8 4,-11 3,-3 7,-4 12,-4l11 0c5,0 9,1 11,4 3,3 4,6 4,11l0 15zm-15 -15c0,-3 -1,-4 -4,-4l-4 0c-3,0 -4,1 -4,4l0 15c0,3 1,4 4,4l4 0c3,0 4,-1 4,-4l0 -15zm75 58c0,5 -1,9 -4,11 -3,3 -6,4 -11,4l-12 0c-5,0 -8,-1 -11,-4 -3,-2 -4,-6 -4,-11l0 -15c0,-5 1,-8 4,-11 3,-3 6,-4 11,-4l12 0c5,0 8,1 11,4 3,3 4,6 4,11l0 15zm-15 -15c0,-3 -1,-4 -4,-4l-4 0c-3,0 -4,1 -4,4l0 15c0,3 1,4 4,4l4 0c3,0 4,-1 4,-4l0 -15z"/>
    <path class="fil7" d="M1554 470l50 -86 19 0 -49 86 -20 0zm26 -57c0,5 -1,9 -4,11 -2,3 -6,4 -11,4l-11 0c-5,0 -9,-1 -12,-4 -3,-2 -4,-6 -4,-11l0 -15c0,-5 1,-8 4,-11 3,-3 7,-4 12,-4l11 0c5,0 9,1 11,4 3,3 4,6 4,11l0 15zm-15 -15c0,-3 -1,-4 -4,-4l-4 0c-3,0 -4,1 -4,4l0 15c0,3 1,4 4,4l4 0c3,0 4,-1 4,-4l0 -15zm75 58c0,5 -1,9 -4,11 -3,3 -7,4 -12,4l-11 0c-5,0 -9,-1 -11,-4 -3,-2 -4,-6 -4,-11l0 -15c0,-5 1,-8 4,-11 2,-3 6,-4 11,-4l11 0c5,0 9,1 12,4 3,3 4,6 4,11l0 15zm-15 -15c0,-3 -1,-4 -4,-4l-4 0c-3,0 -4,1 -4,4l0 15c0,3 1,4 4,4l4 0c3,0 4,-1 4,-4l0 -15z"/>
    <path class="fil5" d="M1668 420c-14,223 -337,225 -355,0 0,97 80,175 178,175 98,0 177,-78 177,-175z"/>
    <path class="fil4" d="M1391 440l-58 0 0 -23 38 -68 31 0 -37 68 26 0 0 -24 29 0 0 24 11 0 0 23 -11 0 0 23 -29 0 0 -23zm112 -60c0,-6 -3,-10 -9,-10l-17 0c-7,0 -10,4 -10,10l0 52c0,6 3,10 10,10l17 0c6,0 9,-4 9,-10l0 -52zm29 52c0,11 -3,19 -8,24 -5,6 -13,8 -24,8l-30 0c-11,0 -19,-2 -24,-8 -5,-5 -7,-13 -7,-24l0 -52c0,-11 2,-20 7,-25 5,-5 13,-7 24,-7l30 0c11,0 19,2 24,7 5,5 8,14 8,25l0 52z"/>
    <path class="fil7" d="M1382 446l-58 0 0 -22 38 -68 31 0 -37 68 26 0 0 -24 29 0 0 24 11 0 0 22 -11 0 0 23 -29 0 0 -23zm112 -59c0,-7 -3,-10 -9,-10l-17 0c-7,0 -10,3 -10,10l0 51c0,7 3,10 10,10l17 0c6,0 9,-3 9,-10l0 -51zm29 51c0,12 -3,20 -8,25 -5,5 -13,8 -24,8l-30 0c-11,0 -19,-3 -24,-8 -5,-5 -7,-13 -7,-25l0 -51c0,-12 2,-20 7,-25 5,-5 13,-8 24,-8l30 0c11,0 19,3 24,8 5,5 8,13 8,25l0 51z"/>
   </g>
   <g>
    <path class="fil8" d="M167 68l-3 -5 -5 6c3,-1 5,-2 8,-1zm2 3l-1 -2c-2,1 -3,1 -5,2 3,0 5,-1 6,0zm1 1l3 4 -11 0c7,-2 8,-3 8,-4zm-4 -3c-1,0 -5,2 -4,2 1,1 7,0 6,1 0,1 -5,3 -9,4l-5 0c4,-5 12,-8 12,-7z"/>
    <path class="fil8" d="M71 193l-4 -4 -4 6c3,-1 5,-2 8,-2zm2 3l-2 -2c-1,1 -2,2 -4,3 3,-1 5,-1 6,-1zm1 2l3 4 -12 0c8,-2 9,-3 9,-4zm-5 -4c0,1 -4,3 -4,3 1,0 7,-1 7,1 -1,1 -5,3 -9,4l-5 0c4,-5 12,-8 11,-8z"/>
    <path class="fil8" d="M721 37l-3 -4 -5 6c3,-1 5,-2 8,-2zm2 4l-2 -2c-1,0 -2,1 -4,2 3,-1 5,-1 6,0zm1 1l3 4 -11 0c7,-2 8,-3 8,-4zm-5 -3c0,0 -4,2 -4,2 2,1 8,-1 7,1 0,1 -5,3 -9,4l-5 0c4,-5 12,-8 11,-7z"/>
    <path class="fil8" d="M1651 53l-3 -5 -4 6c2,0 5,-1 7,-1zm3 3l-2 -2c-1,1 -3,1 -4,2 3,0 4,0 6,0zm1 2l3 4 -12 0c8,-2 8,-3 9,-4zm-5 -4c0,0 -4,2 -4,3 1,0 7,-1 7,1 -1,1 -5,2 -9,4l-5 0c4,-6 11,-8 11,-8z"/>
    <path class="fil8" d="M1085 120l-3 -5 -4 6c2,0 4,-1 7,-1zm2 3l-1 -2c-2,1 -3,1 -5,2 3,0 5,0 6,0zm1 2l3 4 -11 0c7,-2 8,-3 8,-4zm-4 -4c0,0 -5,2 -4,3 1,0 7,-1 6,1 0,1 -4,2 -8,4l-5 0c4,-6 11,-8 11,-8z"/>
    <path class="fil8" d="M1230 11l-4 -4 -4 6c3,-1 5,-2 8,-2zm2 3l-2 -2c-1,1 -2,2 -4,3 3,-1 5,-1 6,-1zm1 2l3 4 -12 0c8,-2 9,-3 9,-4zm-5 -4c0,1 -4,3 -4,3 1,1 7,-1 7,1 -1,1 -5,3 -9,4l-5 0c4,-5 12,-8 11,-8z"/>
    <path class="fil8" d="M410 25l-3 -5 -5 6c3,-1 5,-2 8,-1zm2 3l-2 -2c-1,1 -2,1 -4,2 3,0 5,-1 6,0zm1 2l3 4 -11 0c7,-3 8,-4 8,-4zm-5 -4c0,0 -4,2 -4,2 1,1 8,0 7,1 0,1 -5,3 -9,5l-5 0c4,-6 12,-9 11,-8z"/>
    <path class="fil8" d="M823 116l-3 -5 -4 6c2,-1 5,-2 7,-1zm2 3l-1 -2c-2,1 -3,1 -5,2 3,0 5,-1 6,0zm2 1l2 4 -11 0c7,-2 8,-3 9,-4zm-5 -3c0,0 -4,2 -4,2 1,1 7,0 6,1 0,1 -4,3 -8,4l-5 0c4,-5 11,-8 11,-7z"/>
    <path class="fil8" d="M362 133l3 -4 4 6c-2,-1 -5,-2 -7,-2zm-2 3l1 -2c1,1 3,2 5,3 -4,-1 -5,-1 -6,-1zm-2 2l-3 4 12 0c-8,-2 -8,-3 -9,-4zm5 -3c0,0 4,2 4,2 -1,1 -7,-1 -7,1 1,1 5,3 9,4l5 0c-4,-5 -11,-8 -11,-7z"/>
    <path class="fil9" d="M868 48l3 -4 -8 -2c2,2 4,4 5,6zm-3 4l2 -2c-2,-2 -3,-2 -4,-4 1,3 2,4 2,6zm-1 1l-2 4 -5 -10c5,6 6,6 7,6zm2 -5c0,0 -4,-3 -4,-3 0,1 3,6 2,6 -1,0 -5,-3 -8,-6l-2 -5c7,2 12,8 12,8z"/>
    <path class="fil9" d="M559 150l-4 -4 8 -2c-2,2 -4,4 -4,6zm2 3l-2 -2c2,-1 3,-2 4,-3 -1,3 -2,4 -2,5zm1 2l2 4 5 -10c-5,6 -6,6 -7,6zm-2 -5c1,-1 4,-4 4,-3 0,1 -3,6 -2,6 2,0 5,-3 8,-6l2 -5c-7,2 -12,8 -12,8z"/>
    <path class="fil9" d="M1282 46l3 -5 -7 -1c2,2 3,3 4,6zm-2 3l1 -2c-1,-1 -2,-2 -4,-3 2,2 3,4 3,5zm-1 2l-3 4 -4 -10c5,5 6,6 7,6zm2 -6c-1,0 -4,-3 -4,-3 -1,2 3,7 1,7 -1,0 -4,-4 -7,-7l-2 -4c7,2 12,7 12,7z"/>
    <path class="fil9" d="M1037 85l4 -5 -8 -1c2,2 4,3 4,6zm-2 3l2 -2c-2,-1 -3,-2 -4,-3 1,2 2,4 2,5zm-1 2l-3 4 -4 -10c5,5 6,6 7,6zm2 -6c-1,0 -4,-3 -4,-2 0,1 3,6 2,6 -2,0 -5,-4 -8,-7l-2 -4c7,2 12,7 12,7z"/>
    <path class="fil9" d="M336 93l3 -4 -7 -2c1,2 3,4 4,6zm-2 4l1 -2c-1,-2 -2,-2 -4,-4 2,3 3,4 3,6zm-1 1l-3 4 -4 -10c4,6 6,6 7,6zm1 -5c0,0 -4,-3 -4,-3 0,1 4,6 2,6 -1,0 -4,-3 -7,-6l-2 -5c7,2 12,8 11,8z"/>
    <path class="fil9" d="M1483 26l3 -4 -7 -2c1,2 3,4 4,6zm-2 3l1 -2c-1,-1 -2,-2 -4,-3 2,3 3,4 3,5zm-2 2l-2 4 -5 -10c5,6 7,6 7,6zm2 -5c0,0 -4,-3 -4,-3 0,1 4,6 2,6 -1,0 -5,-3 -7,-6l-2 -5c6,2 12,8 11,8z"/>
    <path class="fil9" d="M178 167l3 -4 -7 -2c2,2 3,4 4,6zm-2 4l1 -2c-1,-2 -2,-2 -4,-4 2,3 3,4 3,6zm-1 1l-3 4 -4 -10c5,6 6,6 7,6zm1 -5c0,0 -3,-3 -3,-3 -1,1 3,6 1,6 -1,0 -4,-3 -7,-6l-2 -5c7,2 12,8 11,8z"/>
    <path class="fil5" d="M46 67l-6 1 5 6c0,-2 0,-5 1,-7zm4 -1l-3 0c1,2 1,3 1,5 1,-3 1,-4 2,-5zm2 -1l4 -1 -3 10c0,-7 -1,-8 -1,-9zm-5 3c0,1 0,5 1,5 1,-1 1,-7 3,-6 1,1 1,5 1,10l-2 4c-4,-5 -4,-13 -3,-13z"/>
    <path class="fil5" d="M466 96l5 2 -4 6c0,-3 0,-5 -1,-8zm-4 -1l3 1c-1,2 -1,3 -1,5 -1,-3 -1,-5 -2,-6zm-2 0l-5 -1 4 10c0,-7 1,-9 1,-9zm5 3c0,0 -1,5 -1,5 -1,-1 -2,-7 -3,-6 -1,0 -1,5 -1,9l1 5c4,-6 5,-13 4,-13z"/>
    <path class="fil5" d="M235 187l-6 2 5 6c0,-3 0,-5 1,-8zm3 -1l-2 1c1,2 1,3 1,5 1,-3 1,-5 1,-6zm3 0l4 -2 -3 11c0,-7 -1,-9 -1,-9zm-5 3c0,0 0,5 1,5 1,-1 1,-7 3,-6 1,0 1,5 1,9l-2 5c-4,-6 -4,-13 -3,-13z"/>
    <path class="fil5" d="M686 110l-5 1 4 6c0,-2 0,-5 1,-7zm4 -1l-3 1c1,1 1,3 1,5 1,-3 1,-5 2,-6zm2 -1l5 -1 -4 11c0,-8 -1,-9 -1,-10zm-5 3c0,1 1,5 1,5 1,-1 1,-7 3,-6 1,1 1,6 1,10l-2 4c-3,-5 -4,-13 -3,-13z"/>
    <path class="fil5" d="M1135 38l-5 2 4 6c0,-3 0,-5 1,-8zm4 -1l-3 1c1,2 1,3 1,5 1,-3 1,-5 2,-6zm2 0l5 -2 -4 11c0,-8 -1,-9 -1,-9zm-5 3c0,0 1,5 1,4 1,0 2,-6 3,-5 1,0 1,5 1,9l-1 5c-4,-6 -4,-13 -4,-13z"/>
    <path class="fil5" d="M1396 88l-5 1 4 6c0,-2 0,-5 1,-7zm4 -1l-3 0c1,2 1,4 1,6 1,-4 1,-5 2,-6zm2 -1l5 -1 -4 10c0,-7 0,-8 -1,-9zm-5 3c0,1 1,5 1,5 1,-1 2,-7 3,-6 1,1 1,5 1,10l-1 4c-4,-5 -4,-13 -4,-13z"/>
    <path class="fil5" d="M1828 23l-5 2 4 5c0,-2 0,-5 1,-7zm4 -1l-3 1c1,1 1,3 1,5 1,-3 1,-5 2,-6zm2 -1l5 -1 -4 11c0,-8 -1,-9 -1,-10zm-5 4c0,0 1,5 1,4 1,-1 2,-7 3,-6 1,1 1,6 1,10l-1 5c-4,-6 -4,-14 -4,-13z"/>
    <path class="fil5" d="M954 127l-6 2 5 6c0,-3 -1,-5 1,-8zm3 -1l-2 1c0,2 0,3 1,5 0,-3 0,-5 1,-6zm2 0l5 -2 -4 11c1,-7 0,-9 -1,-9zm-5 3c1,0 1,5 1,5 1,-1 2,-7 3,-6 1,0 1,5 2,9l-2 5c-4,-6 -4,-13 -4,-13z"/>
    <path class="fil10" d="M564 37l-1 5 7 -1c-2,-1 -4,-2 -6,-4zm1 -4l0 3c1,0 3,1 5,1 -3,-2 -4,-3 -5,-4zm1 -2l1 -5 8 9c-7,-4 -8,-4 -9,-4zm0 6c1,0 5,2 5,1 -1,-1 -5,-5 -4,-5 1,-1 5,2 9,4l3 3c-7,1 -13,-3 -13,-3z"/>
    <path class="fil10" d="M950 23l-2 5 8 -1c-3,-1 -5,-2 -6,-4zm1 -4l-1 2c2,1 3,2 5,2 -3,-2 -4,-3 -4,-4zm0 -2l1 -5 8 9c-7,-4 -8,-4 -9,-4zm0 6c1,0 5,2 5,1 0,-1 -5,-5 -4,-5 1,-1 6,1 9,3l4 4c-7,1 -14,-3 -14,-3z"/>
    <path class="fil10" d="M1216 104l-2 5 8 -1c-3,-1 -5,-2 -6,-4zm1 -4l-1 3c2,0 3,1 5,2 -3,-3 -4,-4 -4,-5zm0 -2l1 -4 8 8c-7,-4 -8,-4 -9,-4zm0 6c1,0 5,2 5,1 0,-1 -5,-4 -4,-5 1,0 6,2 9,4l4 3c-7,1 -14,-3 -14,-3z"/>
    <path class="fil10" d="M1546 56l-1 6 7 -1c-2,-1 -5,-2 -6,-5zm1 -3l-1 2c2,1 3,1 5,2 -2,-2 -4,-3 -4,-4zm0 -2l2 -5 7 8c-6,-4 -8,-3 -9,-3zm1 6c0,0 4,1 4,1 0,-1 -5,-5 -3,-6 1,0 5,2 9,4l3 4c-7,0 -14,-3 -13,-3z"/>
    <path class="fil10" d="M239 97l-2 5 8 0c-3,-2 -5,-3 -6,-5zm1 -4l-1 3c2,0 3,1 5,2 -3,-2 -4,-3 -4,-5zm0 -2l1 -4 8 8c-7,-4 -8,-4 -9,-4zm0 6c1,0 5,2 5,2 0,-2 -5,-5 -4,-6 1,0 6,2 9,4l4 4c-7,0 -14,-4 -14,-4z"/>
    <path class="fil10" d="M1871 50l-2 5 8 0c-3,-2 -5,-3 -6,-5zm1 -4l-1 3c2,0 3,1 5,2 -3,-2 -4,-3 -4,-5zm0 -2l1 -4 8 8c-7,-4 -8,-4 -9,-4zm0 6c1,0 5,2 5,1 0,-1 -5,-4 -4,-5 1,0 6,2 9,4l4 4c-7,0 -14,-4 -14,-4z"/>
    <path class="fil10" d="M78 137l-1 5 7 -1c-2,-1 -4,-2 -6,-4zm1 -4l0 2c1,1 2,1 4,2 -2,-2 -3,-3 -4,-4zm1 -2l1 -5 7 9c-6,-4 -7,-4 -8,-4zm0 6c0,0 5,2 5,1 -1,-1 -6,-5 -4,-5 1,-1 5,1 9,3l3 4c-7,1 -13,-3 -13,-3z"/>
    <path class="fil10" d="M280 28l-2 5 8 -1c-3,-1 -5,-2 -6,-4zm1 -4l-1 2c2,1 3,1 5,2 -2,-2 -4,-3 -4,-4zm0 -2l1 -5 8 9c-7,-4 -8,-4 -9,-4zm0 6c1,0 5,1 5,1 0,-1 -5,-5 -4,-5 2,-1 6,1 9,3l4 4c-7,1 -14,-3 -14,-3z"/>
    <path class="fil10" d="M1723 34l-2 6 7 -1c-2,-1 -4,-3 -5,-5zm0 -3l0 2c2,0 3,1 5,2 -3,-2 -4,-3 -5,-4zm1 -2l1 -5 8 8c-7,-4 -8,-4 -9,-3zm0 5c1,0 5,2 5,2 0,-1 -5,-5 -4,-6 1,0 6,2 9,4l4 4c-7,0 -14,-4 -14,-4z"/>
    <path class="fil10" d="M772 92l-1 5 7 -1c-2,-1 -4,-2 -6,-4zm1 -4l0 2c1,1 3,2 5,2 -3,-2 -4,-3 -5,-4zm1 -2l1 -5 8 9c-7,-4 -8,-4 -9,-4zm0 6c1,0 5,2 5,1 -1,-1 -6,-5 -4,-5 1,-1 5,2 9,4l3 3c-7,1 -13,-3 -13,-3z"/>
   </g>
   <g>
    <path class="fil8" d="M1757 808l3 5 4 -6c-2,1 -4,2 -7,1zm-2 -3l1 2c2,-1 3,-1 5,-2 -3,0 -5,1 -6,0zm-1 -1l-3 -4 11 0c-7,2 -8,3 -8,4zm4 3c1,0 5,-2 4,-2 -1,-1 -7,0 -6,-1 0,-1 5,-3 9,-4l5 0c-5,5 -12,8 -12,7z"/>
    <path class="fil8" d="M1853 683l3 4 5 -6c-3,1 -5,2 -8,2zm-2 -3l2 2c1,-1 2,-2 4,-3 -3,1 -5,1 -6,1zm-1 -2l-3 -4 11 0c-7,2 -8,3 -8,4zm5 4c0,-1 4,-3 4,-3 -1,0 -8,1 -7,-1 0,-1 5,-3 9,-4l5 0c-4,5 -12,8 -11,8z"/>
    <path class="fil8" d="M1203 838l3 5 5 -6c-3,1 -5,2 -8,1zm-2 -3l1 2c2,-1 3,-1 5,-2 -3,0 -5,1 -6,0zm-1 -1l-3 -4 11 0c-7,2 -8,3 -8,4zm4 3c1,0 5,-2 4,-2 -1,-1 -7,0 -6,-1 0,-1 5,-3 9,-4l5 0c-4,5 -12,8 -12,7z"/>
    <path class="fil8" d="M273 823l3 5 4 -6c-2,0 -5,1 -7,1zm-3 -3l2 2c1,-1 3,-2 4,-2 -3,0 -4,0 -6,0zm-1 -2l-3 -4 12 0c-8,2 -8,3 -9,4zm5 4c0,-1 4,-3 4,-3 -1,0 -7,1 -7,-1 1,-1 5,-2 9,-4l5 0c-4,6 -11,8 -11,8z"/>
    <path class="fil8" d="M839 756l3 5 4 -6c-2,0 -5,1 -7,1zm-2 -3l1 2c2,-1 3,-2 5,-2 -3,0 -5,0 -6,0zm-2 -2l-2 -4 11 0c-7,2 -8,3 -9,4zm5 4c0,-1 5,-3 4,-3 -1,0 -7,1 -6,-1 0,-1 4,-2 8,-4l5 0c-4,6 -11,8 -11,8z"/>
    <path class="fil8" d="M694 865l4 4 4 -6c-3,1 -5,2 -8,2zm-2 -3l2 2c1,-1 2,-2 4,-3 -3,1 -5,1 -6,1zm-1 -2l-3 -4 11 0c-7,2 -8,3 -8,4zm5 3c0,0 4,-2 4,-2 -1,-1 -7,1 -7,-1 0,-1 5,-3 9,-4l5 0c-4,5 -12,8 -11,7z"/>
    <path class="fil8" d="M1514 851l3 5 5 -6c-3,1 -5,2 -8,1zm-2 -3l1 2c2,-1 3,-1 5,-2 -3,0 -5,1 -6,0zm-1 -2l-3 -4 11 0c-7,3 -8,4 -8,4zm5 4c0,0 4,-2 4,-3 -2,0 -8,1 -7,0 0,-1 5,-3 9,-5l5 0c-4,6 -12,8 -11,8z"/>
    <path class="fil8" d="M1101 760l3 5 4 -6c-2,1 -5,2 -7,1zm-2 -3l1 2c2,-1 3,-1 5,-2 -4,0 -5,1 -6,0zm-2 -2l-2 -4 11 0c-7,3 -8,4 -9,4zm5 4c0,0 4,-2 4,-2 -1,-1 -7,0 -7,-1 1,-1 5,-3 9,-5l5 0c-4,6 -11,9 -11,8z"/>
    <path class="fil8" d="M1562 743l-3 4 -4 -6c2,1 5,2 7,2zm2 -4l-1 2c-1,0 -3,-1 -5,-2 4,1 5,1 6,0zm2 -1l2 -4 -11 0c7,2 8,3 9,4zm-5 3c0,0 -4,-2 -4,-2 1,-1 7,1 7,-1 -1,-1 -5,-3 -9,-4l-5 0c4,5 11,8 11,7z"/>
    <path class="fil9" d="M1056 827l-3 5 8 2c-2,-2 -4,-4 -5,-7zm2 -3l-1 2c2,1 3,2 4,4 -1,-3 -2,-4 -3,-6zm2 -1l2 -5 5 11c-5,-6 -7,-6 -7,-6zm-2 5c0,0 4,3 4,3 0,-1 -3,-6 -2,-6 1,0 5,3 8,6l1 5c-6,-2 -11,-8 -11,-8z"/>
    <path class="fil9" d="M1365 726l3 4 -7 2c2,-2 4,-4 4,-6zm-2 -4l2 2c-2,2 -3,2 -4,4 1,-3 2,-4 2,-6zm-1 -1l-3 -4 -4 10c5,-6 6,-6 7,-6zm2 5c-1,0 -4,3 -4,3 0,-1 3,-6 2,-6 -2,0 -5,3 -8,6l-2 5c7,-2 12,-8 12,-8z"/>
    <path class="fil9" d="M642 830l-3 5 7 1c-2,-2 -3,-3 -4,-6zm2 -3l-1 2c1,1 2,2 4,3 -2,-2 -3,-4 -3,-5zm1 -2l3 -4 4 10c-5,-5 -6,-6 -7,-6zm-2 6c1,0 4,3 4,2 0,-1 -3,-6 -1,-6 1,0 4,3 7,7l2 4c-7,-2 -12,-7 -12,-7z"/>
    <path class="fil9" d="M886 791l-3 5 8 1c-2,-2 -4,-3 -5,-6zm3 -3l-2 2c2,1 3,2 4,3 -1,-2 -2,-4 -2,-5zm1 -2l2 -4 5 10c-5,-5 -6,-6 -7,-6zm-2 6c1,0 4,3 4,2 0,-1 -3,-6 -2,-6 1,0 5,3 8,7l2 4c-7,-2 -12,-7 -12,-7z"/>
    <path class="fil9" d="M1588 782l-3 5 7 2c-1,-2 -3,-4 -4,-7zm2 -3l-1 2c1,1 2,2 4,4 -2,-3 -3,-4 -3,-6zm1 -1l3 -5 4 11c-5,-6 -6,-6 -7,-6zm-1 5c0,0 4,3 4,3 0,-1 -4,-6 -2,-6 1,0 4,3 7,6l2 5c-7,-2 -12,-8 -11,-8z"/>
    <path class="fil9" d="M441 850l-3 4 7 2c-1,-2 -3,-4 -4,-6zm2 -4l-1 2c1,1 2,2 4,4 -2,-3 -3,-4 -3,-6zm1 -1l3 -4 4 10c-4,-6 -6,-6 -7,-6zm-1 5c0,0 4,3 4,3 0,-1 -4,-6 -2,-6 1,0 4,3 7,6l2 5c-6,-2 -12,-8 -11,-8z"/>
    <path class="fil9" d="M1746 708l-3 5 7 2c-2,-2 -3,-4 -4,-7zm2 -3l-1 2c1,1 2,2 4,4 -2,-3 -3,-4 -3,-6zm1 -1l3 -5 4 11c-5,-6 -6,-6 -7,-6zm-2 5c1,0 4,3 4,3 0,-1 -3,-6 -1,-6 1,0 4,3 7,6l2 5c-7,-2 -12,-8 -12,-8z"/>
    <path class="fil5" d="M1878 809l5 -1 -4 -6c0,2 0,5 -1,7zm-4 1l3 0c-1,-2 -1,-4 -1,-6 -1,3 -1,5 -2,6zm-2 1l-4 1 3 -11c0,8 1,9 1,10zm5 -3c0,-1 -1,-5 -1,-5 -1,1 -1,7 -3,6 -1,-1 -1,-6 -1,-10l2 -4c3,5 4,13 3,13z"/>
    <path class="fil5" d="M1458 779l-5 -1 4 -6c0,3 0,5 1,7zm4 1l-3 0c1,-2 1,-3 1,-5 1,3 1,4 2,5zm2 1l4 1 -3 -10c0,7 -1,8 -1,9zm-5 -3c0,0 1,-5 1,-5 1,1 1,7 3,6 1,-1 1,-5 1,-9l-2 -5c-3,6 -4,13 -3,13z"/>
    <path class="fil5" d="M1689 688l5 -1 -4 -6c0,3 0,5 -1,7zm-4 1l3 0c-1,-2 -1,-3 -1,-5 -1,3 -1,4 -2,5zm-2 1l-4 1 3 -10c0,7 1,9 1,9zm5 -3c0,0 0,-5 -1,-5 -1,1 -1,7 -3,6 -1,-1 -1,-5 -1,-9l2 -5c4,6 4,13 3,13z"/>
    <path class="fil5" d="M1238 766l5 -1 -4 -6c0,2 0,5 -1,7zm-4 1l3 -1c-1,-1 -1,-3 -1,-5 -1,3 -1,5 -2,6zm-2 1l-5 1 4 -11c0,8 1,9 1,10zm5 -4c0,0 -1,-4 -1,-4 -1,1 -2,7 -3,6 -1,-1 -1,-6 -1,-10l1 -5c4,6 4,14 4,13z"/>
    <path class="fil5" d="M789 838l5 -2 -4 -6c0,3 0,5 -1,8zm-4 1l3 -1c-1,-2 -1,-3 -1,-5 -1,3 -1,5 -2,6zm-2 0l-5 2 4 -11c0,7 0,9 1,9zm5 -3c0,0 -1,-5 -1,-5 -1,1 -2,7 -3,6 -1,0 -1,-5 -1,-9l1 -5c4,6 4,13 4,13z"/>
    <path class="fil5" d="M528 788l5 -1 -4 -6c0,2 0,5 -1,7zm-4 1l3 -1c-1,-1 -1,-3 -1,-5 -1,3 -1,5 -2,6zm-2 1l-5 1 4 -11c0,8 0,9 1,10zm5 -3c0,-1 -1,-5 -1,-5 -1,1 -2,7 -3,6 -1,-1 -1,-6 -1,-10l1 -4c4,5 4,13 4,13z"/>
    <path class="fil5" d="M96 853l5 -2 -4 -6c0,3 0,5 -1,8zm-4 1l3 -1c-1,-2 -1,-3 -1,-5 -1,3 -1,5 -2,6zm-2 0l-5 2 4 -11c0,8 1,9 1,9zm5 -3c0,0 -1,-5 -1,-4 -1,1 -2,7 -3,6 -1,-1 -1,-6 -1,-10l1 -5c4,6 4,14 4,13z"/>
    <path class="fil5" d="M970 749l6 -2 -5 -6c0,3 1,5 -1,8zm-3 1l2 -1c0,-2 0,-3 -1,-5 0,3 0,4 -1,6zm-2 0l-5 1 4 -10c-1,7 0,9 1,9zm5 -3c-1,0 -1,-5 -2,-5 0,1 -1,7 -2,6 -1,-1 -2,-5 -2,-9l2 -5c4,6 4,13 4,13z"/>
    <path class="fil10" d="M1360 839l1 -5 -7 1c2,1 4,2 6,4zm-1 4l0 -3c-2,0 -3,-1 -5,-2 3,3 4,4 5,5zm-1 2l-1 5 -8 -9c7,4 8,4 9,4zm0 -6c-1,0 -5,-2 -5,-1 1,1 5,4 4,5 -1,0 -5,-2 -9,-4l-3 -3c6,-1 13,3 13,3z"/>
    <path class="fil10" d="M974 853l2 -5 -8 1c3,1 5,2 6,4zm-1 4l1 -2c-2,-1 -3,-2 -5,-2 3,2 4,3 4,4zm0 2l-1 5 -8 -9c7,4 8,4 9,4zm0 -6c-1,0 -5,-2 -5,-1 0,1 5,5 4,5 -1,1 -6,-2 -9,-4l-4 -3c7,-1 14,3 14,3z"/>
    <path class="fil10" d="M708 772l2 -5 -8 0c3,2 5,3 6,5zm-1 4l1 -3c-2,0 -3,-1 -5,-2 2,2 4,3 4,5zm0 2l-1 4 -8 -8c7,4 8,4 9,4zm0 -6c-1,0 -5,-2 -5,-1 0,1 5,4 4,5 -2,0 -6,-2 -9,-4l-4 -4c7,0 14,4 14,4z"/>
    <path class="fil10" d="M378 819l1 -5 -7 1c2,1 5,2 6,4zm-1 4l1 -2c-2,-1 -3,-1 -5,-2 2,2 4,3 4,4zm0 2l-2 5 -7 -9c6,4 8,4 9,4zm-1 -6c0,0 -4,-1 -4,-1 0,1 5,5 3,5 -1,1 -5,-1 -9,-3l-3 -4c7,-1 14,3 13,3z"/>
    <path class="fil10" d="M1685 779l2 -6 -8 1c3,2 5,3 6,5zm-1 3l1 -2c-2,0 -3,-1 -5,-2 3,2 4,3 4,4zm0 3l-1 4 -8 -8c7,4 8,4 9,4zm0 -6c-1,0 -5,-2 -5,-2 0,1 5,5 4,6 -1,0 -6,-2 -9,-4l-4 -4c7,0 14,4 14,4z"/>
    <path class="fil10" d="M53 826l2 -5 -8 0c3,2 5,3 6,5zm-1 4l1 -3c-2,0 -3,-1 -5,-2 2,2 4,3 4,5zm0 2l-1 4 -8 -8c7,4 8,4 9,4zm0 -6c-1,0 -5,-2 -5,-2 0,2 5,5 4,6 -2,0 -6,-2 -9,-4l-4 -4c7,0 14,4 14,4z"/>
    <path class="fil10" d="M1846 739l1 -5 -7 1c2,1 4,2 6,4zm-1 4l0 -2c-1,-1 -3,-2 -4,-2 2,2 3,3 4,4zm-1 2l-1 5 -7 -9c6,4 7,4 8,4zm0 -6c0,0 -5,-2 -5,-1 1,1 6,5 4,5 -1,1 -5,-2 -9,-4l-3 -3c7,-1 13,3 13,3z"/>
    <path class="fil10" d="M1644 848l2 -5 -8 1c2,1 5,2 6,4zm-1 4l1 -2c-2,-1 -3,-1 -5,-2 2,2 4,3 4,4zm0 2l-2 5 -7 -9c7,4 8,4 9,4zm-1 -6c0,0 -4,-2 -4,-1 0,1 5,5 4,5 -2,1 -6,-1 -10,-3l-3 -4c7,-1 14,3 13,3z"/>
    <path class="fil10" d="M201 842l2 -6 -8 1c3,1 5,3 6,5zm-1 3l1 -2c-2,-1 -3,-1 -5,-2 3,2 4,3 4,4zm0 2l-1 5 -8 -8c7,4 8,4 9,3zm0 -5c-1,0 -5,-2 -5,-2 0,1 5,5 4,6 -1,0 -6,-2 -9,-4l-4 -4c7,0 14,3 14,4z"/>
    <path class="fil10" d="M1152 784l1 -5 -7 1c2,1 4,2 6,4zm-1 4l0 -3c-1,0 -3,-1 -5,-2 3,3 4,4 5,5zm-1 2l-1 5 -8 -9c7,4 8,4 9,4zm0 -6c-1,0 -5,-2 -5,-1 1,1 5,4 4,5 -1,1 -5,-2 -9,-4l-3 -3c6,-1 13,3 13,3z"/>
   </g>
   <g>
    <path class="fil4" d="M412 874l-4 0 5 -14 4 0 5 14 -3 0 -1 -3 -5 0 -1 3zm2 -5l3 0 -2 -5 -1 5zm19 -9c1,0 1,0 2,0l0 3 -1 0c0,0 0,0 0,0 0,0 -1,0 -1,1l-1 3 3 7 -3 0 -3 -6 -2 0 0 6 -4 0 0 -14 4 0 0 6 2 0 2 -4c0,-1 0,-1 1,-1 0,-1 1,-1 1,-1zm4 14l0 -14 3 0 0 11 5 0 0 -11 3 0 0 11 2 0 0 5 -3 0 -1 -2 -9 0zm26 0l-3 0 0 -8 -5 8 -4 0 0 -14 4 0 0 9 5 -9 3 0 0 14zm14 0l-3 0 0 -5 -3 0 -2 5 -4 0 2 -5c0,0 -1,0 -1,-1 -1,-1 -1,-1 -1,-2l0 -2c0,-1 0,-2 1,-3 1,0 2,-1 3,-1l8 0 0 14zm-8 -8c0,0 0,1 1,1l4 0 0 -4 -4 0c-1,0 -1,0 -1,1l0 2zm18 -6l11 0 0 11 1 0 0 5 -3 0 -1 -2 -7 0 0 2 -4 0 0 -5 2 0c0,0 0,-1 0,-1 1,-1 1,-1 1,-2l0 -8zm7 11l0 -8 -4 0 0 5c0,1 0,1 0,2 -1,1 -1,1 -1,1l5 0zm17 3l-10 0 0 -14 10 0 0 3 -7 0 0 3 6 0 0 2 -6 0 0 3 7 0 0 3zm10 0l0 -8 -4 8 -4 0 0 -14 3 0 0 9 5 -9 4 0 0 14 -4 0zm-3 -15c-2,0 -3,0 -3,-2l0 -1 3 0 0 1c0,0 0,0 0,0 0,0 0,0 0,0l1 0c0,0 0,0 0,0 1,0 1,0 1,0l0 -1 2 0 0 1c0,2 -1,2 -2,2l-2 0zm20 15c-3,0 -6,0 -8,0 -1,0 -2,0 -2,-1 -1,0 -1,-1 -1,-3l0 -6c0,-1 0,-2 1,-3 0,0 1,-1 3,-1l7 0 0 3 -7 0c0,0 -1,0 -1,1l0 6c0,1 0,1 0,1 1,0 1,0 1,0 0,0 1,0 1,0 0,0 1,0 1,0 0,0 1,0 1,0 0,0 1,0 1,0 1,0 2,0 3,0l0 3zm8 0l-4 0 0 -11 -4 0 0 -3 12 0 0 3 -4 0 0 11zm5 -14l8 0c1,0 2,1 3,1 0,1 1,2 1,3 0,1 -1,1 -1,2 0,0 -1,0 -1,1 1,0 2,1 2,2 0,0 0,1 0,1 0,1 0,2 -1,3 0,0 -1,1 -3,1l-8 0 0 -14zm9 10c0,-1 -1,-2 -1,-2l-4 0 0 3 4 0c0,0 1,0 1,-1l0 0zm-1 -6c0,-1 0,-1 -1,-1l-3 0 0 3 3 0c1,0 1,-1 1,-1l0 -1zm9 10c-1,0 -2,0 -2,0l0 -3 2 0c0,0 0,0 0,0 0,0 0,-1 0,-1 0,0 0,0 0,0l-5 -10 4 0 3 7 3 -7 4 0 -5 11c0,1 -1,2 -1,2 -1,1 -2,1 -3,1zm21 0l-11 0 0 -14 11 0 0 3 -8 0 0 3 6 0 0 2 -6 0 0 3 8 0 0 3zm8 0l-4 0 0 -11 -4 0 0 -3 12 0 0 3 -4 0 0 11zm11 -14l8 0c1,0 2,1 3,1 0,1 1,2 1,3 0,1 -1,1 -1,2 0,0 -1,0 -1,1 1,0 2,1 2,2 0,0 0,1 0,1 0,1 0,2 -1,3 0,0 -1,1 -2,1l-9 0 0 -14zm9 10c0,-1 -1,-2 -1,-2l-4 0 0 3 4 0c0,0 1,0 1,-1l0 0zm-1 -6c0,-1 0,-1 -1,-1l-3 0 0 3 3 0c1,0 1,-1 1,-1l0 -1zm12 -4l8 0c1,0 2,1 3,1 1,1 1,2 1,3l0 2c0,1 0,2 -1,3 -1,1 -2,1 -3,1l-5 0 0 4 -3 0 0 -14zm8 4c0,-1 0,-1 -1,-1l-4 0 0 4 4 0c1,0 1,0 1,-1l0 -2zm7 10l-4 0 5 -14 4 0 5 14 -4 0 0 -3 -5 0 -1 3zm2 -5l3 0 -2 -5 -1 5zm21 -3l-3 5 -3 0 -2 -5 0 8 -4 0 0 -14 4 0 4 7 4 -7 3 0 0 14 -3 0 0 -8zm16 -6c0,0 0,0 1,0l0 3 0 0c-1,0 -1,0 -1,0 0,0 0,0 0,1l-2 3 4 7 -4 0 -3 -6 -2 0 0 6 -3 0 0 -14 3 0 0 6 2 0 2 -4c0,-1 1,-1 1,-1 0,-1 1,-1 2,-1zm5 14l-4 0 6 -14 3 0 6 14 -4 0 -1 -3 -5 0 -1 3zm2 -5l3 0 -1 -5 -2 5zm17 -9l4 0 -4 7 4 7 -3 0 -3 -4 -3 4 -4 0 5 -7 -5 -7 4 0 3 5 2 -5zm23 14l-3 0 0 -11 -5 0 0 11 -4 0 0 -14 12 0 0 14zm2 -14l9 0c1,0 2,1 3,1 0,1 0,2 0,3l0 2c0,1 0,2 0,3 -1,1 -2,1 -3,1l-5 0 0 4 -4 0 0 -14zm9 4c0,-1 0,-1 -1,-1l-4 0 0 4 4 0c1,0 1,0 1,-1l0 -2zm14 0c0,-1 0,-1 -1,-1l-4 0c0,0 -1,0 -1,1l0 6c0,1 1,1 1,1l4 0c1,0 1,0 1,-1l0 -6zm3 6c0,1 0,2 0,3 -1,1 -2,1 -3,1l-5 0c-2,0 -3,0 -3,-1 -1,-1 -1,-2 -1,-3l0 -6c0,-1 0,-2 1,-3 0,-1 1,-1 3,-1l5 0c1,0 2,0 3,1 0,1 0,2 0,3l0 6zm2 -10l8 0c1,0 2,1 3,1 1,1 1,2 1,3 0,1 0,1 -1,2 0,0 0,0 -1,1 1,0 2,1 2,2 0,0 0,1 0,1 0,1 0,2 0,3 -1,0 -2,1 -3,1l-9 0 0 -14zm9 10c0,-1 0,-2 -1,-2l-4 0 0 3 4 0c1,0 1,0 1,-1l0 0zm-1 -6c0,-1 0,-1 -1,-1l-3 0 0 3 3 0c1,0 1,-1 1,-1l0 -1zm17 10l-11 0 0 -14 11 0 0 3 -7 0 0 3 5 0 0 2 -5 0 0 3 7 0 0 3zm3 -14l11 0 0 11 1 0 0 5 -3 0 0 -2 -8 0 0 2 -3 0 0 -5 1 0c0,0 0,-1 1,-1 0,-1 0,-1 0,-2l0 -8zm7 11l0 -8 -3 0 -1 5c0,1 0,1 0,2 0,1 -1,1 -1,1l5 0zm17 3l-10 0 0 -14 10 0 0 3 -7 0 0 3 6 0 0 2 -6 0 0 3 7 0 0 3zm14 0l-4 0 0 -6 -4 0 0 6 -4 0 0 -14 4 0 0 6 4 0 0 -6 4 0 0 14zm14 0l-3 0 0 -8 -5 8 -4 0 0 -14 4 0 0 9 4 -9 4 0 0 14zm14 0l-3 0 0 -5 -3 0 -3 5 -3 0 2 -5c0,0 -1,0 -1,-1 -1,-1 -1,-1 -1,-2l0 -2c0,-1 0,-2 1,-3 1,0 2,-1 3,-1l8 0 0 14zm-9 -8c0,0 1,1 2,1l4 0 0 -4 -4 0c-1,0 -2,0 -2,1l0 2zm27 -1c0,1 -1,2 -1,2 -1,1 -1,1 -1,1l-5 3 7 0 0 3 -11 0 0 -4 7 -5 0 -1c0,-1 0,-1 -1,-1l-5 0 0 -3 6 0c1,0 2,1 3,1 1,1 1,2 1,3l0 1zm2 6c3,0 4,0 5,0 1,0 1,0 1,0 0,0 0,0 0,-1l0 -1c-1,0 -2,0 -3,0l-1 0c-1,0 -2,0 -2,-1 -1,0 -1,-1 -1,-2l0 -2c0,-2 0,-2 1,-3 0,-1 1,-1 3,-1l3 0c2,0 2,0 3,1 1,1 1,1 1,3l0 6c0,2 0,3 -1,3 -1,1 -1,1 -3,1 -2,0 -4,0 -6,0l0 -3zm4 -5c1,0 2,0 2,0l0 -2c0,-1 0,-1 -1,-1l-1 0c-1,0 -2,0 -2,1l0 2c0,0 0,0 1,0 0,0 0,0 0,0l1 0zm25 0l-2 5 -3 0 -3 -5 0 8 -3 0 0 -14 3 0 4 7 4 -7 4 0 0 14 -4 0 0 -8zm17 8l-11 0 0 -14 11 0 0 3 -7 0 0 3 5 0 0 2 -5 0 0 3 7 0 0 3zm18 -14c0,0 1,0 2,0l0 3 -1 0c0,0 0,0 -1,0 0,0 0,0 0,1l-2 3 4 7 -4 0 -3 -6 -1 0 0 6 -4 0 0 -6 -1 0 -3 6 -4 0 4 -7 -2 -3c0,-1 0,-1 0,-1 0,0 0,0 -1,0l0 0 0 -3c1,0 1,0 1,0 1,0 2,0 2,1 1,0 1,0 1,1l2 4 1 0 0 -6 4 0 0 6 1 0 2 -4c1,-1 1,-1 1,-1 1,-1 1,-1 2,-1zm5 0l10 0 0 11 2 0 0 5 -4 0 0 -2 -7 0 0 2 -4 0 0 -5 1 0c1,0 1,-1 1,-1 1,-1 1,-1 1,-2l0 -8zm7 11l0 -8 -4 0 0 5c0,1 0,1 -1,2 0,1 0,1 0,1l5 0zm9 3c0,0 -1,0 -2,0l0 -3 2 0c0,0 1,0 1,0 0,0 0,-1 0,-1 0,0 0,0 0,0l-6 -10 4 0 4 7 3 -7 4 0 -5 11c-1,1 -1,2 -2,2 -1,1 -2,1 -3,1zm22 0l-3 0 0 -6 -5 0 0 6 -4 0 0 -14 4 0 0 6 5 0 0 -6 3 0 0 14zm5 0l-4 0 5 -14 4 0 5 14 -3 0 -1 -3 -5 0 -1 3zm2 -5l3 0 -2 -5 -1 5zm9 -9l8 0c2,0 3,1 3,1 1,1 1,2 1,3l0 2c0,1 0,2 -1,3 0,1 -1,1 -3,1l-4 0 0 4 -4 0 0 -14zm9 4c0,-1 -1,-1 -1,-1l-4 0 0 4 4 0c0,0 1,0 1,-1l0 -2zm14 0c0,-1 -1,-1 -1,-1l-4 0c0,0 -1,0 -1,1l0 6c0,1 1,1 1,1l4 0c0,0 1,0 1,-1l0 -6zm3 6c0,1 0,2 -1,3 0,1 -1,1 -3,1l-4 0c-2,0 -3,0 -3,-1 -1,-1 -1,-2 -1,-3l0 -6c0,-1 0,-2 1,-3 0,-1 1,-1 3,-1l4 0c2,0 3,0 3,1 1,1 1,2 1,3l0 6zm4 -10l10 0 0 11 2 0 0 5 -4 0 0 -2 -8 0 0 2 -3 0 0 -5 1 0c1,0 1,-1 1,-1 0,-1 0,-1 0,-2l1 -8zm7 11l0 -8 -4 0 0 5c0,1 -1,1 -1,2 0,1 0,1 0,1l5 0zm18 3l-4 0 0 -6 -4 0 0 6 -4 0 0 -14 4 0 0 6 4 0 0 -6 4 0 0 14zm11 -10c0,-1 0,-1 -1,-1l-3 0c-1,0 -2,0 -2,1l0 6c0,1 1,1 2,1l3 0c1,0 1,0 1,-1l0 -6zm3 6c0,1 0,2 0,3 -1,1 -2,1 -3,1l-5 0c-2,0 -3,0 -3,-1 -1,-1 -1,-2 -1,-3l0 -6c0,-1 0,-2 1,-3 0,-1 1,-1 3,-1l5 0c1,0 2,0 3,1 0,1 0,2 0,3l0 6zm11 4l0 -8 -5 8 -4 0 0 -14 4 0 0 9 5 -9 3 0 0 14 -3 0zm-4 -15c-1,0 -2,0 -2,-2l0 -1 2 0 0 1c0,0 0,0 0,0 1,0 1,0 1,0l1 0c0,0 0,0 0,0 0,0 0,0 0,0l0 -1 3 0 0 1c0,2 -1,2 -3,2l-2 0zm15 1l8 0c1,0 2,1 3,1 1,1 1,2 1,3 0,1 0,1 -1,2 0,0 0,0 -1,1 1,0 2,1 2,2 0,0 0,1 0,1 0,1 0,2 0,3 -1,0 -2,1 -3,1l-9 0 0 -14zm9 10c0,-1 0,-2 -1,-2l-4 0 0 3 4 0c1,0 1,0 1,-1l0 0zm-1 -6c0,-1 0,-1 -1,-1l-3 0 0 3 3 0c1,0 1,-1 1,-1l0 -1zm10 1l4 0c2,0 3,0 3,1 1,0 1,1 1,3l0 1c0,1 0,2 -1,3 0,0 -1,1 -3,1l-8 0 0 -14 4 0 0 5zm13 9l-3 0 0 -14 3 0 0 14zm-8 -5c0,-1 -1,-1 -2,-1l-3 0 0 3 3 0c1,0 2,0 2,-1l0 -1zm21 5c-3,0 -5,0 -7,0 -1,0 -2,0 -3,-1 -1,0 -1,-1 -1,-3l0 -6c0,-1 0,-2 1,-3 1,0 2,-1 3,-1l7 0 0 3 -6 0c-1,0 -1,0 -1,1l0 6c0,1 0,1 0,1 0,0 0,0 1,0 0,0 0,0 0,0 1,0 1,0 1,0 1,0 1,0 1,0 1,0 1,0 2,0 0,0 1,0 2,0l0 3zm8 0l-3 0 0 -11 -4 0 0 -3 11 0 0 3 -4 0 0 11zm7 0l-4 0 5 -14 4 0 5 14 -4 0 -1 -3 -4 0 -1 3zm1 -5l3 0 -1 -5 -2 5zm10 -9l8 0c1,0 2,1 3,1 0,1 0,2 0,3 0,1 0,1 0,2 0,0 -1,0 -1,1 1,0 1,1 2,2 0,0 0,1 0,1 0,1 0,2 -1,3 0,0 -1,1 -3,1l-8 0 0 -14zm9 10c0,-1 -1,-2 -2,-2l-3 0 0 3 3 0c1,0 2,0 2,-1l0 0zm-1 -6c0,-1 0,-1 -1,-1l-3 0 0 3 3 0c1,0 1,-1 1,-1l0 -1zm16 -4c0,0 1,0 1,0l0 3 0 0c-1,0 -1,0 -1,0 0,0 0,0 0,1l-2 3 4 7 -4 0 -3 -6 -2 0 0 6 -3 0 0 -14 3 0 0 6 2 0 2 -4c0,-1 1,-1 1,-1 0,-1 1,-1 2,-1zm15 14l-4 0 0 -8 -4 8 -4 0 0 -14 3 0 0 9 5 -9 4 0 0 14zm13 -2l-2 2 -4 -5 4 -5 2 1 -3 4 3 3zm2 -3l3 3 -2 2 -4 -5 4 -5 2 1 -3 4zm16 -3l-2 5 -3 0 -3 -5 0 8 -3 0 0 -14 3 0 4 7 4 -7 4 0 0 14 -4 0 0 -8zm17 8l-11 0 0 -14 11 0 0 3 -7 0 0 3 6 0 0 2 -6 0 0 3 7 0 0 3zm5 -8l5 0c1,0 2,0 3,0 0,1 1,2 1,3l0 1c0,1 -1,2 -1,3 -1,0 -2,1 -3,1l-8 0 0 -14 10 0 0 3 -7 0 0 3zm5 3c0,0 0,-1 -1,-1l-4 0 0 3 4 0c1,0 1,0 1,-1l0 -1zm16 5l-11 0 0 -14 11 0 0 3 -7 0 0 3 6 0 0 2 -6 0 0 3 7 0 0 3zm6 -3c0,1 -1,2 -1,2 -1,1 -1,1 -2,1 -1,0 -2,0 -2,0l0 -3 1 0c0,0 0,0 0,0 0,0 1,0 1,-1l0 -10 11 0 0 14 -4 0 0 -11 -4 0 0 8zm14 -6l4 0c2,0 3,0 3,1 1,0 1,1 1,3l0 1c0,1 0,2 -1,3 0,0 -1,1 -3,1l-8 0 0 -14 4 0 0 5zm5 4c0,-1 -1,-1 -1,-1l-4 0 0 3 4 0c0,0 1,0 1,-1l0 -1zm23 5l-4 0 0 -8 -4 8 -4 0 0 -14 3 0 0 9 5 -9 4 0 0 14zm14 0l-4 0 0 -6 -4 0 0 6 -4 0 0 -14 4 0 0 6 4 0 0 -6 4 0 0 14zm9 0l-4 0 0 -11 -4 0 0 -3 12 0 0 3 -4 0 0 11zm16 0l-11 0 0 -14 11 0 0 3 -7 0 0 3 5 0 0 2 -5 0 0 3 7 0 0 3zm2 -14l8 0c1,0 2,1 3,1 0,1 1,2 1,3l0 2c0,1 -1,2 -1,3 -1,1 -2,1 -3,1l-5 0 0 4 -3 0 0 -14zm8 4c0,-1 0,-1 -1,-1l-4 0 0 4 4 0c1,0 1,0 1,-1l0 -2zm9 1l5 0c1,0 2,0 3,1 0,0 0,1 0,3l0 1c0,1 0,2 0,3 -1,0 -2,1 -3,1l-9 0 0 -14 4 0 0 5zm5 4c0,-1 0,-1 -1,-1l-4 0 0 3 4 0c1,0 1,0 1,-1l0 -1zm16 5l-11 0 0 -14 11 0 0 3 -7 0 0 3 5 0 0 2 -5 0 0 3 7 0 0 3zm2 -14l8 0c1,0 2,1 3,1 0,1 1,2 1,3l0 2c0,1 -1,2 -1,3 -1,1 -2,1 -3,1l-5 0 0 4 -3 0 0 -14zm8 4c0,-1 0,-1 -1,-1l-4 0 0 4 4 0c1,0 1,0 1,-1l0 -2zm13 -4l10 0 0 11 2 0 0 5 -4 0 0 -2 -7 0 -1 2 -3 0 0 -5 1 0c1,0 1,-1 1,-1 0,-1 1,-1 1,-2l0 -8zm7 11l0 -8 -4 0 0 5c0,1 0,1 -1,2 0,1 0,1 0,1l5 0zm18 3l-3 0 0 -8 -5 8 -4 0 0 -14 4 0 0 9 4 -9 4 0 0 14zm2 -3c3,0 5,0 7,0 0,0 0,0 0,0 1,0 1,0 1,-1l0 0c0,-1 -1,-2 -1,-2l-5 0 0 -2 4 0c1,0 1,-1 1,-1l0 -1c0,-1 0,-1 -1,-1l-6 0 0 -3 7 0c1,0 2,1 3,1 0,1 1,2 1,3 0,1 0,1 -1,2 0,0 -1,0 -1,1 1,0 2,1 2,2 0,0 0,1 0,1l0 0c0,2 0,3 -1,3 0,1 -1,1 -3,1 -2,0 -4,0 -7,0l0 -3zm15 3l-3 0 5 -14 4 0 5 14 -4 0 -1 -3 -5 0 -1 3zm2 -5l3 0 -1 -5 -2 5zm18 5l0 -8 -5 8 -3 0 0 -14 3 0 0 9 5 -9 4 0 0 14 -4 0zm-3 -15c-2,0 -3,0 -3,-2l0 -1 3 0 0 1c0,0 0,0 0,0 0,0 0,0 0,0l1 0c0,0 0,0 0,0 0,0 1,0 1,0l0 -1 2 0 0 1c0,2 -1,2 -2,2l-2 0zm21 15l-4 0 0 -6 -5 0 0 6 -3 0 0 -14 3 0 0 6 5 0 0 -6 4 0 0 14zm1 -9l2 -1 5 5 -5 5 -2 -2 3 -3 -3 -4zm8 4l-3 -4 2 -1 5 5 -5 5 -2 -2 3 -3z"/>
    <path class="fil11" d="M411 874l-4 0 6 -13 3 0 6 13 -4 0 -1 -2 -5 0 -1 2zm2 -5l3 0 -1 -4 -2 4zm19 -8c1,0 1,0 2,0l0 2 -1 0c0,0 0,0 0,1 0,0 0,0 0,0l-2 3 4 7 -4 0 -3 -5 -2 0 0 5 -3 0 0 -13 3 0 0 5 2 0 2 -4c0,0 0,-1 1,-1 0,0 1,0 1,0zm4 13l0 -13 3 0 0 10 5 0 0 -10 4 0 0 10 1 0 0 6 -3 0 -1 -3 -9 0zm26 0l-3 0 0 -8 -5 8 -3 0 0 -13 3 0 0 8 5 -8 3 0 0 13zm14 0l-3 0 0 -4 -3 0 -2 4 -4 0 3 -4c-1,-1 -2,-1 -2,-2 0,0 -1,-1 -1,-2l0 -1c0,-2 1,-3 1,-3 1,-1 2,-1 3,-1l8 0 0 13zm-8 -8c0,1 0,1 1,1l4 0 0 -4 -4 0c-1,0 -1,1 -1,2l0 1zm18 -5l11 0 0 10 1 0 0 6 -3 0 0 -3 -8 0 0 3 -3 0 0 -6 1 0c0,0 0,0 1,-1 0,0 0,-1 0,-1l0 -8zm7 10l0 -8 -3 0 -1 5c0,1 0,2 0,3 0,0 -1,0 -1,0l5 0zm17 3l-10 0 0 -13 10 0 0 2 -7 0 0 3 6 0 0 3 -6 0 0 2 7 0 0 3zm10 0l0 -8 -4 8 -4 0 0 -13 4 0 0 8 4 -8 4 0 0 13 -4 0zm-3 -14c-2,0 -3,-1 -3,-3l0 0 3 0 0 0c0,0 0,1 0,1 0,0 0,0 1,0l0 0c0,0 1,0 1,0 0,0 0,-1 0,-1l0 0 2 0 0 0c0,2 0,3 -2,3l-2 0zm20 14c-3,0 -6,0 -7,0 -2,0 -3,0 -3,-1 -1,0 -1,-1 -1,-2l0 -6c0,-2 0,-3 1,-3 0,-1 1,-1 3,-1l7 0 0 2 -7 0c0,0 -1,1 -1,2l0 6c0,0 0,0 1,0 0,1 0,1 0,1 1,0 1,0 1,0 0,0 1,0 1,0 1,0 1,0 1,0 1,0 1,0 2,0 0,-1 1,-1 2,-1l0 3zm8 0l-4 0 0 -11 -4 0 0 -2 12 0 0 2 -4 0 0 11zm5 -13l8 0c1,0 2,0 3,1 0,0 1,1 1,2 0,1 0,2 -1,2 0,1 0,1 -1,1 1,0 2,1 2,2 0,1 0,1 0,2 0,1 0,2 -1,2 0,1 -1,1 -2,1l-9 0 0 -13zm9 9c0,-1 -1,-1 -1,-1l-4 0 0 2 4 0c0,0 1,0 1,-1l0 0zm-1 -5c0,-1 0,-2 -1,-2l-3 0 0 3 3 0c1,0 1,0 1,-1l0 0zm9 9c-1,0 -1,0 -2,0l0 -2 2 0c0,0 0,-1 1,-1 0,0 0,0 0,0 0,0 0,-1 0,-1l-6 -9 4 0 4 7 2 -7 4 0 -5 10c0,1 -1,2 -1,3 -1,0 -2,0 -3,0zm21 0l-11 0 0 -13 11 0 0 2 -7 0 0 3 5 0 0 3 -5 0 0 2 7 0 0 3zm8 0l-3 0 0 -11 -5 0 0 -2 12 0 0 2 -4 0 0 11zm11 -13l8 0c1,0 2,0 3,1 1,0 1,1 1,2 0,1 0,2 -1,2 0,1 0,1 -1,1 1,0 2,1 2,2 0,1 0,1 0,2 0,1 0,2 -1,2 0,1 -1,1 -2,1l-9 0 0 -13zm9 9c0,-1 -1,-1 -1,-1l-4 0 0 2 4 0c0,0 1,0 1,-1l0 0zm-1 -5c0,-1 0,-2 -1,-2l-3 0 0 3 3 0c1,0 1,0 1,-1l0 0zm12 -4l8 0c1,0 2,0 3,1 1,0 1,1 1,3l0 2c0,1 0,2 -1,2 -1,1 -2,1 -3,1l-5 0 0 4 -3 0 0 -13zm9 4c0,-1 -1,-2 -2,-2l-4 0 0 5 4 0c1,0 2,-1 2,-1l0 -2zm6 9l-4 0 5 -13 4 0 5 13 -3 0 -1 -2 -5 0 -1 2zm2 -5l3 0 -2 -4 -1 4zm21 -2l-3 4 -2 0 -3 -4 0 7 -4 0 0 -13 4 0 4 7 4 -7 4 0 0 13 -4 0 0 -7zm16 -6c0,0 1,0 2,0l0 2 -1 0c0,0 -1,0 -1,1 0,0 0,0 0,0l-2 3 4 7 -4 0 -3 -5 -2 0 0 5 -3 0 0 -13 3 0 0 5 2 0 2 -4c0,0 1,-1 1,-1 1,0 1,0 2,0zm5 13l-3 0 5 -13 4 0 5 13 -4 0 -1 -2 -5 0 -1 2zm2 -5l3 0 -1 -4 -2 4zm18 -8l4 0 -5 6 5 7 -4 0 -3 -4 -3 4 -4 0 5 -7 -4 -6 3 0 3 4 3 -4zm22 13l-3 0 0 -11 -5 0 0 11 -4 0 0 -13 12 0 0 13zm3 -13l8 0c1,0 2,0 3,1 0,0 1,1 1,3l0 2c0,1 -1,2 -1,2 -1,1 -2,1 -3,1l-5 0 0 4 -3 0 0 -13zm8 4c0,-1 0,-2 -1,-2l-4 0 0 5 4 0c1,0 1,-1 1,-1l0 -2zm14 -1c0,0 0,-1 -1,-1l-3 0c-1,0 -1,1 -1,1l0 7c0,0 0,1 1,1l3 0c1,0 1,-1 1,-1l0 -7zm4 7c0,1 -1,2 -1,2 -1,1 -2,1 -3,1l-5 0c-1,0 -2,0 -3,-1 -1,0 -1,-1 -1,-2l0 -7c0,-1 0,-2 1,-3 1,0 2,0 3,0l5 0c1,0 2,0 3,0 0,1 1,2 1,3l0 7zm2 -10l7 0c2,0 3,0 3,1 1,0 1,1 1,2 0,1 0,2 0,2 -1,1 -1,1 -2,1 1,0 2,1 2,2 1,1 1,1 1,2 0,1 -1,2 -1,2 -1,1 -2,1 -3,1l-8 0 0 -13zm8 9c0,-1 0,-1 -1,-1l-4 0 0 2 4 0c1,0 1,0 1,-1l0 0zm0 -5c0,-1 -1,-2 -2,-2l-3 0 0 3 3 0c1,0 2,0 2,-1l0 0zm16 9l-11 0 0 -13 11 0 0 2 -7 0 0 3 6 0 0 3 -6 0 0 2 7 0 0 3zm4 -13l10 0 0 10 1 0 0 6 -3 0 0 -3 -8 0 0 3 -3 0 0 -6 1 0c0,0 1,0 1,-1 0,0 0,-1 0,-1l1 -8zm6 10l0 -8 -3 0 -1 5c0,1 0,2 0,3 0,0 0,0 -1,0l5 0zm18 3l-11 0 0 -13 11 0 0 2 -8 0 0 3 6 0 0 3 -6 0 0 2 8 0 0 3zm13 0l-3 0 0 -5 -5 0 0 5 -4 0 0 -13 4 0 0 5 5 0 0 -5 3 0 0 13zm14 0l-3 0 0 -8 -5 8 -4 0 0 -13 4 0 0 8 5 -8 3 0 0 13zm14 0l-3 0 0 -4 -3 0 -2 4 -4 0 3 -4c-1,-1 -2,-1 -2,-2 -1,0 -1,-1 -1,-2l0 -1c0,-2 0,-3 1,-3 1,-1 2,-1 3,-1l8 0 0 13zm-8 -8c0,1 0,1 1,1l4 0 0 -4 -4 0c-1,0 -1,1 -1,2l0 1zm26 -1c0,1 0,2 -1,3 -1,0 -1,0 -1,1l-4 2 6 0 0 3 -10 0 0 -3 7 -5 0 -1c0,-1 -1,-2 -2,-2l-5 0 0 -2 6 0c2,0 3,0 3,1 1,0 1,1 1,3l0 0zm2 6c3,1 5,1 6,1 0,0 0,0 0,-1 1,0 1,0 1,0l0 -2c-2,0 -3,0 -4,0l-1 0c-1,0 -2,0 -2,0 -1,-1 -1,-2 -1,-2l0 -3c0,-1 0,-2 1,-3 1,0 1,0 3,0l3 0c2,0 3,0 3,0 1,1 1,2 1,3l0 7c0,1 0,2 -1,2 0,1 -1,1 -3,1 -1,0 -3,0 -6,0l0 -3zm4 -4c1,0 2,0 3,0l0 -3c0,0 -1,-1 -2,-1l-1 0c-1,0 -1,1 -1,1l0 2c0,0 0,0 0,1 0,0 0,0 0,0l1 0zm26 0l-3 4 -3 0 -3 -4 0 7 -3 0 0 -13 4 0 3 7 4 -7 4 0 0 13 -3 0 0 -7zm16 7l-11 0 0 -13 11 0 0 2 -7 0 0 3 6 0 0 3 -6 0 0 2 7 0 0 3zm18 -13c0,0 1,0 2,0l0 2 -1 0c0,0 0,0 0,1 -1,0 -1,0 -1,0l-2 3 4 7 -3 0 -4 -5 -1 0 0 5 -3 0 0 -5 -2 0 -3 5 -3 0 3 -7 -1 -3c-1,0 -1,0 -1,0 0,-1 0,-1 0,-1l-1 0 0 -2c1,0 1,0 2,0 0,0 1,0 1,0 1,0 1,1 1,1l2 4 2 0 0 -5 3 0 0 5 1 0 2 -4c1,0 1,-1 2,-1 0,0 0,0 1,0zm5 0l11 0 0 10 1 0 0 6 -3 0 -1 -3 -7 0 0 3 -4 0 0 -6 2 0c0,0 0,0 1,-1 0,0 0,-1 0,-1l0 -8zm7 10l0 -8 -4 0 0 5c0,1 0,2 0,3 -1,0 -1,0 -1,0l5 0zm9 3c0,0 -1,0 -2,0l0 -2 2 0c1,0 1,-1 1,-1 0,0 0,0 0,0 0,0 0,-1 0,-1l-5 -9 3 0 4 7 3 -7 4 0 -5 10c-1,1 -1,2 -2,3 -1,0 -1,0 -3,0zm22 0l-3 0 0 -5 -5 0 0 5 -3 0 0 -13 3 0 0 5 5 0 0 -5 3 0 0 13zm5 0l-4 0 6 -13 3 0 6 13 -4 0 -1 -2 -5 0 -1 2zm2 -5l3 0 -2 -4 -1 4zm10 -8l8 0c1,0 2,0 3,1 0,0 1,1 1,3l0 2c0,1 -1,2 -1,2 -1,1 -2,1 -3,1l-5 0 0 4 -3 0 0 -13zm8 4c0,-1 0,-2 -1,-2l-4 0 0 5 4 0c1,0 1,-1 1,-1l0 -2zm14 -1c0,0 0,-1 -1,-1l-3 0c-1,0 -2,1 -2,1l0 7c0,0 1,1 2,1l3 0c1,0 1,-1 1,-1l0 -7zm4 7c0,1 -1,2 -1,2 -1,1 -2,1 -3,1l-5 0c-2,0 -3,0 -3,-1 -1,0 -1,-1 -1,-2l0 -7c0,-1 0,-2 1,-3 0,0 1,0 3,0l5 0c1,0 2,0 3,0 0,1 1,2 1,3l0 7zm3 -10l10 0 0 10 2 0 0 6 -4 0 0 -3 -7 0 -1 3 -3 0 0 -6 1 0c1,0 1,0 1,-1 0,0 1,-1 1,-1l0 -8zm7 10l0 -8 -4 0 0 5c0,1 0,2 -1,3 0,0 0,0 0,0l5 0zm18 3l-3 0 0 -5 -5 0 0 5 -4 0 0 -13 4 0 0 5 5 0 0 -5 3 0 0 13zm11 -10c0,0 0,-1 -1,-1l-3 0c-1,0 -1,1 -1,1l0 7c0,0 0,1 1,1l3 0c1,0 1,-1 1,-1l0 -7zm4 7c0,1 -1,2 -1,2 -1,1 -2,1 -3,1l-5 0c-1,0 -2,0 -3,-1 -1,0 -1,-1 -1,-2l0 -7c0,-1 0,-2 1,-3 1,0 2,0 3,0l5 0c1,0 2,0 3,0 0,1 1,2 1,3l0 7zm10 3l0 -8 -5 8 -3 0 0 -13 3 0 0 8 5 -8 3 0 0 13 -3 0zm-4 -14c-1,0 -2,-1 -2,-3l0 0 2 0 0 0c0,0 1,1 1,1 0,0 0,0 0,0l1 0c0,0 0,0 0,0 0,0 0,-1 0,-1l0 0 3 0 0 0c0,2 -1,3 -3,3l-2 0zm16 1l7 0c2,0 3,0 3,1 1,0 1,1 1,2 0,1 0,2 0,2 -1,1 -1,1 -2,1 1,0 2,1 2,2 1,1 1,1 1,2 0,1 -1,2 -1,2 -1,1 -2,1 -3,1l-8 0 0 -13zm8 9c0,-1 0,-1 -1,-1l-4 0 0 2 4 0c1,0 1,0 1,-1l0 0zm0 -5c0,-1 -1,-2 -2,-2l-3 0 0 3 3 0c1,0 2,0 2,-1l0 0zm9 0l4 0c2,0 3,1 3,1 1,1 1,2 1,3l0 1c0,2 0,3 -1,3 0,1 -1,1 -3,1l-8 0 0 -13 4 0 0 4zm13 9l-3 0 0 -13 3 0 0 13zm-8 -5c0,-1 -1,-1 -1,-1l-4 0 0 3 4 0c0,0 1,0 1,-1l0 -1zm21 5c-3,0 -5,0 -7,0 -1,0 -2,0 -3,-1 0,0 -1,-1 -1,-2l0 -6c0,-2 1,-3 1,-3 1,-1 2,-1 3,-1l7 0 0 2 -6 0c-1,0 -1,1 -1,2l0 6c0,0 0,0 0,0 0,1 0,1 1,1 0,0 0,0 1,0 0,0 0,0 1,0 0,0 0,0 1,0 0,0 0,0 1,0 1,-1 1,-1 2,-1l0 3zm8 0l-3 0 0 -11 -4 0 0 -2 11 0 0 2 -4 0 0 11zm7 0l-4 0 5 -13 4 0 5 13 -4 0 0 -2 -5 0 -1 2zm2 -5l3 0 -2 -4 -1 4zm9 -8l8 0c1,0 2,0 3,1 0,0 1,1 1,2 0,1 -1,2 -1,2 0,1 -1,1 -1,1 1,0 2,1 2,2 0,1 0,1 0,2 0,1 0,2 -1,2 0,1 -1,1 -2,1l-9 0 0 -13zm9 9c0,-1 -1,-1 -1,-1l-4 0 0 2 4 0c0,0 1,0 1,-1l0 0zm-1 -5c0,-1 0,-2 -1,-2l-3 0 0 3 3 0c1,0 1,0 1,-1l0 0zm16 -4c0,0 1,0 2,0l0 2 -1 0c0,0 -1,0 -1,1 0,0 0,0 0,0l-2 3 4 7 -4 0 -3 -5 -2 0 0 5 -3 0 0 -13 3 0 0 5 2 0 2 -4c0,0 1,-1 1,-1 1,0 1,0 2,0zm15 13l-4 0 0 -8 -4 8 -4 0 0 -13 4 0 0 8 4 -8 4 0 0 13zm14 -2l-2 2 -5 -5 5 -5 2 2 -3 3 3 3zm1 -3l3 3 -2 2 -4 -5 4 -5 2 2 -3 3zm17 -2l-3 4 -3 0 -3 -4 0 7 -3 0 0 -13 4 0 4 7 3 -7 4 0 0 13 -3 0 0 -7zm16 7l-11 0 0 -13 11 0 0 2 -7 0 0 3 6 0 0 3 -6 0 0 2 7 0 0 3zm5 -8l5 0c1,0 2,0 3,1 1,0 1,1 1,3l0 0c0,2 0,3 -1,3 -1,1 -2,1 -3,1l-8 0 0 -13 11 0 0 2 -8 0 0 3zm5 4c0,-1 0,-1 -1,-1l-4 0 0 2 4 0c1,0 1,0 1,-1l0 0zm16 4l-10 0 0 -13 10 0 0 2 -7 0 0 3 6 0 0 3 -6 0 0 2 7 0 0 3zm6 -3c0,1 0,2 -1,3 0,0 -1,0 -2,0 -1,0 -1,0 -2,0l0 -2 1 0c0,0 0,-1 0,-1 1,0 1,0 1,0l0 -10 11 0 0 13 -3 0 0 -11 -5 0 0 8zm14 -6l5 0c1,0 2,1 3,1 0,1 0,2 0,3l0 1c0,2 0,3 0,3 -1,1 -2,1 -3,1l-9 0 0 -13 4 0 0 4zm5 4c0,-1 0,-1 -1,-1l-4 0 0 3 4 0c1,0 1,0 1,-1l0 -1zm23 5l-4 0 0 -8 -4 8 -4 0 0 -13 4 0 0 8 4 -8 4 0 0 13zm14 0l-3 0 0 -5 -5 0 0 5 -4 0 0 -13 4 0 0 5 5 0 0 -5 3 0 0 13zm9 0l-3 0 0 -11 -5 0 0 -2 12 0 0 2 -4 0 0 11zm16 0l-11 0 0 -13 11 0 0 2 -7 0 0 3 6 0 0 3 -6 0 0 2 7 0 0 3zm2 -13l8 0c1,0 2,0 3,1 1,0 1,1 1,3l0 2c0,1 0,2 -1,2 -1,1 -2,1 -3,1l-5 0 0 4 -3 0 0 -13zm8 4c0,-1 0,-2 -1,-2l-4 0 0 5 4 0c1,0 1,-1 1,-1l0 -2zm9 0l5 0c1,0 2,1 3,1 0,1 1,2 1,3l0 1c0,2 -1,3 -1,3 -1,1 -2,1 -3,1l-8 0 0 -13 3 0 0 4zm5 4c0,-1 0,-1 -1,-1l-4 0 0 3 4 0c1,0 1,0 1,-1l0 -1zm16 5l-11 0 0 -13 11 0 0 2 -7 0 0 3 6 0 0 3 -6 0 0 2 7 0 0 3zm2 -13l8 0c1,0 2,0 3,1 0,0 1,1 1,3l0 2c0,1 -1,2 -1,2 -1,1 -2,1 -3,1l-5 0 0 4 -3 0 0 -13zm8 4c0,-1 0,-2 -1,-2l-4 0 0 5 4 0c1,0 1,-1 1,-1l0 -2zm13 -4l10 0 0 10 2 0 0 6 -3 0 -1 -3 -7 0 0 3 -4 0 0 -6 2 0c0,0 0,0 0,-1 1,0 1,-1 1,-1l0 -8zm7 10l0 -8 -4 0 0 5c0,1 0,2 0,3 -1,0 -1,0 -1,0l5 0zm18 3l-3 0 0 -8 -5 8 -4 0 0 -13 4 0 0 8 5 -8 3 0 0 13zm2 -3c3,1 6,1 7,1 0,0 0,0 1,-1 0,0 0,0 0,0l0 -1c0,-1 -1,-1 -1,-1l-5 0 0 -3 4 0c1,0 1,0 1,-1l0 0c0,-1 0,-2 -1,-2l-6 0 0 -2 7 0c2,0 2,0 3,1 1,0 1,1 1,2 0,1 0,2 -1,2 0,1 0,1 -1,1 1,0 2,1 2,2 0,1 0,1 0,2l0 0c0,1 0,2 -1,2 0,1 -1,1 -2,1 -3,0 -5,0 -8,0l0 -3zm16 3l-4 0 5 -13 4 0 5 13 -4 0 -1 -2 -5 0 0 2zm1 -5l3 0 -1 -4 -2 4zm18 5l0 -8 -4 8 -4 0 0 -13 3 0 0 8 5 -8 4 0 0 13 -4 0zm-3 -14c-2,0 -3,-1 -3,-3l0 0 3 0 0 0c0,0 0,1 0,1 0,0 0,0 0,0l1 0c0,0 0,0 0,0 1,0 1,-1 1,-1l0 0 2 0 0 0c0,2 -1,3 -2,3l-2 0zm21 14l-4 0 0 -5 -4 0 0 5 -4 0 0 -13 4 0 0 5 4 0 0 -5 4 0 0 13zm1 -8l2 -2 5 5 -5 5 -2 -2 3 -3 -3 -3zm8 3l-3 -3 2 -2 5 5 -5 5 -2 -2 3 -3z"/>
   </g>
   <g>
    <path class="fil4" d="M386 89l-11 0 0 -36 -17 0 0 36 -11 0 0 -45 39 0 0 45zm37 -33c0,-3 -1,-4 -3,-4l-11 0c-3,0 -4,1 -4,4l0 20c0,3 1,4 4,4l11 0c2,0 3,-1 3,-4l0 -20zm12 20c0,5 -1,8 -3,10 -2,2 -5,3 -10,3l-16 0c-5,0 -8,-1 -10,-3 -2,-2 -3,-5 -3,-10l0 -20c0,-5 1,-8 3,-10 2,-2 5,-3 10,-3l16 0c5,0 8,1 10,3 2,2 3,5 3,10l0 20zm20 3c0,3 -1,6 -3,8 -1,1 -4,2 -6,2 -3,0 -5,0 -8,0l0 -9 3 0c1,0 2,0 2,-1 1,0 1,-1 1,-2l2 -33 36 0 0 45 -11 0 0 -36 -14 0 -2 26zm46 10c-2,0 -4,0 -6,0l0 -9 5 0c2,0 3,0 3,-1 0,-1 0,-1 0,-2 0,0 0,-1 0,-1l-18 -32 13 0 12 23 10 -23 13 0 -17 35c-1,3 -3,6 -5,8 -3,1 -6,2 -10,2zm61 -15c-6,0 -10,1 -15,1 -5,0 -8,-1 -10,-3 -2,-2 -3,-5 -3,-10l0 -18 12 0 0 18c0,1 0,2 1,3 0,0 1,1 2,1 4,0 8,-1 13,-1l0 -21 11 0 0 45 -11 0 0 -15zm59 15l-12 0 0 -28 -15 28 -13 0 0 -45 12 0 0 27 16 -27 12 0 0 45zm30 0l-12 0 0 -36 -13 0 0 -9 39 0 0 9 -14 0 0 36zm54 0l-36 0 0 -45 36 0 0 9 -24 0 0 8 19 0 0 9 -19 0 0 10 24 0 0 9zm58 -46c2,0 3,0 6,1l0 8 -2 0c-1,0 -2,1 -2,1 -1,0 -1,1 -1,1l-6 12 12 23 -12 0 -10 -19 -6 0 0 19 -12 0 0 -45 12 0 0 17 6 0 6 -12c1,-2 2,-3 4,-4 1,-1 3,-2 5,-2zm22 46c-2,0 -4,0 -7,0l0 -9 6 0c2,0 2,0 3,-1 0,-1 0,-1 0,-2 0,0 0,-1 0,-1l-18 -32 13 0 12 23 10 -23 13 0 -17 35c-2,3 -3,6 -6,8 -2,1 -5,2 -9,2zm61 -45l13 0 -15 22 15 23 -13 0 -9 -14 -9 14 -13 0 15 -23 -15 -22 13 0 9 14 9 -14zm56 45l-12 0 0 -19 -16 0 0 19 -12 0 0 -45 12 0 0 17 16 0 0 -17 12 0 0 45zm64 -13c0,5 -1,8 -3,10 -2,2 -5,3 -10,3l-13 0c-4,0 -7,-1 -10,-3 -2,-2 -3,-5 -3,-10l0 -6 -5 0 0 19 -12 0 0 -45 12 0 0 17 5 0 0 -5c0,-5 1,-8 3,-10 3,-2 6,-3 10,-3l13 0c5,0 8,1 10,3 2,2 3,5 3,10l0 20zm-11 -20c0,-3 -2,-4 -4,-4l-8 0c-3,0 -4,1 -4,4l0 20c0,3 1,4 4,4l8 0c2,0 4,-1 4,-4l0 -20zm73 32c-10,1 -18,1 -24,1 -5,0 -8,-1 -10,-3 -2,-2 -3,-5 -3,-9l0 -20c0,-5 1,-8 3,-10 2,-2 6,-3 10,-3l24 0 0 9 -21 0c-3,0 -4,1 -4,4l0 20c0,1 0,2 1,2 0,1 1,1 2,1 1,0 2,0 3,0 1,0 2,0 3,0 2,0 3,0 4,0 1,0 3,0 5,0 2,0 4,0 7,-1l0 9zm34 -32c0,-3 -1,-4 -4,-4l-11 0c-2,0 -4,1 -4,4l0 20c0,3 2,4 4,4l11 0c3,0 4,-1 4,-4l0 -20zm12 20c0,5 -1,8 -3,10 -2,2 -5,3 -10,3l-16 0c-5,0 -8,-1 -10,-3 -2,-2 -3,-5 -3,-10l0 -20c0,-5 1,-8 3,-10 2,-2 5,-3 10,-3l16 0c5,0 8,1 10,3 2,2 3,5 3,10l0 20zm61 12c-9,1 -17,1 -24,1 -4,0 -7,-1 -9,-3 -2,-2 -3,-5 -3,-9l0 -20c0,-5 1,-8 3,-10 2,-2 5,-3 10,-3l23 0 0 9 -21 0c-2,0 -3,1 -3,4l0 20c0,1 0,2 0,2 1,1 2,1 3,1 1,0 2,0 3,0 1,0 2,0 3,0 1,0 2,0 4,0 1,0 2,0 4,0 2,0 4,0 7,-1l0 9zm39 -45c1,0 3,0 6,1l0 8 -3 0c-1,0 -1,1 -2,1 0,0 -1,1 -1,1l-6 12 13 23 -13 0 -10 -19 -6 0 0 19 -11 0 0 -45 11 0 0 17 6 0 7 -12c1,-2 2,-3 3,-4 2,-1 3,-2 6,-2zm50 46l-11 0 0 -28 -16 28 -12 0 0 -45 11 0 0 27 16 -27 12 0 0 45zm15 -45l34 0 0 36 5 0 0 17 -11 0 -1 -8 -25 0 -1 8 -11 0 0 -17 4 0c1,-2 2,-3 3,-5 1,-2 1,-3 1,-5l2 -26zm22 36l0 -27 -12 0 -1 16c0,2 -1,5 -2,8 0,1 -1,2 -2,3l17 0zm55 -37c1,0 3,0 6,1l0 8 -3 0c0,0 -1,1 -1,1 -1,0 -1,1 -1,1l-7 12 13 23 -12 0 -10 -19 -6 0 0 19 -12 0 0 -45 12 0 0 17 6 0 6 -12c1,-2 2,-3 4,-4 1,-1 3,-2 5,-2zm40 13c0,-3 -1,-4 -4,-4l-11 0c-2,0 -4,1 -4,4l0 20c0,3 2,4 4,4l11 0c3,0 4,-1 4,-4l0 -20zm12 20c0,5 -1,8 -3,10 -2,2 -5,3 -10,3l-16 0c-5,0 -8,-1 -10,-3 -2,-2 -3,-5 -3,-10l0 -20c0,-5 1,-8 3,-10 2,-2 5,-3 10,-3l16 0c5,0 8,1 10,3 2,2 3,5 3,10l0 20zm35 13l0 -28 -16 28 -12 0 0 -45 11 0 0 27 16 -27 12 0 0 45 -11 0zm-12 -49c-6,0 -9,-2 -9,-8l0 -2 9 0 0 2c0,0 0,1 0,1 1,1 1,1 2,1l2 0c1,0 1,0 2,-1 0,0 0,-1 0,-1l0 -2 9 0 0 2c0,6 -3,8 -9,8l-6 0zm72 40l-24 0 0 -9 16 -27 13 0 -16 27 11 0 0 -10 12 0 0 10 4 0 0 9 -4 0 0 9 -12 0 0 -9zm46 -24c0,-3 -1,-4 -3,-4l-8 0c-2,0 -4,1 -4,4l0 20c0,3 2,4 4,4l8 0c2,0 3,-1 3,-4l0 -20zm12 20c0,5 -1,8 -3,10 -2,2 -5,3 -10,3l-12 0c-5,0 -8,-1 -10,-3 -2,-2 -3,-5 -3,-10l0 -20c0,-5 1,-8 3,-10 2,-2 5,-3 10,-3l12 0c5,0 8,1 10,3 2,2 3,5 3,10l0 20zm13 13l26 -45 9 0 -25 45 -10 0zm13 -30c0,2 0,4 -2,6 -1,1 -3,2 -6,2l-6 0c-2,0 -4,-1 -6,-2 -1,-2 -2,-4 -2,-6l0 -8c0,-2 1,-4 2,-6 2,-1 4,-2 6,-2l6 0c3,0 5,1 6,2 2,2 2,4 2,6l0 8zm-8 -8c0,-1 0,-2 -2,-2l-2 0c-1,0 -2,1 -2,2l0 8c0,1 1,2 2,2l2 0c2,0 2,-1 2,-2l0 -8zm40 30c0,3 -1,5 -3,6 -1,2 -3,2 -6,2l-5 0c-3,0 -5,0 -6,-2 -2,-1 -3,-3 -3,-6l0 -7c0,-3 1,-5 3,-6 1,-2 3,-2 6,-2l5 0c3,0 5,0 6,2 2,1 3,3 3,6l0 7zm-8 -7c0,-2 -1,-3 -3,-3l-2 0c-1,0 -2,1 -2,3l0 7c0,2 1,3 2,3l2 0c2,0 3,-1 3,-3l0 -7z"/>
    <path class="fil11" d="M381 93l-12 0 0 -36 -16 0 0 36 -12 0 0 -45 40 0 0 45zm37 -33c0,-3 -1,-4 -4,-4l-11 0c-2,0 -4,1 -4,4l0 20c0,3 2,4 4,4l11 0c3,0 4,-1 4,-4l0 -20zm12 20c0,5 -1,8 -3,10 -2,2 -5,3 -10,3l-16 0c-5,0 -8,-1 -10,-3 -2,-2 -3,-5 -3,-10l0 -20c0,-5 1,-8 3,-10 2,-2 5,-3 10,-3l16 0c5,0 8,1 10,3 2,2 3,5 3,10l0 20zm20 3c0,3 -1,6 -3,8 -1,1 -4,2 -6,2 -3,0 -5,0 -8,0l0 -9 3 0c1,0 2,0 2,-1 1,0 1,-1 1,-2l2 -33 36 0 0 45 -11 0 0 -36 -14 0 -2 26zm46 10c-2,0 -4,0 -7,0l0 -9 6 0c2,0 2,0 3,-1 0,-1 0,-1 0,-2 0,0 0,-1 0,-1l-18 -32 13 0 12 23 10 -23 13 0 -17 35c-2,3 -3,6 -6,8 -2,1 -5,2 -9,2zm61 -15c-6,0 -11,1 -15,1 -5,0 -8,-1 -10,-3 -2,-2 -3,-5 -3,-10l0 -18 12 0 0 18c0,1 0,2 0,3 1,0 2,1 3,1 3,0 8,-1 13,-1l0 -21 11 0 0 45 -11 0 0 -15zm59 15l-12 0 0 -28 -16 28 -12 0 0 -45 12 0 0 27 15 -27 13 0 0 45zm30 0l-12 0 0 -36 -14 0 0 -9 40 0 0 9 -14 0 0 36zm54 0l-36 0 0 -45 36 0 0 9 -24 0 0 8 19 0 0 9 -19 0 0 10 24 0 0 9zm58 -46c1,0 3,0 6,1l0 8 -2 0c-1,0 -2,1 -2,1 -1,0 -1,1 -1,1l-7 12 13 23 -12 0 -10 -19 -6 0 0 19 -12 0 0 -45 12 0 0 17 6 0 6 -12c1,-2 2,-3 4,-4 1,-1 3,-2 5,-2zm22 46c-2,0 -4,0 -7,0l0 -9 6 0c1,0 2,0 3,-1 0,-1 0,-1 0,-2 0,0 0,-1 0,-1l-18 -32 13 0 12 23 9 -23 13 0 -16 35c-2,3 -4,6 -6,8 -2,1 -5,2 -9,2zm60 -45l13 0 -14 22 15 23 -13 0 -9 -14 -9 14 -14 0 15 -23 -14 -22 13 0 9 14 8 -14zm57 45l-12 0 0 -19 -16 0 0 19 -12 0 0 -45 12 0 0 17 16 0 0 -17 12 0 0 45zm64 -13c0,5 -1,8 -3,10 -2,2 -5,3 -10,3l-13 0c-4,0 -8,-1 -10,-3 -2,-2 -3,-5 -3,-10l0 -6 -6 0 0 19 -11 0 0 -45 11 0 0 17 6 0 0 -5c0,-5 1,-8 3,-10 2,-2 6,-3 10,-3l13 0c5,0 8,1 10,3 2,2 3,5 3,10l0 20zm-11 -20c0,-3 -2,-4 -4,-4l-8 0c-3,0 -4,1 -4,4l0 20c0,3 1,4 4,4l8 0c2,0 4,-1 4,-4l0 -20zm73 32c-10,1 -18,1 -25,1 -4,0 -7,-1 -9,-3 -2,-2 -3,-5 -3,-9l0 -20c0,-5 1,-8 3,-10 2,-2 6,-3 10,-3l24 0 0 9 -21 0c-3,0 -4,1 -4,4l0 20c0,1 0,2 1,2 0,1 1,1 2,1 1,0 2,0 3,0 1,0 2,0 3,0 2,0 3,0 4,0 1,0 3,0 5,0 1,0 4,0 7,-1l0 9zm34 -32c0,-3 -1,-4 -4,-4l-11 0c-2,0 -4,1 -4,4l0 20c0,3 2,4 4,4l11 0c3,0 4,-1 4,-4l0 -20zm12 20c0,5 -1,8 -3,10 -2,2 -6,3 -10,3l-16 0c-5,0 -8,-1 -10,-3 -2,-2 -3,-5 -3,-10l0 -20c0,-5 1,-8 3,-10 2,-2 5,-3 10,-3l16 0c4,0 8,1 10,3 2,2 3,5 3,10l0 20zm61 12c-10,1 -18,1 -24,1 -4,0 -7,-1 -9,-3 -2,-2 -3,-5 -3,-9l0 -20c0,-5 1,-8 3,-10 2,-2 5,-3 10,-3l23 0 0 9 -21 0c-2,0 -4,1 -4,4l0 20c0,1 1,2 1,2 1,1 2,1 3,1 0,0 1,0 3,0 1,0 2,0 3,0 1,0 2,0 3,0 2,0 3,0 5,0 2,0 4,0 7,-1l0 9zm39 -45c1,0 3,0 5,1l0 8 -2 0c-1,0 -1,1 -2,1 0,0 -1,1 -1,1l-6 12 12 23 -12 0 -10 -19 -6 0 0 19 -12 0 0 -45 12 0 0 17 6 0 7 -12c0,-2 2,-3 3,-4 1,-1 3,-2 6,-2zm50 46l-12 0 0 -28 -15 28 -13 0 0 -45 12 0 0 27 16 -27 12 0 0 45zm14 -45l35 0 0 36 5 0 0 17 -11 0 -1 -8 -26 0 0 8 -11 0 0 -17 4 0c1,-2 2,-3 3,-5 0,-2 1,-3 1,-5l1 -26zm23 36l0 -27 -12 0 -1 16c0,2 -1,5 -2,8 0,1 -1,2 -2,3l17 0zm55 -37c1,0 3,0 6,1l0 8 -3 0c0,0 -1,1 -1,1 -1,0 -1,1 -2,1l-6 12 13 23 -12 0 -11 -19 -5 0 0 19 -12 0 0 -45 12 0 0 17 5 0 7 -12c1,-2 2,-3 3,-4 2,-1 4,-2 6,-2zm40 13c0,-3 -1,-4 -4,-4l-11 0c-2,0 -4,1 -4,4l0 20c0,3 2,4 4,4l11 0c3,0 4,-1 4,-4l0 -20zm12 20c0,5 -1,8 -3,10 -2,2 -6,3 -10,3l-16 0c-5,0 -8,-1 -10,-3 -2,-2 -3,-5 -3,-10l0 -20c0,-5 1,-8 3,-10 2,-2 5,-3 10,-3l16 0c4,0 8,1 10,3 2,2 3,5 3,10l0 20zm34 13l0 -28 -15 28 -13 0 0 -45 12 0 0 27 16 -27 12 0 0 45 -12 0zm-11 -49c-6,0 -9,-2 -9,-8l0 -2 9 0 0 2c0,0 0,1 0,1 1,1 1,1 2,1l2 0c1,0 1,0 2,-1 0,0 0,-1 0,-1l0 -2 9 0 0 2c0,6 -3,8 -9,8l-6 0zm72 40l-24 0 0 -9 16 -27 13 0 -16 27 11 0 0 -10 12 0 0 10 4 0 0 9 -4 0 0 9 -12 0 0 -9zm46 -24c0,-3 -1,-4 -4,-4l-7 0c-2,0 -4,1 -4,4l0 20c0,3 2,4 4,4l7 0c3,0 4,-1 4,-4l0 -20zm12 20c0,5 -1,8 -3,10 -2,2 -5,3 -10,3l-12 0c-5,0 -8,-1 -10,-3 -2,-2 -3,-5 -3,-10l0 -20c0,-5 1,-8 3,-10 2,-2 5,-3 10,-3l12 0c5,0 8,1 10,3 2,2 3,5 3,10l0 20zm12 13l27 -45 9 0 -25 45 -11 0zm14 -30c0,2 -1,4 -2,6 -1,1 -3,2 -6,2l-6 0c-2,0 -4,-1 -6,-2 -1,-2 -2,-4 -2,-6l0 -8c0,-2 1,-4 2,-6 2,-1 4,-2 6,-2l6 0c3,0 5,1 6,2 1,2 2,4 2,6l0 8zm-8 -8c0,-1 0,-2 -2,-2l-2 0c-1,0 -2,1 -2,2l0 8c0,1 1,2 2,2l2 0c2,0 2,-1 2,-2l0 -8zm39 30c0,3 0,5 -2,6 -1,2 -3,2 -6,2l-6 0c-2,0 -4,0 -6,-2 -1,-1 -2,-3 -2,-6l0 -7c0,-3 1,-5 2,-6 2,-2 4,-2 6,-2l6 0c3,0 5,0 6,2 2,1 2,3 2,6l0 7zm-7 -7c0,-2 -1,-3 -3,-3l-2 0c-1,0 -2,1 -2,3l0 7c0,2 1,3 2,3l2 0c2,0 3,-1 3,-3l0 -7z"/>
   </g>
  </g>
 </g>
</svg>
