<?xml version="1.0" encoding="UTF-8"?>
<!DOCTYPE svg PUBLIC "-//W3C//DTD SVG 1.1//EN" "http://www.w3.org/Graphics/SVG/1.1/DTD/svg11.dtd">
<!-- Creator: CorelDRAW X8 -->
<svg xmlns="http://www.w3.org/2000/svg" xml:space="preserve" width="267px" height="53px" version="1.1" style="shape-rendering:geometricPrecision; text-rendering:geometricPrecision; image-rendering:optimizeQuality; fill-rule:evenodd; clip-rule:evenodd"
viewBox="0 0 2079 413"
 xmlns:xlink="http://www.w3.org/1999/xlink">
 <defs>
  <style type="text/css">
   <![CDATA[
    .fil2 {fill:red}
    .fil0 {fill:white}
    .fil1 {fill:white;fill-rule:nonzero}
   ]]>
  </style>
 </defs>
 <g id="zov-moskva">
  <metadata id="CorelCorpID_0Corel-Layer"/>
  <g>
   <path class="fil0" d="M401 240l71 103 -286 0c185,-57 206,-83 215,-103zm-31 -45l-35 -51c-39,24 -69,37 -117,60 79,-10 121,-18 152,-9zm-86 -48c-7,9 -112,60 -100,65 26,13 178,-18 164,22 -10,28 -121,71 -221,109l-127 0c105,-139 291,-206 284,-196zm32 -30l-80 -117 -106 154c60,-21 120,-45 186,-37zm136 244l-135 0 0 52 138 0c2,0 4,0 6,-1 2,-1 4,-2 6,-4 1,-1 3,-3 4,-5 1,-2 1,-4 1,-7 0,-1 0,-3 -1,-4 -1,-2 -2,-3 -3,-5 2,-3 3,-6 3,-10 0,-2 0,-5 -1,-7 -1,-2 -3,-3 -4,-5 -2,-1 -4,-2 -6,-3 -2,0 -5,-1 -8,-1zm-87 33l65 0 0 6 -71 0 0 -25 71 0 0 5 -65 0 0 14zm-104 -19l0 25 -70 0 0 -25 70 0zm-96 -14c-2,0 -4,1 -6,1 -2,1 -4,2 -5,4 -2,1 -3,3 -4,5 -1,2 -1,4 -1,6l0 20c0,2 0,4 1,6 1,2 2,4 3,6 1,1 3,2 5,3 1,1 3,1 5,1l125 0c2,0 4,0 6,-1 2,-1 3,-2 5,-3 1,-2 2,-3 3,-5 1,-2 1,-4 1,-7l0 -19c0,-2 0,-4 -1,-6 -1,-2 -2,-4 -3,-6 -2,-1 -3,-2 -5,-3 -2,-1 -4,-2 -6,-2l-123 0zm-165 0l0 14 95 0 0 6 -56 0 0 13 56 0 0 6 -95 0 0 13 122 0c3,0 5,0 6,-1 2,-1 4,-2 5,-3 1,-2 2,-4 3,-6 1,-2 1,-4 1,-7 0,-3 -1,-6 -3,-9 1,-1 2,-3 2,-5 1,-1 1,-3 1,-5 0,-2 -1,-5 -1,-7 -1,-1 -2,-3 -4,-4 -1,-2 -3,-3 -5,-4 -2,0 -4,-1 -6,-1l-121 0z"/>
  </g>
  <path class="fil1" d="M526 337l35 -252 6 0 102 207 102 -207 3 0 37 252 -25 0 -25 -180 -89 180 -7 0 -90 -182 -24 182 -25 0zm453 -258c39,0 70,12 96,38 26,25 39,57 39,94 0,37 -13,68 -39,94 -25,25 -57,38 -94,38 -37,0 -68,-13 -94,-38 -26,-26 -38,-57 -38,-93 0,-24 5,-47 17,-67 12,-21 28,-37 48,-49 20,-11 42,-17 65,-17zm2 24c-19,0 -37,5 -53,15 -17,10 -30,23 -39,39 -10,16 -15,35 -15,55 0,30 11,55 32,76 20,20 45,31 75,31 19,0 37,-5 54,-15 16,-9 29,-22 39,-39 9,-16 14,-34 14,-54 0,-20 -5,-38 -14,-54 -10,-17 -23,-29 -40,-39 -17,-10 -34,-15 -53,-15zm418 28l-20 16c-11,-15 -24,-25 -40,-33 -15,-7 -32,-11 -50,-11 -20,0 -39,5 -56,15 -17,9 -30,22 -40,39 -9,16 -14,34 -14,54 0,31 11,57 32,77 21,21 47,31 79,31 36,0 65,-14 89,-41l20 15c-13,16 -29,28 -47,37 -19,9 -40,13 -63,13 -44,0 -79,-15 -104,-44 -22,-25 -32,-55 -32,-90 0,-36 12,-67 38,-93 26,-25 58,-37 97,-37 24,0 45,4 64,14 19,9 34,22 47,38zm50 -46l26 0 0 94 100 -94 34 0 -121 113 131 139 -34 0 -110 -118 0 118 -26 0 0 -252zm208 0l49 0c20,0 36,2 46,7 11,5 20,12 26,22 6,10 9,21 9,33 0,11 -3,21 -8,30 -5,9 -13,17 -24,22 13,5 23,10 30,16 7,6 13,13 17,22 4,8 6,18 6,27 0,21 -8,38 -23,52 -14,14 -34,21 -59,21l-69 0 0 -252zm24 25l0 80 15 0c17,0 30,-1 38,-5 9,-3 15,-8 20,-15 5,-7 7,-15 7,-23 0,-12 -4,-21 -12,-28 -8,-6 -21,-9 -38,-9l-30 0zm0 105l0 97 32 0c18,0 31,-2 40,-5 9,-4 16,-9 21,-17 5,-8 8,-16 8,-25 0,-11 -4,-21 -11,-29 -8,-9 -18,-14 -31,-17 -8,-3 -23,-4 -44,-4l-15 0zm279 -130l118 252 -27 0 -40 -83 -109 0 -39 83 -28 0 119 -252 6 0zm-3 53l-43 91 86 0 -43 -91z"/>
  <path class="fil2" d="M981 158l13 42 44 0 -36 25 14 41 -35 -25 -36 25 14 -41 -35 -25 43 0 14 -42z"/>
 </g>
</svg>
