<?xml version="1.0" encoding="UTF-8"?>
<!DOCTYPE svg PUBLIC "-//W3C//DTD SVG 1.1//EN" "http://www.w3.org/Graphics/SVG/1.1/DTD/svg11.dtd">
<!-- Creator: CorelDRAW X8 -->
<svg xmlns="http://www.w3.org/2000/svg" xml:space="preserve" width="36px" height="50px" version="1.1" style="shape-rendering:geometricPrecision; text-rendering:geometricPrecision; image-rendering:optimizeQuality; fill-rule:evenodd; clip-rule:evenodd"
viewBox="0 0 1650 2315"
 xmlns:xlink="http://www.w3.org/1999/xlink">
 <defs>
  <style type="text/css">
   <![CDATA[
    .fil0 {fill:#193153}
    .fil2 {fill:red}
    .fil1 {fill:white}
   ]]>
  </style>
 </defs>
 <g id="Слой_x0020_1">
  <metadata id="CorelCorpID_0Corel-Layer"/>
  <path class="fil0" d="M825 2178c86,-220 216,-402 364,-589 125,-158 275,-333 346,-523 42,-113 54,-225 38,-343 -118,-871 -1378,-871 -1496,0 -16,118 -4,230 38,343 71,190 221,365 346,523 148,187 278,369 364,589z"/>
  <path class="fil0" d="M825 2315c3,0 25,2 42,-47 221,-660 859,-940 775,-1555 -129,-951 -1505,-951 -1634,0 -84,616 555,895 775,1555 17,49 39,47 42,47z"/>
  <path class="fil1" d="M825 206c341,0 618,277 618,618 0,341 -277,618 -618,618 -341,0 -618,-277 -618,-618 0,-341 277,-618 618,-618z"/>
  <path class="fil1" d="M825 277c302,0 547,245 547,547 0,302 -245,547 -547,547 -302,0 -547,-245 -547,-547 0,-302 245,-547 547,-547z"/>
  <path class="fil2" d="M825 442l85 265 279 -1 -226 163 87 264 -225 -164 -225 164 87 -264 -226 -163 279 1 85 -265z"/>
 </g>
</svg>
