<?xml version="1.0" encoding="UTF-8"?>
<!DOCTYPE svg PUBLIC "-//W3C//DTD SVG 1.1//EN" "http://www.w3.org/Graphics/SVG/1.1/DTD/svg11.dtd">
<!-- Creator: CorelDRAW X8 -->
<svg xmlns="http://www.w3.org/2000/svg" xml:space="preserve" width="93px" height="98px" version="1.1" style="shape-rendering:geometricPrecision; text-rendering:geometricPrecision; image-rendering:optimizeQuality; fill-rule:evenodd; clip-rule:evenodd"
viewBox="0 0 2193 2315"
 xmlns:xlink="http://www.w3.org/1999/xlink">
 <defs>
  <style type="text/css">
   <![CDATA[
    .fil0 {fill:#193153}
   ]]>
  </style>
 </defs>
 <g id="Слой_x0020_1">
  <metadata id="CorelCorpID_0Corel-Layer"/>
  <path class="fil0" d="M1841 1446l98 -98 213 214 -98 98 139 0 0 302 -139 0 98 98 -213 214 -98 -98 0 139 -303 0 0 -139 -98 98 -213 -214 98 -98 -139 0 0 -302 139 0 -98 -98 213 -214 98 98 0 -138 303 0 0 138zm-236 -72l169 0 0 149c21,6 41,14 60,24l105 -104 119 119 -105 105c11,19 19,39 25,60l148 0 0 169 -148 0c-6,21 -14,41 -25,60l105 104 -119 120 -105 -105c-19,10 -39,19 -60,25l0 148 -169 0 0 -148c-21,-6 -41,-15 -60,-25l-105 105 -119 -120 105 -104c-11,-19 -19,-39 -25,-60l-148 0 0 -169 148 0c6,-21 14,-41 25,-60l-105 -105 119 -119 105 104c19,-10 39,-18 60,-24l0 -149zm84 356c45,0 82,36 82,81 0,45 -37,82 -82,82 -45,0 -81,-37 -81,-82 0,-45 36,-81 81,-81zm0 -78c88,0 159,72 159,159 0,88 -71,159 -159,159 -87,0 -158,-71 -158,-159 0,-87 71,-159 158,-159zm-607 310c-12,1 -25,1 -38,1 -441,0 -798,-357 -798,-797 0,-441 357,-798 798,-798 440,0 797,357 797,798 0,13 0,25 0,38l-70 0c1,-13 1,-25 1,-38 0,-402 -326,-728 -728,-728 -402,0 -728,326 -728,728 0,402 326,728 728,728 13,0 26,0 38,-1l0 69zm-232 -550l-54 -54 210 -207 0 -375 76 0 0 407 -232 229zm-274 -660l54 -54 106 106 -54 54 -106 -106zm-156 452l0 -77 150 0 0 77 -150 0zm210 430l-54 -54 106 -107 54 55 -106 106zm452 155l-76 0 0 -150 76 0 0 150zm586 -662l0 77 -150 0 0 -77 150 0zm-210 -429l54 54 -106 106 -54 -54 106 -106zm-452 -156l76 0 0 150 -76 0 0 -150zm-98 -330l0 -77 272 0 0 77 -272 0zm174 1997c-12,0 -25,1 -38,1 -577,0 -1044,-468 -1044,-1044 0,-488 334,-897 786,-1012l0 -154 516 0 0 154c452,115 786,524 786,1012 0,13 0,25 -1,38l-69 0c0,-13 0,-25 0,-38 0,-476 -320,-844 -774,-954l0 -154 -400 0 0 154c-454,109 -774,478 -774,954 0,538 436,974 974,974 13,0 26,0 38,-1l0 70z"/>
 </g>
</svg>
