<?xml version="1.0" encoding="UTF-8"?>
<!DOCTYPE svg PUBLIC "-//W3C//DTD SVG 1.1//EN" "http://www.w3.org/Graphics/SVG/1.1/DTD/svg11.dtd">
<!-- Creator: CorelDRAW X8 -->
<svg xmlns="http://www.w3.org/2000/svg" xml:space="preserve" width="60px" height="98px" version="1.1" style="shape-rendering:geometricPrecision; text-rendering:geometricPrecision; image-rendering:optimizeQuality; fill-rule:evenodd; clip-rule:evenodd"
viewBox="0 0 1418 2315"
 xmlns:xlink="http://www.w3.org/1999/xlink">
 <defs>
  <style type="text/css">
   <![CDATA[
    .fil0 {fill:#193153}
   ]]>
  </style>
 </defs>
 <g id="Слой_x0020_1">
  <metadata id="CorelCorpID_0Corel-Layer"/>
  <path class="fil0" d="M1011 1828c15,4 29,8 41,11 28,8 56,15 84,23 37,12 75,24 113,34 2,1 5,2 9,3 -1,-3 -1,-5 -2,-6 -7,-35 -15,-70 -22,-105 -11,-54 -25,-107 -37,-161l-60 -274c-26,4 -52,12 -60,24 -7,10 -10,30 -11,42 -5,33 -7,66 -12,100 -14,102 -23,207 -43,309zm-67 37c33,16 131,40 175,53 245,73 218,84 172,-142 -11,-51 -26,-113 -37,-162l-72 -325c-194,16 -164,74 -185,221 -17,115 -29,251 -53,355zm-775 358c24,0 129,-50 156,-63 198,-100 186,-90 338,45 25,23 46,37 70,60 23,23 42,44 82,47 15,-31 129,-814 129,-894 -88,47 -111,72 -237,19 -159,-68 -108,-19 -260,-19 -55,0 -103,-36 -137,-72l-27 -32c-1,-1 -3,-4 -5,-5l-101 693c-8,58 -46,221 -8,221zm43 -76c6,-2 11,-4 15,-6 24,-10 48,-21 71,-33 40,-20 81,-42 122,-57 33,-13 67,-20 103,-14 34,6 61,24 88,45 31,25 61,53 91,80 23,21 49,39 71,61 5,-27 9,-53 14,-80 15,-96 29,-192 43,-288 14,-94 27,-189 39,-283 2,-19 5,-38 7,-56 -5,1 -9,3 -14,4 -62,15 -122,-6 -178,-30 -21,-9 -77,-34 -101,-30 -14,2 -29,6 -43,9 -30,5 -62,7 -93,7 -47,0 -90,-18 -128,-44l-84 579c-4,25 -17,90 -23,136zm-154 -1534c0,78 70,131 70,209 0,41 -4,82 -5,124 0,20 0,48 9,67 2,5 6,9 10,14 14,14 40,27 58,37 21,11 41,22 61,34 46,27 75,67 101,112 11,19 30,59 46,72 10,9 21,14 34,16 20,3 42,0 62,-3 46,-8 92,-18 138,-9 38,8 68,22 103,39 17,8 34,15 52,20 14,3 27,3 41,-3 24,-10 52,-39 72,-58 37,-35 74,-66 124,-82 33,-11 66,-19 101,-27 12,-3 32,-7 43,-14 22,-15 34,-86 39,-109 12,-65 35,-124 78,-176 13,-15 26,-29 40,-43 7,-7 16,-15 20,-23 18,-30 -28,-122 -40,-148 -24,-50 -31,-98 -27,-153 2,-29 9,-67 5,-95 -5,-39 -44,-63 -76,-81 -57,-31 -112,-69 -151,-123 -11,-17 -21,-34 -30,-52 -5,-10 -11,-21 -17,-31 -8,-11 -18,-17 -31,-22 -5,-2 -11,-4 -17,-4 -21,-3 -46,1 -66,4 -34,5 -66,10 -100,10 -24,0 -46,-4 -69,-13 -24,-9 -47,-22 -71,-32 -26,-10 -51,-14 -79,-14 -2,0 -4,0 -5,0 -19,4 -44,29 -57,42 -26,25 -52,54 -84,72 -30,18 -61,28 -94,36 -24,6 -49,10 -72,18 -15,5 -28,12 -39,22 -6,5 -10,11 -13,17 -14,25 -17,65 -22,93 -6,33 -14,65 -29,95 -18,34 -47,64 -71,93 -12,14 -42,50 -42,69zm-58 0c0,96 70,152 70,209 0,111 -24,193 31,246 31,30 90,55 130,79 76,47 93,140 139,179 78,68 182,1 260,17 61,13 97,44 153,58 119,30 158,-107 269,-143 148,-49 187,-8 222,-195 49,-257 231,-143 93,-426 -72,-149 73,-249 -122,-355 -199,-108 -129,-190 -236,-231 -62,-24 -128,6 -204,6 -73,0 -104,-60 -219,-60 -70,0 -121,92 -175,123 -74,43 -154,28 -215,83 -61,54 -40,150 -77,221 -28,54 -119,123 -119,189zm709 -413c277,0 502,224 502,501 0,277 -225,502 -502,502 -277,0 -502,-225 -502,-502 0,-277 225,-501 502,-501zm0 58c245,0 443,198 443,443 0,245 -198,444 -443,444 -245,0 -443,-199 -443,-444 0,-245 198,-443 443,-443z"/>
 </g>
</svg>
