<?xml version="1.0" encoding="UTF-8"?>
<!DOCTYPE svg PUBLIC "-//W3C//DTD SVG 1.1//EN" "http://www.w3.org/Graphics/SVG/1.1/DTD/svg11.dtd">
<!-- Creator: CorelDRAW X8 -->
<svg xmlns="http://www.w3.org/2000/svg" xml:space="preserve" width="86px" height="98px" version="1.1" style="shape-rendering:geometricPrecision; text-rendering:geometricPrecision; image-rendering:optimizeQuality; fill-rule:evenodd; clip-rule:evenodd"
viewBox="0 0 2033 2315"
 xmlns:xlink="http://www.w3.org/1999/xlink">
 <defs>
  <style type="text/css">
   <![CDATA[
    .fil0 {fill:#193153}
   ]]>
  </style>
 </defs>
 <g id="Слой_x0020_1">
  <metadata id="CorelCorpID_0Corel-Layer"/>
  <path class="fil0" d="M680 2257l30 58 210 -107 -21 -125c33,-15 66,-32 98,-51 26,-15 52,-32 79,-45 31,-16 62,-23 97,-28 76,-12 158,-15 235,-18 102,-4 229,-9 328,-36 60,-17 112,-43 144,-99 26,-48 29,-95 63,-142 17,-23 43,-51 52,-77 11,-32 5,-86 5,-120 -1,-28 1,-48 10,-75 7,-21 13,-40 17,-63 8,-42 10,-79 -7,-119 -8,-19 -16,-32 -20,-51 -7,-28 -6,-48 -4,-76 2,-33 0,-62 -7,-95 -41,-174 -224,-177 -368,-194 -45,-5 -101,-12 -146,-32 10,-58 48,-139 67,-182 26,-61 54,-127 64,-193 20,-127 -26,-339 -166,-381 -39,-11 -79,-7 -116,10l-17 8 -11 16c-30,44 -40,136 -48,189 -6,37 -12,86 -25,120 -29,80 -66,136 -115,204 -93,127 -159,266 -235,403 -54,98 -123,215 -219,276 -38,24 -78,38 -122,44 -97,14 -201,51 -293,83 -78,27 -159,57 -239,77l16 65c156,-38 375,-137 525,-158 319,-44 395,-440 621,-751 51,-70 90,-127 124,-220 29,-78 35,-248 66,-295 131,-59 211,154 188,300 -22,137 -144,309 -134,423 161,113 472,9 517,204 16,67 -6,94 11,170 15,64 43,60 27,143 -10,58 -29,63 -28,150 1,121 13,78 -45,158 -108,150 39,228 -483,249 -419,16 -302,49 -581,169l22 128 -166 86z"/>
 </g>
</svg>
