<?xml version="1.0" encoding="UTF-8"?>
<!DOCTYPE svg PUBLIC "-//W3C//DTD SVG 1.1//EN" "http://www.w3.org/Graphics/SVG/1.1/DTD/svg11.dtd">
<!-- Creator: CorelDRAW X8 -->
<svg xmlns="http://www.w3.org/2000/svg" xml:space="preserve" width="70px" height="98px" version="1.1" style="shape-rendering:geometricPrecision; text-rendering:geometricPrecision; image-rendering:optimizeQuality; fill-rule:evenodd; clip-rule:evenodd"
viewBox="0 0 1650 2315"
 xmlns:xlink="http://www.w3.org/1999/xlink">
 <defs>
  <style type="text/css">
   <![CDATA[
    .fil0 {fill:#193153}
    .fil1 {fill:#FFCE21}
   ]]>
  </style>
 </defs>
 <g id="Слой_x0020_1">
  <metadata id="CorelCorpID_0Corel-Layer"/>
  <path class="fil0" d="M825 2315c3,0 25,2 42,-47 221,-660 859,-940 775,-1555 -129,-951 -1505,-951 -1634,0 -84,616 555,895 775,1555 17,49 39,47 42,47zm0 -137c86,-220 216,-402 364,-589 125,-158 275,-333 346,-523 42,-113 54,-225 38,-343 -118,-871 -1378,-871 -1496,0 -16,118 -4,230 38,343 71,190 221,365 346,523 148,187 278,369 364,589zm-124 -1998l248 0 0 218c31,9 61,22 88,37l154 -154 176 175 -154 154c15,28 27,58 36,89l218 0 0 248 -218 0c-9,31 -21,60 -36,88l154 154 -176 175 -154 -154c-27,16 -57,28 -88,37l0 218 -248 0 0 -218c-31,-9 -61,-21 -88,-37l-154 154 -176 -175 154 -154c-15,-28 -27,-57 -36,-88l-218 0 0 -248 218 0c9,-31 21,-61 36,-89l-154 -154 176 -175 154 154c27,-15 57,-28 88,-37l0 -218zm124 465c-98,0 -178,79 -178,178 0,98 80,177 178,177 98,0 178,-79 178,-177 0,-99 -80,-178 -178,-178z"/>
  <path class="fil1" d="M771 250l0 201 -50 14c-26,8 -51,18 -75,31l-46 25 -141 -141 -77 76 142 142 -25 46c-13,23 -24,48 -31,74l-15 51 -200 0 0 108 200 0 15 50c7,26 18,51 31,74l25 46 -142 142 77 76 141 -141 46 25c24,13 49,23 75,31l50 15 0 200 108 0 0 -200 50 -15c26,-8 51,-18 75,-31l46 -25 141 141 77 -76 -142 -142 25 -46c13,-23 24,-48 31,-74l15 -50 200 0 0 -108 -200 0 -15 -51c-7,-26 -18,-51 -31,-74l-25 -46 142 -142 -77 -76 -141 141 -46 -25c-24,-13 -49,-23 -75,-31l-50 -14 0 -201 -108 0zm54 325c137,0 248,111 248,248 0,136 -111,247 -248,247 -137,0 -248,-111 -248,-247 0,-137 111,-248 248,-248z"/>
 </g>
</svg>
