<?xml version="1.0" encoding="UTF-8"?>
<!DOCTYPE svg PUBLIC "-//W3C//DTD SVG 1.1//EN" "http://www.w3.org/Graphics/SVG/1.1/DTD/svg11.dtd">
<!-- Creator: CorelDRAW X8 -->
<svg xmlns="http://www.w3.org/2000/svg" xml:space="preserve" width="400px" height="300px" version="1.1" style="shape-rendering:geometricPrecision; text-rendering:geometricPrecision; image-rendering:optimizeQuality; fill-rule:evenodd; clip-rule:evenodd"
viewBox="0 0 4724 3543"
 xmlns:xlink="http://www.w3.org/1999/xlink">
 <defs>
  <style type="text/css">
   <![CDATA[
    .str0 {stroke:white;stroke-width:11.81}
    .str1 {stroke:white;stroke-width:5.905;stroke-linecap:round}
    .str2 {stroke:white;stroke-width:17.715;stroke-linecap:round}
    .str3 {stroke:white;stroke-width:5.905;stroke-linecap:round;stroke-linejoin:round}
    .fil2 {fill:none}
    .fil0 {fill:#193153}
    .fil1 {fill:#758396}
    .fil3 {fill:#BCC5D1}
   ]]>
  </style>
 </defs>
 <g id="Копия_x0020_Слой_x0020_1">
  <metadata id="CorelCorpID_0Corel-Layer"/>
  <rect class="fil0" width="4724" height="3543"/>
  <path class="fil1 str0" d="M805 255l878 0 0 820 -878 0 0 -820z"/>
  <g id="_2488041911840">
   <path class="fil2 str1" d="M1054 554l-54 0"/>
   <path class="fil2 str2" d="M1244 815l0 -263"/>
   <path class="fil2 str1" d="M1435 554l54 0"/>
   <path class="fil2 str1" d="M1213 758l-339 256m402 -256l339 256m-338 -308l338 -91m-371 158c-22,0 -41,-19 -41,-42 0,-23 19,-41 41,-41 23,0 42,18 42,41 0,23 -19,42 -42,42zm-32 -67l-338 -91m741 399l-741 0 0 -399 741 0 0 399zm-546 -445c-8,0 -15,-7 -15,-15 0,-8 7,-15 15,-15 8,0 15,7 15,15 0,8 -7,15 -15,15zm0 20c-19,0 -35,-16 -35,-35 0,-19 16,-35 35,-35 19,0 35,16 35,35 0,19 -16,35 -35,35zm175 0c-19,0 -35,-16 -35,-35 0,-19 16,-35 35,-35 20,0 36,16 36,35 0,19 -16,35 -36,35zm176 -70c19,0 35,16 35,35 0,19 -16,35 -35,35 -19,0 -35,-16 -35,-35 0,-19 16,-35 35,-35zm0 20c8,0 15,7 15,15 0,8 -7,15 -15,15 -8,0 -15,-7 -15,-15 0,-8 7,-15 15,-15z"/>
  </g>
  <g id="_2488041901120">
   <path class="fil1 str0" d="M1156 2124c0,169 0,128 196,202 263,101 319,95 319,-202 0,-297 -56,-302 -319,-202 -196,75 -196,33 -196,202zm-28 0c0,78 17,152 40,203l-34 0c-14,-31 -38,-121 -38,-203 0,-81 24,-172 38,-202l34 0c-23,50 -40,124 -40,202z"/>
   <path class="fil1 str0" d="M2362 3065c169,1 127,0 202,-195 100,-264 95,-320 -202,-320 -297,0 -302,56 -202,320 75,195 33,196 202,195zm0 29c78,-1 152,-18 202,-41l0 34c-30,14 -120,38 -202,38 -82,0 -172,-24 -202,-38l0 -34c50,23 124,40 202,41z"/>
   <path class="fil3 str0" d="M1741 1665l1259 0 0 918 -1259 0 0 -918z"/>
   <g>
    <path class="fil2 str0" d="M1888 1991c73,0 133,60 133,133 0,74 -60,134 -133,134 -74,0 -134,-60 -134,-134 0,-73 60,-133 134,-133z"/>
    <path class="fil2 str0" d="M1754 1932l246 0 0 36 -246 0 0 -36z"/>
    <path class="fil2 str0" d="M1754 2281l246 0 0 36 -246 0 0 -36z"/>
    <path class="fil2 str0" d="M2032 2036l31 0 0 188 -31 0 0 -188z"/>
    <path class="fil2 str0" d="M2122 2130c27,0 49,21 49,47 0,26 -22,47 -49,47 -27,0 -48,-21 -48,-47 0,-26 21,-47 48,-47z"/>
    <path class="fil2 str0" d="M2057 2236c20,0 36,16 36,36 0,19 -16,36 -36,36 -20,0 -36,-17 -36,-36 0,-20 16,-36 36,-36z"/>
    <path class="fil1 str0" d="M1800 2036l175 0 0 177 -175 0 0 -177z"/>
   </g>
   <g>
    <path class="fil2 str0" d="M2228 2418c0,-74 60,-133 134,-133 74,0 134,59 134,133 0,74 -60,134 -134,134 -74,0 -134,-60 -134,-134z"/>
    <path class="fil2 str0" d="M2169 2552l0 -246 37 0 0 246 -37 0z"/>
    <path class="fil2 str0" d="M2518 2552l0 -246 37 0 0 246 -37 0z"/>
    <path class="fil2 str0" d="M2273 2274l0 -31 188 0 0 31 -188 0z"/>
    <path class="fil2 str0" d="M2367 2183c0,-26 22,-48 48,-48 26,0 47,22 47,48 0,27 -21,49 -47,49 -26,0 -48,-22 -48,-49z"/>
    <path class="fil2 str0" d="M2474 2249c0,-20 16,-36 35,-36 20,0 36,16 36,36 0,20 -16,36 -36,36 -19,0 -35,-16 -35,-36z"/>
    <path class="fil1 str0" d="M2273 2506l0 -176 178 0 0 176 -178 0z"/>
   </g>
   <path class="fil2 str0" d="M2677 1809c67,0 122,55 122,123 0,67 -55,122 -122,122 -68,0 -122,-55 -122,-122 0,-68 54,-123 122,-123z"/>
   <path class="fil1 str0" d="M3571 2124c1,169 0,128 -195,202 -264,101 -320,95 -320,-202 0,-297 56,-302 320,-202 195,75 196,33 195,202zm29 0c-1,78 -18,152 -40,203l33 0c15,-31 38,-121 38,-203 0,-81 -23,-172 -38,-202l-33 0c22,50 39,124 40,202z"/>
  </g>
  <rect class="fil3 str0" x="805" y="255" width="878" height="407"/>
  <path class="fil1 str0" d="M2449 255l741 0 0 820 -741 0 0 -820z"/>
  <path class="fil2 str3" d="M2493 335l646 0 1 627 -646 0 -1 -627z"/>
  <path class="fil2 str3" d="M3039 824l50 0m-207 0l50 0m53 53l0 50m0 -206l0 50m0 13c22,0 40,18 40,40 0,22 -18,39 -40,39 -21,0 -39,-17 -39,-39 0,-22 18,-40 39,-40zm0 -22c34,0 62,28 62,62 0,34 -28,61 -62,61 -33,0 -61,-27 -61,-61 0,-34 28,-62 61,-62zm0 -21c46,0 84,37 84,83 0,46 -38,83 -84,83 -45,0 -83,-37 -83,-83 0,-46 38,-83 83,-83z"/>
  <path class="fil2 str3" d="M2648 753l0 34m0 25c6,0 11,5 11,12 0,6 -5,11 -11,11 -6,0 -12,-5 -12,-11 0,-7 6,-12 12,-12zm37 12l34 0m-142 0l34 0m37 37l0 34m0 -99c15,0 27,13 27,28 0,15 -12,27 -27,27 -15,0 -27,-12 -27,-27 0,-15 12,-28 27,-28zm0 -15c23,0 42,19 42,43 0,23 -19,42 -42,42 -24,0 -43,-19 -43,-42 0,-24 19,-43 43,-43zm0 -15c32,0 57,26 57,58 0,32 -25,57 -57,57 -32,0 -58,-25 -58,-57 0,-32 26,-58 58,-58z"/>
  <path class="fil2 str3" d="M2985 462c12,0 22,10 22,22 0,11 -10,21 -22,21 -11,0 -21,-10 -21,-21 0,-12 10,-22 21,-22zm48 22l45 0m-185 0l45 0m47 48l0 44m0 -185l0 45m0 12c20,0 36,16 36,36 0,19 -16,35 -36,35 -19,0 -35,-16 -35,-35 0,-20 16,-36 35,-36zm0 -20c31,0 56,25 56,56 0,30 -25,55 -56,55 -30,0 -55,-25 -55,-55 0,-31 25,-56 55,-56zm0 -19c42,0 75,33 75,75 0,41 -33,75 -75,75 -41,0 -74,-34 -74,-75 0,-42 33,-75 74,-75z"/>
  <path class="fil2 str3" d="M2900 987l0 8m0 -8c8,0 14,6 14,13 0,8 -6,14 -14,14 -7,0 -13,-6 -13,-14 0,-7 6,-13 13,-13zm-42 0l0 8m0 -8c7,0 13,6 13,13 0,8 -6,14 -13,14 -8,0 -14,-6 -14,-14 0,-7 6,-13 14,-13zm-41 0l0 8m0 -8c7,0 13,6 13,13 0,8 -6,14 -13,14 -8,0 -14,-6 -14,-14 0,-7 6,-13 14,-13zm-44 0l0 8m0 -8c8,0 14,6 14,13 0,8 -6,14 -14,14 -7,0 -13,-6 -13,-14 0,-7 6,-13 13,-13zm-40 0l0 8m0 -8c7,0 13,6 13,13 0,8 -6,14 -13,14 -8,0 -14,-6 -14,-14 0,-7 6,-13 14,-13z"/>
  <path class="fil2 str3" d="M2696 484l45 0m-186 0l45 0m48 48l0 44m0 -185l0 45m0 12c20,0 36,16 36,36 0,19 -16,35 -36,35 -20,0 -36,-16 -36,-35 0,-20 16,-36 36,-36zm0 -20c31,0 55,25 55,56 0,30 -24,55 -55,55 -31,0 -55,-25 -55,-55 0,-31 24,-56 55,-56zm0 -19c41,0 75,33 75,75 0,41 -34,75 -75,75 -41,0 -75,-34 -75,-75 0,-42 34,-75 75,-75z"/>
  <path class="fil1 str0" d="M1683 255l741 0 0 820 -741 0 0 -820z"/>
  <path class="fil1 str0" d="M3216 255l741 0 0 820 -741 0 0 -820z"/>
  <rect class="fil3 str0" x="1683" y="255" width="741" height="407"/>
  <rect class="fil3 str0" x="3216" y="255" width="741" height="407"/>
 </g>
</svg>
