<?xml version="1.0" encoding="UTF-8"?>
<!DOCTYPE svg PUBLIC "-//W3C//DTD SVG 1.1//EN" "http://www.w3.org/Graphics/SVG/1.1/DTD/svg11.dtd">
<!-- Creator: CorelDRAW X8 -->
<svg xmlns="http://www.w3.org/2000/svg" xml:space="preserve" width="400px" height="300px" version="1.1" style="shape-rendering:geometricPrecision; text-rendering:geometricPrecision; image-rendering:optimizeQuality; fill-rule:evenodd; clip-rule:evenodd"
viewBox="0 0 4724 3543"
 xmlns:xlink="http://www.w3.org/1999/xlink">
 <defs>
  <style type="text/css">
   <![CDATA[
    .str4 {stroke:#FEFEFE;stroke-width:11.81}
    .str0 {stroke:white;stroke-width:11.81}
    .str1 {stroke:white;stroke-width:5.905;stroke-linecap:round}
    .str2 {stroke:white;stroke-width:17.715;stroke-linecap:round}
    .str3 {stroke:white;stroke-width:5.905;stroke-linecap:round;stroke-linejoin:round}
    .fil2 {fill:none}
    .fil0 {fill:#193153}
    .fil1 {fill:#758396}
    .fil3 {fill:#BCC5D1}
   ]]>
  </style>
 </defs>
 <g id="Копия_x0020_Слой_x0020_1">
  <metadata id="CorelCorpID_0Corel-Layer"/>
  <rect class="fil0" width="4724" height="3543"/>
  <path class="fil1 str0" d="M1164 162l3342 0 0 820 -3342 0 0 -820z"/>
  <g id="_2488043374192">
   <path class="fil2 str1" d="M3869 465l-53 0"/>
   <path class="fil2 str2" d="M4060 726l0 -263"/>
   <path class="fil2 str1" d="M4250 465l54 0"/>
   <path class="fil2 str1" d="M4029 669l-340 256m402 -256l340 256m-339 -308l339 -91m-371 158c-23,0 -41,-19 -41,-42 0,-22 18,-41 41,-41 23,0 41,19 41,41 0,23 -18,42 -41,42zm-33 -67l-338 -91m742 399l-742 0 0 -399 742 0 0 399zm-547 -445c-8,0 -15,-6 -15,-15 0,-8 7,-15 15,-15 9,0 16,7 16,15 0,9 -7,15 -16,15zm0 20c-19,0 -35,-15 -35,-35 0,-19 16,-35 35,-35 20,0 36,16 36,35 0,20 -16,35 -36,35zm176 0c-20,0 -35,-15 -35,-35 0,-19 15,-35 35,-35 19,0 35,16 35,35 0,20 -16,35 -35,35zm175 -70c20,0 36,16 36,35 0,20 -16,35 -36,35 -19,0 -35,-15 -35,-35 0,-19 16,-35 35,-35zm0 20c9,0 15,7 15,15 0,9 -6,15 -15,15 -8,0 -15,-6 -15,-15 0,-8 7,-15 15,-15z"/>
  </g>
  <path class="fil2 str3" d="M1874 508c41,0 75,34 75,75 0,42 -34,75 -75,75 -42,0 -75,-33 -75,-75 0,-41 33,-75 75,-75zm0 20c30,0 55,25 55,55 0,31 -25,56 -55,56 -31,0 -56,-25 -56,-56 0,-30 25,-55 56,-55zm0 19c20,0 36,16 36,36 0,20 -16,36 -36,36 -20,0 -36,-16 -36,-36 0,-20 16,-36 36,-36zm0 -57l0 45m0 96l0 45m-93 -93l45 0m96 0l45 0m21 311c7,0 13,6 13,14 0,7 -6,13 -13,13 -8,0 -14,-6 -14,-13 0,-8 6,-14 14,-14zm0 0l0 9m41 -9c7,0 13,6 13,14 0,7 -6,13 -13,13 -8,0 -14,-6 -14,-13 0,-8 6,-14 14,-14zm0 0l0 9m43 -9c7,0 13,6 13,14 0,7 -6,13 -13,13 -8,0 -14,-6 -14,-13 0,-8 6,-14 14,-14zm0 0l0 9m41 -9c7,0 13,6 13,14 0,7 -6,13 -13,13 -7,0 -13,-6 -13,-13 0,-8 6,-14 13,-14zm0 0l0 9m43 -9c7,0 13,6 13,14 0,7 -6,13 -13,13 -8,0 -14,-6 -14,-13 0,-8 6,-14 14,-14zm0 0l0 9m125 -395c41,0 75,34 75,75 0,42 -34,75 -75,75 -41,0 -75,-33 -75,-75 0,-41 34,-75 75,-75zm0 20c31,0 55,25 55,55 0,31 -24,56 -55,56 -30,0 -55,-25 -55,-56 0,-30 25,-55 55,-55zm0 19c20,0 36,16 36,36 0,20 -16,36 -36,36 -20,0 -36,-16 -36,-36 0,-20 16,-36 36,-36zm0 -57l0 45m0 96l0 45m-93 -93l45 0m96 0l45 0m-93 -21c12,0 21,9 21,21 0,12 -9,22 -21,22 -12,0 -21,-10 -21,-22 0,-12 9,-21 21,-21zm-408 167c31,0 57,26 57,58 0,31 -26,57 -57,57 -32,0 -58,-26 -58,-57 0,-32 26,-58 58,-58zm0 15c23,0 42,19 42,43 0,23 -19,42 -42,42 -24,0 -43,-19 -43,-42 0,-24 19,-43 43,-43zm0 15c15,0 27,13 27,28 0,15 -12,27 -27,27 -15,0 -28,-12 -28,-27 0,-15 13,-28 28,-28zm0 -43l0 34m0 73l0 35m-71 -71l34 0m73 0l35 0m-71 -12c6,0 11,5 11,12 0,6 -5,11 -11,11 -7,0 -12,-5 -12,-11 0,-7 5,-12 12,-12zm409 -57c31,0 57,25 57,57 0,32 -26,58 -57,58 -32,0 -58,-26 -58,-58 0,-32 26,-57 58,-57zm0 15c23,0 42,19 42,42 0,24 -19,43 -42,43 -24,0 -43,-19 -43,-43 0,-23 19,-42 43,-42zm0 15c15,0 27,12 27,27 0,15 -12,28 -27,28 -16,0 -28,-13 -28,-28 0,-15 12,-27 28,-27zm0 -44l0 34m0 74l0 34m-72 -71l35 0m73 0l35 0m-71 -11c6,0 11,5 11,11 0,7 -5,12 -11,12 -7,0 -12,-5 -12,-12 0,-6 5,-11 12,-11zm-210 -162c46,0 83,38 83,84 0,46 -37,83 -83,83 -46,0 -84,-37 -84,-83 0,-46 38,-84 84,-84zm0 22c34,0 61,28 61,62 0,34 -27,61 -61,61 -34,0 -62,-27 -62,-61 0,-34 28,-62 62,-62zm0 22c22,0 39,18 39,40 0,22 -17,39 -39,39 -22,0 -40,-17 -40,-39 0,-22 18,-40 40,-40zm0 -63l0 50m0 106l0 50m-103 -103l49 0m107 0l50 0m-446 -224l680 0 0 475 -680 0 0 -475zm17 17l646 0 1 398 -646 0 -1 -398z"/>
  <g id="_2488043372112">
   <path class="fil1 str0" d="M4506 162l0 521 -3341 0 -1 335 -993 0 0 -856 4335 0z"/>
   <path class="fil1 str0" d="M4506 162l0 447 -3417 -2 -1 335 -841 0 0 -780 4259 0z"/>
   <path class="fil3 str0" d="M284 162l4222 0 0 406 -3454 2 -1 334 -767 0 0 -742z"/>
   <path class="fil2 str0" d="M1088 570l0 -408"/>
   <path class="fil2 str0" d="M1651 570l0 -408"/>
   <path class="fil2 str0" d="M2483 570l0 -408"/>
   <path class="fil2 str0" d="M3046 570l0 -408"/>
   <path class="fil2 str0" d="M3608 570l0 -408"/>
  </g>
  <g id="_2488043355120">
   <path class="fil1 str0" d="M630 3447c169,1 127,1 202,-195 100,-263 95,-320 -202,-320 -297,0 -302,57 -202,320 75,196 33,196 202,195zm0 29c78,-1 152,-17 202,-40l0 33c-30,15 -120,39 -202,39 -81,0 -172,-24 -202,-39l0 -33c50,23 124,39 202,40z"/>
   <path class="fil1 str0" d="M1392 2517c1,-169 0,-127 -195,-202 -264,-100 -320,-95 -320,202 0,297 56,302 320,202 195,-75 196,-33 195,-202zm29 0c-1,-78 -18,-152 -41,-202l34 0c15,30 38,121 38,202 0,82 -23,172 -38,202l-34 0c23,-50 40,-124 41,-202z"/>
   <path class="fil1 str0" d="M629 1671c170,0 128,0 202,196 101,263 95,320 -202,320 -297,0 -302,-57 -201,-320 74,-196 32,-196 201,-196zm0 -28c78,0 152,17 203,40l0 -34c-31,-14 -121,-38 -203,-38 -81,0 -172,24 -202,38l0 34c50,-23 124,-40 202,-40z"/>
   <path class="fil3 str0" d="M171 3151l0 -1260 918 0 0 1260 -918 0z"/>
   <g>
    <path class="fil2 str0" d="M496 3004c0,-74 60,-134 134,-134 74,0 134,60 134,134 0,74 -60,133 -134,133 -74,0 -134,-59 -134,-133z"/>
    <path class="fil2 str0" d="M437 3137l0 -246 37 0 0 246 -37 0z"/>
    <path class="fil2 str0" d="M787 3137l0 -246 36 0 0 246 -36 0z"/>
    <path class="fil2 str0" d="M541 2860l0 -32 188 0 0 32 -188 0z"/>
    <path class="fil2 str0" d="M635 2769c0,-27 22,-49 48,-49 26,0 47,22 47,49 0,27 -21,49 -47,49 -26,0 -48,-22 -48,-49z"/>
    <path class="fil2 str0" d="M742 2834c0,-19 16,-35 35,-35 20,0 36,16 36,35 0,20 -16,36 -36,36 -19,0 -35,-16 -35,-36z"/>
    <path class="fil1 str0" d="M541 3092l0 -176 178 0 0 176 -178 0z"/>
   </g>
   <g>
    <path class="fil2 str0" d="M924 2663c-74,0 -134,-60 -134,-134 0,-73 60,-133 134,-133 74,0 134,60 134,133 0,74 -60,134 -134,134z"/>
    <path class="fil2 str0" d="M1058 2722l-247 0 0 -36 247 0 0 36z"/>
    <path class="fil2 str0" d="M1058 2373l-247 0 0 -36 247 0 0 36z"/>
    <path class="fil2 str0" d="M780 2618l-32 0 0 -188 32 0 0 188z"/>
    <path class="fil2 str0" d="M689 2524c-27,0 -48,-21 -48,-47 0,-27 21,-48 48,-48 27,0 49,21 49,48 0,26 -22,47 -49,47z"/>
    <path class="fil2 str0" d="M755 2418c-20,0 -36,-16 -36,-36 0,-20 16,-36 36,-36 19,0 35,16 35,36 0,20 -16,36 -35,36z"/>
    <path class="fil1 str0" d="M1012 2618l-176 0 0 -177 176 0 0 177z"/>
   </g>
   <path class="fil2 str0" d="M315 2215c0,-68 55,-123 122,-123 68,0 122,55 122,123 0,67 -54,122 -122,122 -67,0 -122,-55 -122,-122z"/>
  </g>
  <rect class="fil3 str4" x="3119" y="2060" width="708" height="916" rx="112" ry="78"/>
  <rect class="fil1 str4" x="4185" y="1789" width="321" height="1468"/>
  <rect class="fil3 str4" x="4238" y="1841" width="169" height="130"/>
  <rect class="fil3 str4" x="4238" y="3085" width="169" height="130"/>
  <path class="fil3 str4" d="M2277 1739l0 -59c0,-25 20,-45 44,-45l428 0c25,0 45,20 45,45l0 59 -517 0z"/>
  <path class="fil3 str4" d="M2277 3356l0 -59 517 0 0 59c0,25 -20,45 -45,45l-428 0c-24,0 -44,-20 -44,-45z"/>
  <path class="fil1 str4" d="M2326 1739l473 0c24,0 44,20 44,45l0 430c0,24 -20,45 -44,45l-473 0 0 -520z"/>
  <path class="fil1 str4" d="M2326 2778l473 0c24,0 44,20 44,44l0 430c0,25 -20,45 -44,45l-473 0 0 -519z"/>
  <path class="fil1 str4" d="M2326 2259l473 0c24,0 44,20 44,44l0 430c0,25 -20,45 -44,45l-473 0 0 -519z"/>
  <path class="fil3 str4" d="M2234 1687l48 0c24,0 44,20 44,45l0 1572c0,25 -20,45 -44,45l-48 0c-6,0 -12,-5 -12,-12l0 -1638c0,-6 6,-12 12,-12z"/>
  <rect class="fil1 str4" x="4346" y="2228" width="123" height="581"/>
  <path class="fil1 str4" d="M4424 3019l-63 33 0 -1048 63 30 0 985z"/>
 </g>
</svg>
